<?xml version="1.0" encoding="UTF-8"?>
<svg width="51px" height="30px" viewBox="0 0 51 30" version="1.1" xmlns="http://www.w3.org/2000/svg" xmlns:xlink="http://www.w3.org/1999/xlink">
    <!-- Generator: Sketch 43.2 (39069) - http://www.bohemiancoding.com/sketch -->
    <title>abdos</title>
    <desc>Created with Sketch.</desc>
    <defs></defs>
    <g id="UX-UI" stroke="none" stroke-width="1" fill="none" fill-rule="evenodd">
        <g id="09-01-Filtres-catégories" transform="translate(-618.000000, -258.000000)" fill-rule="nonzero" fill="#A7CD45">
            <g id="filtres-tuile" transform="translate(325.000000, 206.000000)">
                <g id="filtre-/-abdos" transform="translate(212.000000, 0.000000)">
                    <g id="abdos" transform="translate(81.000000, 52.000000)">
                        <path d="M50.6768556,12.5935829 C50.6768556,12.513369 50.6768556,11.4705882 49.9497808,10.7486631 C49.6266365,10.4278075 48.9803478,9.94652406 47.9301286,9.94652406 L47.9301286,9.94652406 L47.8493425,9.94652406 C47.6069842,9.94652406 46.9606955,9.94652406 46.3951929,10.2673797 C45.587332,10.6684492 45.1026154,11.4705882 45.1026154,12.4331551 L45.2641876,17.9679144 L45.1834015,18.0481283 C45.1834015,18.0481283 45.0218294,18.0481283 44.8602572,17.9679144 L32.2576272,9.62566845 L32.096055,9.54545455 C32.096055,9.54545455 32.096055,9.54545455 32.0152689,9.54545455 C32.2576272,9.38502674 32.8231298,8.82352941 32.984702,7.86096257 L33.7117768,4.81283422 C33.9541351,4.17112299 33.9541351,3.44919786 33.2270602,3.04812834 C33.1462742,2.96791444 32.8231298,2.80748663 32.4999854,2.80748663 C32.1768411,2.80748663 31.7729106,2.96791444 31.2881941,3.28877005 L25.0676652,7.94117647 C24.9868791,8.02139037 23.8558738,8.90374332 23.7750877,10.1871658 C23.7750877,10.7486631 23.8558738,11.5508021 24.6637347,12.3529412 L29.3493279,15.9625668 C29.430114,16.0427807 29.5916862,16.2032086 29.7532584,16.2834225 C28.6222531,17.0053476 25.4715956,19.0106952 24.6637347,19.4919786 C24.6637347,19.4919786 24.4213765,19.6524064 24.0982321,19.6524064 C24.0982321,19.6524064 24.0982321,19.6524064 24.017446,19.6524064 C23.6135156,18.8502674 21.0283607,13.4759358 19.8165693,11.8716578 C18.8471363,10.6684492 17.3122006,9.46524064 14.080757,10.6684492 L1.31655478,16.684492 L1.1549826,16.7647059 C0.427907791,17.3262032 -0.703097466,18.9304813 0.58947997,21.0160428 C0.67026606,21.0962567 0.993410419,21.5775401 1.47812696,21.9786096 L1.39734087,21.9786096 C0.75105215,22.7005348 -0.218380927,24.6256684 1.23576869,26.5508021 L1.55891305,27.1122995 L1.63969914,27.1925134 C1.63969914,27.2727273 2.60913222,28.4759358 4.3056401,28.4759358 C4.95192882,28.4759358 5.59821754,28.315508 6.16372017,27.9946524 L13.2728961,24.5454545 C13.2728961,24.5454545 13.5960404,24.3048128 13.9999709,24.3048128 C14.2423291,24.3048128 14.4039013,24.3850267 14.5654735,24.5454545 L20.2204998,28.5561497 C20.4628581,28.7967914 22.0785799,30 24.5021625,30 C25.6331678,30 26.7641731,29.7593583 27.8951783,29.2780749 C28.2183227,29.1176471 36.1353595,25.828877 39.6091613,23.4224599 L39.7707335,23.2620321 C39.7707335,23.2620321 40.3362361,22.7005348 41.063311,22.7005348 C41.3056692,22.7005348 41.6288136,22.7807487 41.9519579,22.9411765 L46.3951929,25.3475936 L46.5567651,25.4278075 C46.5567651,25.4278075 47.2838399,25.5882353 48.0917008,25.5882353 C49.7074226,25.5882353 50.7576417,24.8663102 51,23.5828877 L51,23.5026738 L50.6768556,12.5935829 Z M2.12441568,18.1283422 L14.8886179,12.1925134 C17.3929866,11.2299465 18.2008475,12.1925134 18.7663502,12.9144385 C19.493425,13.7967914 20.7860024,16.2834225 21.7554355,18.2887701 L18.2816336,15.6417112 C17.8777032,15.2406417 16.9890562,14.5989305 15.8580509,14.5989305 C15.3733344,14.5989305 14.8078318,14.6791444 14.2423291,15 L3.33620702,21.1764706 C2.77070439,21.0962567 2.28598786,20.5347594 2.12441568,20.3743316 C1.31655478,19.0106952 1.88205741,18.2887701 2.12441568,18.1283422 Z M48.0917008,24.0641711 C47.6877703,24.0641711 47.2838399,23.9839572 47.1222677,23.9839572 L42.7598188,21.657754 C42.2751023,21.4171123 41.7095997,21.2566845 41.144097,21.2566845 C39.8515196,21.2566845 38.9628726,22.0588235 38.7205144,22.2994652 C35.3274986,24.6256684 27.4912479,27.9144385 27.4104618,27.9946524 C26.4410287,28.3957219 25.5523817,28.6363636 24.6637347,28.6363636 C22.6440825,28.6363636 21.4322911,27.5935829 21.4322911,27.5935829 L15.6964788,23.5026738 C15.2925483,23.1016043 14.7270457,22.9411765 14.1615431,22.9411765 C13.4344682,22.9411765 12.7881795,23.2620321 12.6266073,23.342246 L5.51743145,26.7914439 C5.113501,27.0320856 4.79035664,27.1122995 4.46721228,27.1122995 C3.74013747,27.1122995 3.25542093,26.631016 3.17463484,26.4705882 L2.85149048,25.9090909 L2.77070439,25.828877 C1.88205741,24.6256684 2.52834613,23.5828877 2.68991831,23.342246 L14.969404,16.3636364 C15.2925483,16.2032086 15.6156927,16.1229947 15.8580509,16.1229947 C16.6659118,16.1229947 17.1506284,16.684492 17.1506284,16.684492 L21.1899329,19.8930481 C22.240152,20.855615 23.2903712,21.3368984 24.2598043,21.3368984 C25.0676652,21.3368984 25.6331678,21.0160428 25.79474,20.855615 C26.1986704,20.6149733 30.9650497,17.5668449 31.1266219,17.486631 C31.4497663,17.2459893 31.6921245,16.9251337 31.6921245,16.5240642 C31.6921245,15.7219251 30.9650497,15.0802139 30.4803332,14.6791444 L25.8755261,11.2299465 C25.6331678,10.9090909 25.4715956,10.6684492 25.4715956,10.3475936 C25.4715956,9.86631016 25.9563122,9.38502674 26.1178843,9.30481283 L32.096055,4.81283422 L31.4497663,7.54010695 C31.3689802,8.02139037 31.0458358,8.26203209 31.0458358,8.26203209 C30.318761,8.74331551 30.2379749,9.30481283 30.318761,9.70588235 C30.3995471,10.4278075 31.1266219,10.828877 31.4497663,10.9893048 L44.1331824,19.3315508 L44.2139685,19.4117647 C44.6178989,19.5721925 44.9410433,19.7326203 45.2641876,19.7326203 C46.1528346,19.7326203 46.7991233,19.0106952 46.9606955,18.4491979 L46.9606955,18.368984 L46.7183372,12.513369 C46.7183372,12.0320856 46.8799094,11.8716578 47.1222677,11.7914439 C47.445412,11.631016 47.7685564,11.631016 47.8493425,11.631016 C48.2532729,11.631016 48.5764173,11.7112299 48.7379895,11.8716578 C48.9803478,12.1122995 48.9803478,12.513369 48.9803478,12.5935829 L49.3842782,23.4224599 C49.3842782,23.5828877 49.1419199,24.0641711 48.0917008,24.0641711 Z M40.9825249,12.6737968 C44.4563267,12.6737968 47.364626,9.86631016 47.364626,6.3368984 C47.364626,2.80748663 44.5371128,0 40.9825249,0 C37.4279369,0 34.6004238,2.80748663 34.6004238,6.3368984 C34.6004238,9.86631016 37.4279369,12.6737968 40.9825249,12.6737968 Z M40.9825249,1.60427807 C43.5676797,1.60427807 45.7489042,3.68983957 45.7489042,6.3368984 C45.7489042,8.98395722 43.5676797,11.0695187 40.9825249,11.0695187 C38.39737,11.0695187 36.2161456,8.98395722 36.2161456,6.3368984 C36.2161456,3.68983957 38.3165839,1.60427807 40.9825249,1.60427807 Z" id="Shape"></path>
                    </g>
                </g>
            </g>
        </g>
    </g>
</svg>