<?xml version="1.0" encoding="UTF-8"?>
<svg width="76px" height="44px" viewBox="0 0 76 44" version="1.1" xmlns="http://www.w3.org/2000/svg" xmlns:xlink="http://www.w3.org/1999/xlink">
    <!-- Generator: Sketch 43.2 (39069) - http://www.bohemiancoding.com/sketch -->
    <title>actions</title>
    <desc>Created with Sketch.</desc>
    <defs></defs>
    <g id="UX-UI" stroke="none" stroke-width="1" fill="none" fill-rule="evenodd">
        <g id="09-01-Filtres-catégories" transform="translate(-818.000000, -252.000000)" fill-rule="nonzero" fill="#A7CD45">
            <g id="filtres-tuile" transform="translate(325.000000, 206.000000)">
                <g id="filtre-/-action" transform="translate(424.000000, 0.000000)">
                    <g id="actions" transform="translate(69.000000, 46.000000)">
                        <path d="M8.09804255,21.7651064 L0.347659574,15.2468936 L11.6118298,1.8547234 L19.3589787,8.37131915 L8.09804255,21.7651064 Z M2.76753191,15.0374894 L7.88944681,19.342 L16.9382979,8.58153191 L11.819617,4.27621277 L2.76753191,15.0374894 Z" id="Shape"></path>
                        <path d="M25.7454043,36.288383 L25.7454043,36.288383 C23.4597447,36.288383 20.8482553,35.1928511 18.5795745,33.2823404 C15.4748936,30.6724681 12.3669787,25.765617 11.8365957,24.9085957 L8.66157447,22.2388936 L19.9257447,8.84753191 L21.9696596,10.5680426 C22.1410638,10.7103404 22.3828085,10.871234 22.6714468,11.0499149 C23.2786383,10.7831064 24.4137872,10.3966383 25.8666809,10.3966383 C27.132,10.3966383 28.3738723,10.6917447 29.5559149,11.2722553 C29.8849787,11.4331489 30.2407234,11.6013191 30.6061702,11.7743404 C33.2338298,13.0105532 36.5066809,14.552383 37.0904255,17.2099574 C37.3596596,18.4324255 37.013617,19.725234 36.0668511,21.0673617 C38.2587234,23.3441277 37.4833617,25.6031064 36.6982979,26.5385532 L30.1663404,34.3034894 C29.0748511,35.6003404 27.5475745,36.288383 25.7454043,36.288383 Z M11.0814468,22.0302979 L13.2296596,23.8931064 C13.263617,23.9464681 16.5655745,29.3457021 19.684,31.9685106 C21.6211915,33.5968511 23.8866383,34.5702979 25.7462128,34.5702979 C27.0422553,34.5702979 28.0860426,34.1070213 28.8508936,33.1974468 L35.3828511,25.4325106 C35.5979149,25.1640851 36.5842979,23.6925957 34.355234,21.8192766 L33.7003404,21.2654468 L34.2509362,20.6081277 C35.2106383,19.4665106 35.6035745,18.4477872 35.4119574,17.5802553 C35.0093191,15.7473617 32.1633617,14.4084681 29.8736596,13.3307234 C29.4977021,13.1528511 29.1354894,12.9814468 28.7959149,12.8157021 C27.8499574,12.3508085 26.866,12.1163404 25.8658723,12.1163404 C24.2148936,12.1163404 23.0700426,12.7639574 23.0595319,12.7704255 L22.6229362,13.0234894 L22.1863404,12.768 C21.5217447,12.3718298 21.1393191,12.1171489 20.863617,11.8851064 L20.1319149,11.2706383 L11.0814468,22.0302979 Z" id="Shape"></path>
                        <rect id="Rectangle-path" transform="translate(18.297770, 8.600820) rotate(40.083608) translate(-18.297770, -8.600820) " x="16.0343613" y="7.74137981" width="4.52681761" height="1.71888091"></rect>
                        <rect id="Rectangle-path" transform="translate(8.634986, 21.091773) rotate(40.091681) translate(-8.634986, -21.091773) " x="6.24184097" y="20.232343" width="4.78628964" height="1.7188601"></rect>
                        <path d="M7.04051064,17.1137447 C6.5812766,17.1137447 6.13417021,16.9520426 5.77842553,16.6553191 C5.37902128,16.3181702 5.13404255,15.844383 5.09038298,15.3212766 C5.04348936,14.8005957 5.20761702,14.2936596 5.54395745,13.8926383 L10.9108511,7.51025532 C11.5827234,6.71144681 12.8811915,6.60229787 13.6702979,7.27255319 C14.4957872,7.96868085 14.6033191,9.20570213 13.908,10.032 L8.53787234,16.416 C8.16838298,16.8582553 7.62102128,17.1137447 7.04051064,17.1137447 Z M12.3702128,8.55080851 C12.3031064,8.55080851 12.2626809,8.57182979 12.2262979,8.61629787 L6.85940426,15.0002979 C6.80604255,15.0649787 6.79876596,15.1304681 6.80280851,15.1757447 C6.80604255,15.2218298 6.82302128,15.2873191 6.88689362,15.3382553 L7.04131915,15.3940426 C7.08174468,15.3940426 7.16178723,15.3835319 7.22242553,15.3099574 L12.5933617,8.92595745 C12.6806809,8.82408511 12.6669362,8.6712766 12.5626383,8.58557447 C12.4809787,8.56293617 12.4203404,8.55080851 12.3702128,8.55080851 Z" id="Shape"></path>
                        <path d="M67.9019574,21.7651064 L56.6418298,8.37131915 L64.3881702,1.8547234 L75.6523404,15.2468936 L67.9019574,21.7651064 Z M59.0617021,8.58153191 L68.1097447,19.342 L73.2316596,15.0358723 L64.1795745,4.27702128 L59.0617021,8.58153191 Z" id="Shape"></path>
                        <path d="M50.2505532,36.288383 C48.4508085,36.288383 46.9211064,35.6003404 45.829617,34.3034894 L39.3017021,26.5385532 C39.2345957,26.4609362 38.6532766,25.7397447 38.530383,24.625617 C38.4325532,23.7330213 38.6201277,22.4321277 39.9323404,21.0681702 C38.986383,19.7268511 38.6403404,18.433234 38.908766,17.210766 C39.4892766,14.5531915 42.7621277,13.0121702 45.3897872,11.7751489 C45.7592766,11.6021277 46.1117872,11.4339574 46.4440851,11.2730638 C47.6261277,10.6925532 48.8671915,10.3974468 50.1333191,10.3974468 C51.5829787,10.3974468 52.7173191,10.7839149 53.3253191,11.0507234 C53.6074894,10.8760851 53.8686383,10.7030638 54.0295319,10.5688511 L56.0734468,8.84834043 L67.3384255,22.2397021 L64.1625957,24.9094043 C63.6330213,25.767234 60.5242979,30.6740851 57.419617,33.2855745 C55.1509362,35.1920426 52.5362128,36.288383 50.2505532,36.288383 Z M50.1333191,12.1155319 C49.1331915,12.1155319 48.146,12.35 47.2032766,12.8148936 C46.8645106,12.9806383 46.5014894,13.1520426 46.1222979,13.3299149 C43.8366383,14.4076596 40.9866383,15.7465532 40.5880426,17.5794468 C40.3964255,18.4453617 40.7885532,19.4657021 41.7490638,20.6073191 L42.2996596,21.2646383 L41.644766,21.8184681 C39.4165106,23.6909787 40.4037021,25.1632766 40.6244255,25.4397872 L47.1458723,33.1966383 C47.9107234,34.1062128 48.9545106,34.5694894 50.2505532,34.5694894 C52.1101277,34.5694894 54.3755745,33.5960426 56.3151915,31.9677021 C59.433617,29.3448936 62.7355745,23.9456596 62.7695319,23.8922979 L62.9514468,23.6804681 L64.9185532,22.0294894 L55.8664681,11.2682128 L55.138,11.8826809 C54.8259149,12.1430213 54.3828511,12.422766 53.8120426,12.7655745 L53.3794894,13.0242979 L52.9364255,12.7688085 C52.9259149,12.7631489 51.7810638,12.1155319 50.1333191,12.1155319 Z" id="Shape"></path>
                        <rect id="Rectangle-path" transform="translate(57.703468, 8.601388) rotate(49.879717) translate(-57.703468, -8.601388) " x="56.8440132" y="6.33794285" width="1.71890861" height="4.52689056"></rect>
                        <rect id="Rectangle-path" transform="translate(67.359253, 21.091556) rotate(49.900246) translate(-67.359253, -21.091556) " x="66.4994295" y="18.6984403" width="1.7196478" height="4.78623177"></rect>
                        <path d="M68.9594894,17.1137447 L68.9594894,17.1137447 C68.3781702,17.1137447 67.831617,16.8598723 67.4597021,16.4151915 L62.088766,10.0311915 C61.3942553,9.20570213 61.5009787,7.96868085 62.3272766,7.27174468 C63.1260851,6.59987234 64.4180851,6.71468085 65.0891489,7.50944681 L70.4568511,13.8934468 C70.792383,14.291234 70.9532766,14.7981702 70.9104255,15.3204681 C70.8659574,15.842766 70.6217872,16.3157447 70.2215745,16.6528936 C69.8658298,16.9520426 69.4187234,17.1137447 68.9594894,17.1137447 Z M63.5885532,8.53140426 C63.3338723,8.67208511 63.3201277,8.82489362 63.4034043,8.92676596 L68.7743404,15.310766 C68.8948085,15.4595319 68.9991064,15.4352766 69.1131064,15.3374468 C69.1802128,15.2840851 69.1939574,15.2137447 69.1971915,15.1749362 C69.2004255,15.1296596 69.1931489,15.0641702 69.1438298,15.0027234 L63.7728936,8.61710638 C63.7098298,8.54029787 63.6289787,8.53140426 63.5885532,8.53140426 Z" id="Shape"></path>
                        <rect id="Rectangle-path" x="37.3685532" y="36.4614043" width="1.71808511" height="6.69446809"></rect>
                        <rect id="Rectangle-path" transform="translate(43.488686, 37.110975) rotate(53.707659) translate(-43.488686, -37.110975) " x="40.1431002" y="36.2511314" width="6.69117252" height="1.71968631"></rect>
                        <path d="M31.6798723,40.319617 L30.3005532,39.295234 C30.4719574,39.064 34.2582128,33.9048936 34.2582128,33.9048936 L35.644,34.922 C35.6431915,34.922 31.8512766,40.0843404 31.6798723,40.319617 Z" id="Shape"></path>
                        <rect id="Rectangle-path" x="37.3685532" y="0.228808511" width="1.71808511" height="6.69446809"></rect>
                        <polygon id="Shape" points="42.1985957 9.4773617 40.8128085 8.46025532 44.7728936 3.06991489 46.1594894 4.08378723"></polygon>
                        <path d="M34.2574043,9.4773617 C34.2574043,9.4773617 30.4711489,4.32068085 30.2973191,4.08702128 L31.6798723,3.06668085 C31.8545106,3.30034043 35.644,8.46025532 35.644,8.46025532 L34.2574043,9.4773617 Z" id="Shape"></path>
                    </g>
                </g>
            </g>
        </g>
    </g>
</svg>