<?xml version="1.0" encoding="UTF-8"?>
<svg width="17px" height="49px" viewBox="0 0 17 49" version="1.1" xmlns="http://www.w3.org/2000/svg" xmlns:xlink="http://www.w3.org/1999/xlink">
    <!-- Generator: Sketch 43.2 (39069) - http://www.bohemiancoding.com/sketch -->
    <title>Group 9</title>
    <desc>Created with Sketch.</desc>
    <defs></defs>
    <g id="UX-UI" stroke="none" stroke-width="1" fill="none" fill-rule="evenodd" opacity="0.40234375">
        <g id="14-05-pop-confirmation-/-lancement" transform="translate(-859.000000, -435.000000)" fill-rule="nonzero" fill="#000000">
            <g id="contenu" transform="translate(555.000000, 332.000000)">
                <g id="Group-9" transform="translate(305.000000, 104.000000)">
                    <path d="M12.7275968,45.3729657 C12.8940551,45.1869399 13.0435429,45.0035779 13.183401,44.8085513 C14.1466037,43.4654027 14.3459695,42.0576293 13.3593028,40.3853503 L13.0372285,39.839474 L13.3934133,39.3152172 C13.4343935,39.2548998 13.5076856,39.1350374 13.6177294,38.9256966 C13.7527664,38.704856 13.8463386,38.3885966 13.8463386,38.0350877 C13.8463386,37.6945361 13.7252369,37.388972 13.4168661,37.0485614 L12.857853,36.4314667 L13.36349,35.7699287 C14.0413692,34.8830415 14.3514721,33.3616072 13.303551,32.0142093 C12.0598356,30.4015521 12.1576831,28.7936524 13.0876013,27.5014174 C13.1975091,27.3486871 13.3081538,27.2148116 13.4143612,27.0996806 L13.5948698,14.3468209 C13.5845632,14.2868713 13.5698113,14.2048567 13.550451,14.102957 C13.4993227,13.8338514 13.4357938,13.5327609 13.3593054,13.2079677 C13.1411835,12.2817562 12.8643833,11.3566417 12.5265689,10.5009123 C12.025445,9.23149813 11.4360578,8.23901986 10.7970821,7.64578887 C10.1437706,7.05601512 9.7362565,6.51080179 9.54567187,6 L5.47612128,6 C5.28640651,6.50326173 4.89104162,7.04551808 4.25210491,7.64618061 C3.59910584,8.23497962 3.00410798,9.2379221 2.49985675,10.5330728 C2.16959644,11.3813343 1.89885145,12.2984189 1.68539187,13.2166009 C1.61053508,13.5385923 1.54834325,13.8370909 1.49827507,14.1038874 C1.47856239,14.2089296 1.46372418,14.2926686 1.45358265,14.3526764 L1.45344939,15.6059646 L1.5786454,23.0384786 L1.63449493,26.9842267 C1.96222985,27.2851078 2.27046105,27.6812607 2.48799357,28.1773938 C2.9971985,29.3387533 2.787974,30.6581507 1.76268854,31.9306289 C1.48074807,32.3179425 1.30495682,32.6399318 1.22598644,32.9111442 C1.05314199,33.5047537 1.06523032,34.0978343 1.23930165,34.6745746 C1.28877733,34.8849481 1.35886071,35.0888089 1.44554292,35.2863074 C1.53969867,35.5008338 1.84585261,36.0472607 1.78262656,35.9231802 L2.10591289,36.5576262 L1.61211954,37.0706602 C1.09578868,37.6071099 1.11345676,38.2225627 1.48611884,39.0270427 L1.52560352,39.1257164 C1.57677765,39.2052171 1.60899604,39.250882 1.62355408,39.2699287 L2.03847811,39.8127847 L1.68355745,40.396639 C0.646494014,42.1026373 0.838517718,43.5000836 1.81868853,44.8379911 C1.95275674,45.0209907 2.09607951,45.1943336 2.25710713,45.3728011 C2.31069724,45.4321952 2.42373796,45.5528655 2.51582446,45.6510199 C2.56925671,45.6656061 2.64032803,45.6817917 2.72636282,45.6981865 C3.00803697,45.7518625 3.40764921,45.8004062 3.90831654,45.842298 C4.767687,45.9142033 5.84706329,45.9624268 7.2119248,46 L7.77511926,46 C9.00959013,46 10.1660793,45.9633313 11.0546143,45.888405 C11.5403438,45.8474455 11.9344381,45.7959289 12.2145743,45.7366871 C12.3117849,45.7161295 12.3899606,45.6956858 12.4454813,45.677562 C12.5342607,45.5828858 12.6664638,45.441285 12.7275968,45.3729657 Z M12.3867801,45.7400695 C12.4387431,45.6875508 12.4702754,45.6693519 12.4863924,45.6630566 C12.4745516,45.6676816 12.4608888,45.6725325 12.4454813,45.677562 C12.4222607,45.7023249 12.4020107,45.7238777 12.3867801,45.7400695 Z M13.8473046,47.1052441 C13.8416885,47.1116733 13.8359699,47.1180587 13.8301486,47.1244005 C13.8302689,47.1242582 13.8473046,47.1052441 13.8473046,47.1052441 Z M-0.299873396,36.2730408 C-0.33232443,36.2070984 -0.362033402,36.1443129 -0.38582861,36.0900974 C-0.519345448,35.7858899 -0.628743725,35.4676687 -0.690444084,35.1958835 C-0.958588553,34.3188324 -0.978762131,33.3290716 -0.694266949,32.3520137 C-0.540807866,31.8249805 -0.260679788,31.311882 0.175077167,30.7152446 C0.77384652,29.9710282 0.857985107,29.4404391 0.656322465,28.9805009 C0.524152357,28.6790565 0.277549502,28.4306772 0.0938875548,28.3105323 L-0.351052209,28.0194691 L-0.358577118,27.4878372 L-0.421112594,23.069474 L-0.546408764,15.622807 L-0.546408764,14.2719298 L-0.534749853,14.1196738 C-0.523268817,14.0451468 -0.501057795,13.9142919 -0.467410766,13.7349983 C-0.412241526,13.44102 -0.344243839,13.1146553 -0.26265747,12.7637171 C-0.0291366162,11.7592428 0.267731828,10.7536712 0.636130223,9.80745347 C1.24342811,8.24763121 1.98526279,6.99717712 2.89740033,6.17501181 C3.30120397,5.79529123 3.51706398,5.50709499 3.59517826,5.31564066 C3.61659022,5.35055718 3.5917045,5.2617822 3.57931451,5.18467385 C3.48889887,4.62197777 3.86123591,4 4.58368397,4 L10.4659373,4 C11.2723157,4 11.5986426,4.71205857 11.4462855,5.28424283 C11.5100881,5.5120172 11.7282082,5.79195974 12.1474785,6.17058117 C13.0545602,7.01253839 13.785706,8.24372628 14.3868596,9.76652932 C14.7637591,10.7212663 15.0673552,11.7359374 15.3060508,12.7495113 C15.3894484,13.103643 15.4589378,13.4329828 15.5153023,13.729648 C15.5496815,13.9105975 15.5723715,14.0426763 15.5841001,14.1179248 L15.5959298,14.2860828 L15.4013746,28.031335 L15.0199316,28.3262293 C14.9633148,28.3699998 14.8391006,28.4915569 14.7109624,28.6696206 C14.2651569,29.2891218 14.2258424,29.935166 14.8847775,30.7895844 C15.8747208,32.0624226 16.1426052,33.474079 15.8574809,34.8729621 C15.7486694,35.406816 15.5637451,35.9068177 15.3590591,36.3169144 C15.6860524,36.8535725 15.8463386,37.4284291 15.8463386,38.0350877 C15.8463386,38.7626602 15.6486043,39.4346664 15.3662021,39.8943582 C16.4629538,42.1207475 16.0966396,44.1780753 14.808684,45.9740791 C14.623441,46.2323932 14.4294967,46.4702857 14.2180227,46.7066187 C14.103055,46.8351011 13.8256952,47.1296701 13.8301486,47.1244005 C13.1753169,47.8377861 11.2212924,48 7.77511926,48 L7.18467812,47.9996287 C3.08185874,47.887799 1.7064717,47.7727176 1.15930323,47.1269902 C1.18544797,47.15521 0.886997943,46.8398271 0.772203317,46.7125998 C0.568536572,46.4868752 0.382945706,46.2624108 0.205325876,46.0199644 C-1.11405825,44.2190396 -1.47571857,42.149891 -0.322268188,39.8886834 C-0.283291018,39.8129557 -0.259837809,39.7685507 -0.235797978,39.7240726 C-0.170092452,39.6025055 -0.100004656,39.480393 -0.0254490312,39.3577469 L0.829054212,39.877193 L0.0345543462,40.4844573 C-0.0184709514,40.4150829 -0.0876275681,40.3170636 -0.159258684,40.1999175 C-0.196392098,40.1391892 -0.230808248,40.078402 -0.262187899,40.0168198 C-0.283890087,39.9742294 -0.303947748,39.9316972 -0.322268188,39.8886834 C-0.354090043,39.8089978 -0.361288165,39.7891091 -0.368112396,39.7690204 L0.578745561,39.4473684 L-0.328627721,39.8676942 C-0.908364592,38.5956782 -1.01590808,37.3805578 -0.299873396,36.2730408 Z" id="Shape"></path>
                    <path d="M10,1.01704306 C10,1.06922528 9.91180109,0.995972678 9.77966102,1.00350438 L4.22033898,1.00350438 C4.0333582,1.00350438 4,1.03035719 4,1.01704306 L4,1.99344348 L10,1.99344348 L10,1.01704306 Z M2,2.58802801 L2,1.01704306 C2,-0.181331681 3.01264664,-0.996495623 4.22033898,-0.996495623 L9.69689213,-0.993064392 C10.8678599,-1.09031779 12,-0.150031713 12,1.01704306 L12,2.58802801 C12,3.39186063 11.168629,4.06901241 10.3888512,3.99344348 L3.6111488,3.99344348 C2.83137105,4.06901241 2,3.39186063 2,2.58802801 Z" id="Shape"></path>
                    <polygon id="Shape" points="15 14 0 14 0 16 15 16"></polygon>
                    <polygon id="Shape" points="14 26 0 26 0 28 14 28"></polygon>
                    <polygon id="Shape" points="14 36 0 36 0 38 14 38"></polygon>
                    <polygon id="Shape" points="14 39 0 39 0 41 14 41"></polygon>
                </g>
            </g>
        </g>
    </g>
</svg>