<svg xmlns="http://www.w3.org/2000/svg" viewBox="0 0 40 40"><defs><style>.a{fill:#fff;}</style></defs><title>PICTOS_BORNE_</title><path class="a" d="M36.08,19.34H28.92V18.1a.5.5,0,0,0-.5-.5.49.49,0,0,0-.48.41l-.72-1.12c-1.34-2.07-3-3.17-4.79-3.29a10.88,10.88,0,0,0-1.86,0,.5.5,0,0,0-.44.55.51.51,0,0,0,.55.44,9.58,9.58,0,0,1,1.69,0c1.53.1,2.84,1,4,2.83.68,1.05,1,1.62,1.22,1.92H10.47a3.86,3.86,0,0,1,3.2-.92c.32,0,.69,0,1.12,0a1.82,1.82,0,0,0,1.91-1.2,4.46,4.46,0,0,1,1-1.28.5.5,0,0,0-.67-.74,5.45,5.45,0,0,0-1.17,1.54c-.3.54-.41.69-1,.68-.42,0-.77,0-1.08,0a4.66,4.66,0,0,0-3.52.89V18.1a.5.5,0,0,0-1,0v1.24H3a.93.93,0,0,0-.93.93v2.38a.93.93,0,0,0,.93.93H9.2v1a.5.5,0,0,0,1,0v-1H27.92v1a.5.5,0,0,0,1,0v-1h7.17a.93.93,0,0,0,.93-.93V20.27A.93.93,0,0,0,36.08,19.34Zm-33,3.23V20.34h1l-.76,1.14a.5.5,0,0,0,.83.56l1.14-1.69h.47L5,21.48a.5.5,0,0,0,.83.56L7,20.34h.48L6.7,21.5a.5.5,0,0,0,.83.56l1.15-1.71H9.2v2.23Zm7.11,0V20.34H27.92v2.23Zm25.8,0H34.53l.72-1.16a.5.5,0,0,0-.85-.52l-1,1.69h-.51l.73-1.18a.5.5,0,0,0-.85-.52l-1,1.71h-.5l.73-1.18a.5.5,0,0,0-.85-.52l-1,1.71H28.92V20.34H36Z"/><circle class="a" cx="18.81" cy="14.67" r="0.39"/></svg>