<svg xmlns="http://www.w3.org/2000/svg" viewBox="0 0 40 40"><defs><style>.a{fill:#fff;}</style></defs><title>PICTOS_BORNE_</title><path class="a" d="M36.53,19.34H29.37V18.1a.5.5,0,0,0-.5-.5.49.49,0,0,0-.48.41l-.72-1.12c-1.34-2.07-3-3.17-4.79-3.29a10.88,10.88,0,0,0-1.86,0,.5.5,0,0,0-.44.55.51.51,0,0,0,.55.44,9.58,9.58,0,0,1,1.69,0c1.53.1,2.84,1,4,2.83.68,1.05,1,1.62,1.22,1.92H10.92a3.86,3.86,0,0,1,3.2-.92c.32,0,.69,0,1.12,0h.05a1.84,1.84,0,0,0,1.85-1.2,4.45,4.45,0,0,1,1-1.28.5.5,0,0,0-.67-.74,5.47,5.47,0,0,0-1.18,1.54c-.3.54-.42.69-1,.68-.42,0-.77,0-1.08,0a4.66,4.66,0,0,0-3.52.89V18.1a.5.5,0,1,0-1,0v1.24H3.48a.93.93,0,0,0-.93.93v2.38a.93.93,0,0,0,.93.93H9.66v1a.5.5,0,1,0,1,0v-1H28.37v1a.5.5,0,0,0,1,0v-1h7.17a.93.93,0,0,0,.93-.93V20.27A.93.93,0,0,0,36.53,19.34Zm-33,3.23V20.34H4.63L3.9,21.52a.38.38,0,0,0,.13.53.38.38,0,0,0,.2.06.38.38,0,0,0,.33-.18l1-1.58H6.3l-.72,1.18a.38.38,0,0,0,.13.53.38.38,0,0,0,.2.06.38.38,0,0,0,.33-.18l1-1.58H8l-.74,1.2a.38.38,0,0,0,.13.53.38.38,0,0,0,.2.06.38.38,0,0,0,.33-.18l1-1.6h.78v2.23Zm7.11,0V20.34H28.37v2.23Zm25.8,0H34.85l.75-1.22a.38.38,0,0,0-.65-.4l-1,1.63h-.65L34,21.39a.5.5,0,0,0-.85-.52l-1,1.71h-.5l.73-1.18a.5.5,0,0,0-.85-.52l-1,1.71H29.37V20.34h7.09Z"/><circle class="a" cx="19.27" cy="14.67" r="0.39"/><path class="a" d="M28.51,11.45A.65.65,0,0,1,28.7,11a.64.64,0,0,1,.47-.18h2.6V8.22a.73.73,0,0,1,.17-.5.67.67,0,0,1,.94,0,.73.73,0,0,1,.17.5v2.56H35.7a.65.65,0,0,1,.47.18.74.74,0,0,1,0,1,.64.64,0,0,1-.47.18H33v2.78a.73.73,0,0,1-.17.5.67.67,0,0,1-.94,0,.73.73,0,0,1-.17-.5V12.13h-2.6a.64.64,0,0,1-.47-.18A.65.65,0,0,1,28.51,11.45Z"/></svg>