<svg xmlns="http://www.w3.org/2000/svg" viewBox="0 0 40 40"><defs><style>.a{fill:#fff;}</style></defs><title>PICTOS_BORNE_</title><path class="a" d="M14.42,28.25a.49.49,0,0,1-.19,0,.5.5,0,0,1-.27-.65l1.92-4.76L15,12.67c0-.17-.21-3.8.91-5.66a8.26,8.26,0,0,1,3.44-3.6,17.43,17.43,0,0,1,5.1-1.7.5.5,0,0,1,.2,1,16.54,16.54,0,0,0-4.84,1.6,7.33,7.33,0,0,0-3,3.23c-1,1.59-.77,5-.77,5.07l.9,10.23a.51.51,0,0,1,0,.23l-2,4.88A.5.5,0,0,1,14.42,28.25Z"/><path class="a" d="M26.5,38a2.06,2.06,0,0,1-1.86-1.17l-5.06-9.65-5,9.6a2.06,2.06,0,0,1-3.76-1.66l1.56-3.83a.5.5,0,0,1,.93.38l-1.57,3.84a1.06,1.06,0,0,0,.54,1.4,1.06,1.06,0,0,0,1.39-.54v0h0l5.38-10.43a.5.5,0,0,1,.43-.3.47.47,0,0,1,.46.26l.15.27,5.38,10.26v0h0a1.06,1.06,0,0,0,1.91-.91v0L22.29,23.13a.5.5,0,0,1,0-.29l1.17-5.62a.5.5,0,0,1,.59-.39.5.5,0,0,1,.39.59l-1.14,5.48.56,1.37,4.53,10.85A2.06,2.06,0,0,1,26.5,38Z"/><path class="a" d="M25.3,23.22a.5.5,0,0,1-.35-.85L28.31,19l-3-3.72c-.13-.06-.49-.22-1.32-.51-1.17-.41-5.87-1.33-5.92-1.34a.5.5,0,1,1,.19-1c.2,0,4.83.94,6.06,1.37a9.94,9.94,0,0,1,1.57.63.49.49,0,0,1,.13.11l3.4,4.15a.5.5,0,0,1,0,.67l-3.68,3.66A.5.5,0,0,1,25.3,23.22Z"/><path class="a" d="M22.68,12a3,3,0,1,1,3-3A3,3,0,0,1,22.68,12Zm0-5a2,2,0,1,0,2,2A2,2,0,0,0,22.68,7Z"/><circle class="a" cx="13.72" cy="29.5" r="0.51"/></svg>