<svg xmlns="http://www.w3.org/2000/svg" viewBox="0 0 40 40"><defs><style>.a{fill:#fff;}</style></defs><title>PICTOS_BORNE_</title><path class="a" d="M17.57,38.38A1.74,1.74,0,0,1,15.88,37c-.2-.87-.44-2.74-.61-4.15a.5.5,0,0,1,.44-.55.49.49,0,0,1,.56.44c.23,2,.44,3.4.59,4a.74.74,0,0,0,.95.53.76.76,0,0,0,.5-.79c-.21-2.34-.59-8.17.29-12v0a.51.51,0,0,1,.25-.39l2.58-1.35,0,0,3.67-1.93.05,0c2.41-1.28,4.77-2.6,6-3.27a.83.83,0,0,0,.41-.93.8.8,0,0,0-1-.53c-2.21.81-10,4-10.13,4a.49.49,0,0,1-.39,0,.5.5,0,0,1-.27-.28L18.51,16.6a.5.5,0,0,1,.25-.63l2.75-1.28a.31.31,0,0,0-.16-.59l-3.28.36a.5.5,0,0,1-.52-.32L17,12.82a.5.5,0,0,1,.21-.61c1.61-1,3.13-2,4.34-2.86.69-.48,1.27-.89,1.7-1.16a.4.4,0,0,0-.38-.71c-2.18,1-5.82,2.63-7.4,3.36-.5.2-1,.45-1.67.74-.78.36-1.69.77-2.75,1.21a.5.5,0,0,0-.28.3.51.51,0,0,0,0,.41l.66,1.25.19.3,1.5,2.86,0,.08c.85,1.74,2.1,4.43,2.1,4.43a.5.5,0,0,1,0,.17l.45,5.93a.5.5,0,0,1-1,.08l-.45-5.84c-.21-.46-1.27-2.71-2-4.26l0-.05-1.53-2.9-.18-.28L10,14a1.51,1.51,0,0,1,.76-2.09c1-.43,1.93-.84,2.7-1.19s1.21-.55,1.7-.75c1.56-.72,5.2-2.37,7.39-3.36A1.4,1.4,0,0,1,23.83,9c-.42.26-1,.66-1.66,1.13-1.14.8-2.54,1.77-4,2.69l.22.57,2.91-.32a1.31,1.31,0,0,1,.69,2.49l-2.33,1.08L20.5,19c1.73-.69,7.78-3.11,9.68-3.81a1.79,1.79,0,0,1,2.35,1.2,1.82,1.82,0,0,1-.88,2.07c-1.18.67-3.52,2-5.93,3.26l-.06,0-3.78,2-.05,0-2.31,1.21c-.81,3.66-.44,9.27-.24,11.54a1.77,1.77,0,0,1-1.18,1.83A1.73,1.73,0,0,1,17.57,38.38Z"/><path class="a" d="M12.68,8.92A3.31,3.31,0,1,1,16,5.61,3.31,3.31,0,0,1,12.68,8.92Zm0-5.61A2.31,2.31,0,1,0,15,5.61,2.31,2.31,0,0,0,12.68,3.31Z"/><circle class="a" cx="15.5" cy="30.62" r="0.61"/></svg>