<svg xmlns="http://www.w3.org/2000/svg" viewBox="0 0 40 40"><defs><style>.a{fill:#fff;}</style></defs><title>PICTOS_BORNE_</title><path class="a" d="M8.13,15.5A2.54,2.54,0,0,1,5.59,13V11a.52.52,0,0,0-1,0v2a3.59,3.59,0,0,0,3.58,3.58.52.52,0,0,0,0-1Z"/><path class="a" d="M25.52,10.49A.52.52,0,0,0,25,11v2a2.54,2.54,0,0,1-2.54,2.54h-4.1A2.54,2.54,0,0,1,15.83,13V11.83a.59.59,0,0,0-.54-.57.52.52,0,0,0-.52.52V13a2.54,2.54,0,0,1-2.54,2.54.52.52,0,1,0,0,1,3.58,3.58,0,0,0,3.05-1.72,3.58,3.58,0,0,0,3.08,1.76h4.1A3.59,3.59,0,0,0,26,13V11A.52.52,0,0,0,25.52,10.49Z"/><path class="a" d="M19.14,24.72a.52.52,0,1,0,0-1h-3V20.84a.52.52,0,1,0-1,0v2.84H11.72a.52.52,0,0,0,0,1h3.35v2.83H11.72a.52.52,0,0,0,0,1h3.35v3.08a.52.52,0,0,0,1,0V28.6h3a.52.52,0,1,0,0-1h-3V24.72Z"/><path class="a" d="M24.95,17.28a.52.52,0,0,0-.69.26,20.85,20.85,0,0,0-1.75,7.38c0,3.37.08,7.25.08,7.29a.52.52,0,0,0,.52.51h0a.52.52,0,0,0,.51-.53s-.08-3.91-.08-7.27A20.15,20.15,0,0,1,25.21,18,.52.52,0,0,0,24.95,17.28Z"/><path class="a" d="M6,17.28A.52.52,0,0,0,5.7,18a20.1,20.1,0,0,1,1.66,6.95c0,3.36-.08,7.23-.08,7.27a.52.52,0,0,0,.51.53h0a.52.52,0,0,0,.52-.51s.08-3.92.08-7.29a20.85,20.85,0,0,0-1.75-7.38A.52.52,0,0,0,6,17.28Z"/><circle class="a" cx="10.25" cy="16.05" r="0.54"/><path class="a" d="M30.18,10.86a2.7,2.7,0,0,1,.14-.81,2.49,2.49,0,0,1,.49-.85,2.7,2.7,0,0,1,.88-.67A3,3,0,0,1,33,8.26a3.07,3.07,0,0,1,1.17.22,2.78,2.78,0,0,1,.91.59,2.62,2.62,0,0,1,.59.91,3.13,3.13,0,0,1,.21,1.17,2.4,2.4,0,0,1-.23,1.08,3.44,3.44,0,0,1-.6.85,5.5,5.5,0,0,1-.83.71l-.92.62-.75.48a4.86,4.86,0,0,0-.66.52,2.63,2.63,0,0,0-.47.59,1.33,1.33,0,0,0-.18.68v.86H35.6a.5.5,0,0,1,.4.18.62.62,0,0,1,.15.42.53.53,0,0,1-.15.4.54.54,0,0,1-.4.15H30.18v-2a2.6,2.6,0,0,1,.19-1,2.82,2.82,0,0,1,.51-.79,4.49,4.49,0,0,1,.74-.65l.88-.59.87-.56a5.91,5.91,0,0,0,.74-.58,2.79,2.79,0,0,0,.51-.62,1.34,1.34,0,0,0,.19-.69,1.78,1.78,0,0,0-.47-1.34A1.79,1.79,0,0,0,33,9.39a1.73,1.73,0,0,0-.44.07,1.87,1.87,0,0,0-.54.25,2,2,0,0,0-.48.47,1.62,1.62,0,0,0-.29.71.67.67,0,0,1-.18.37.5.5,0,0,1-.38.16.51.51,0,0,1-.39-.16A.58.58,0,0,1,30.18,10.86Z"/></svg>