<svg xmlns="http://www.w3.org/2000/svg" viewBox="0 0 40 40"><defs><style>.a{fill:#fff;}</style></defs><title>PICTOS_BORNE_</title><path class="a" d="M35,17.85a2.9,2.9,0,1,1,2.9-2.9A2.9,2.9,0,0,1,35,17.85ZM35,13a1.9,1.9,0,1,0,1.9,1.9A1.9,1.9,0,0,0,35,13Z"/><path class="a" d="M39.19,26.93a1.43,1.43,0,0,0-1.34-1.43l-5.25-.78V19h0A3.3,3.3,0,0,0,31.2,16.4a2.6,2.6,0,0,0-2.44-.33l-11.11,4a.51.51,0,0,0-.17.1l-2.11,1.93L13,24.83,2.56,26.21a1.54,1.54,0,0,0,.24,3.05l.25,0,7.38,0,4.39-.37A.49.49,0,0,0,15,28.8c.07,0,6.91-3.46,7.76-3.81a.5.5,0,0,0-.38-.92c-.84.35-6.91,3.38-7.74,3.8l-4.26.36L3,28.25a.54.54,0,0,1-.23-1l10.6-1.4a.49.49,0,0,0,.37-.27l2.39-2.68,2-1.83,11-4a1.6,1.6,0,0,1,1.52.21,2.3,2.3,0,0,1,1,1.8h0v6.14a.5.5,0,0,0,.43.49l5.7.85c.47.07.47.34.47.43a.4.4,0,0,1-.4.4h-7a.83.83,0,0,1-.83-.83v0h0l-.1-4.29a.5.5,0,0,0-.66-.46l-3,1a.5.5,0,1,0,.32.95l2.33-.8.09,3.6v0a1.83,1.83,0,0,0,1.83,1.81h7.14A1.4,1.4,0,0,0,39.19,26.93Z"/><path class="a" d="M24.45,24.23a.42.42,0,0,1-.32-.13A.39.39,0,0,1,24,24a.47.47,0,0,1,0-.17.57.57,0,0,1,0-.18.44.44,0,0,1,.1-.14.31.31,0,0,1,.15-.1.45.45,0,0,1,.49.1.33.33,0,0,1,.1.14.6.6,0,0,1,0,.18.34.34,0,0,1,0,.17.31.31,0,0,1-.1.15.46.46,0,0,1-.14.1Z"/></svg>