<svg xmlns="http://www.w3.org/2000/svg" viewBox="0 0 40 40"><defs><style>.a{fill:#fff;}</style></defs><title>PICTOS_BORNE_</title><path class="a" d="M31.11,6.75a2.7,2.7,0,0,1,.14-.81,2.49,2.49,0,0,1,.49-.85,2.7,2.7,0,0,1,.88-.67A3,3,0,0,1,34,4.15a3.07,3.07,0,0,1,1.17.22A2.78,2.78,0,0,1,36,5a2.62,2.62,0,0,1,.59.91A3.13,3.13,0,0,1,36.84,7a2.4,2.4,0,0,1-.23,1.08A3.44,3.44,0,0,1,36,9a5.5,5.5,0,0,1-.83.71l-.92.62-.75.48a4.86,4.86,0,0,0-.66.52,2.63,2.63,0,0,0-.47.59,1.33,1.33,0,0,0-.18.68v.86h4.31a.5.5,0,0,1,.4.18.62.62,0,0,1,.15.42.53.53,0,0,1-.15.4.54.54,0,0,1-.4.15H31.11v-2a2.6,2.6,0,0,1,.19-1,2.82,2.82,0,0,1,.51-.79,4.49,4.49,0,0,1,.74-.65l.88-.59L34.29,9A5.91,5.91,0,0,0,35,8.39a2.79,2.79,0,0,0,.51-.62,1.34,1.34,0,0,0,.19-.69,1.78,1.78,0,0,0-.47-1.34A1.79,1.79,0,0,0,34,5.28a1.73,1.73,0,0,0-.44.07,1.87,1.87,0,0,0-.54.25,2,2,0,0,0-.48.47,1.62,1.62,0,0,0-.29.71.67.67,0,0,1-.18.37.5.5,0,0,1-.38.16.51.51,0,0,1-.39-.16A.58.58,0,0,1,31.11,6.75Z"/><path class="a" d="M34.33,23.55a3.25,3.25,0,1,1,3.25-3.25A3.25,3.25,0,0,1,34.33,23.55Zm0-5.49a2.25,2.25,0,1,0,2.25,2.25A2.25,2.25,0,0,0,34.33,18.06Z"/><path class="a" d="M36.36,30.61a1.56,1.56,0,0,0-1.46-1.56l-5.08-.89v-6.6h0A3.55,3.55,0,0,0,26.35,18H10.77L6.33,12.24A1.67,1.67,0,0,0,3.5,14l4,7.32a3.86,3.86,0,0,0,3,2.07l1.49,0h.83L13,27.67l-1.85.06a.5.5,0,0,0,0,1h0l2.35-.08a.5.5,0,0,0,.48-.51l-.2-7.05a2.25,2.25,0,0,1,.51-1.48A2.06,2.06,0,0,1,15.88,19L16,19H26.28a2.55,2.55,0,0,1,2.54,2.55h0v7a.5.5,0,0,0,.41.49l5.53,1c.4.06.6.25.6.57a.53.53,0,0,1-.53.53H27.78a1,1,0,0,1-1-1v0h0l-.12-4.91a.5.5,0,0,0-.49-.49l-8.54-.16h0a.5.5,0,0,0-.5.51s0,1.15,0,4a2.4,2.4,0,0,1-.62,1.79,1.45,1.45,0,0,1-1,.35L5.19,30.38a.69.69,0,0,1-.67-.7A.7.7,0,0,1,5.23,29h0l1.68-.07,0-1L5.23,28a1.69,1.69,0,0,0-.09,3.37l10.19.77h.15a2.48,2.48,0,0,0,1.61-.6,3.32,3.32,0,0,0,1-2.53c0-1.79,0-2.9,0-3.48l7.55.14.1,4.43v0a2,2,0,0,0,2,2h7.17A1.52,1.52,0,0,0,36.36,30.61ZM12.82,21.13l0,1.29c-.47,0-1.26,0-2.27,0a2.91,2.91,0,0,1-2.17-1.54l-4-7.37a.67.67,0,0,1,.2-.92.68.68,0,0,1,.95.23l4.62,6a.5.5,0,0,0,.4.19h3A3.31,3.31,0,0,0,12.82,21.13Z"/><circle class="a" cx="9.05" cy="28.38" r="0.51"/></svg>