<svg xmlns="http://www.w3.org/2000/svg" viewBox="0 0 40 40"><defs><style>.a{fill:#fff;}</style></defs><title>PICTOS_BORNE_</title><path class="a" d="M7.16,15.5A2.54,2.54,0,0,1,4.62,13V11a.52.52,0,0,0-1,0v2a3.59,3.59,0,0,0,3.58,3.58.52.52,0,0,0,0-1Z"/><path class="a" d="M24.55,10.49A.52.52,0,0,0,24,11v2a2.54,2.54,0,0,1-2.54,2.54h-4.1A2.54,2.54,0,0,1,14.86,13V11.83a.59.59,0,0,0-.54-.57.52.52,0,0,0-.52.52V13a2.54,2.54,0,0,1-2.54,2.54.52.52,0,1,0,0,1,3.58,3.58,0,0,0,3.05-1.72,3.58,3.58,0,0,0,3.08,1.76h4.1A3.59,3.59,0,0,0,25.07,13V11A.52.52,0,0,0,24.55,10.49Z"/><path class="a" d="M18.17,24.72a.52.52,0,1,0,0-1h-3V20.84a.52.52,0,1,0-1,0v2.84H10.75a.52.52,0,0,0,0,1H14.1v2.83H10.75a.52.52,0,0,0,0,1H14.1v3.08a.52.52,0,0,0,1,0V28.6h3a.52.52,0,1,0,0-1h-3V24.72Z"/><path class="a" d="M24,17.28a.52.52,0,0,0-.69.26,20.85,20.85,0,0,0-1.75,7.38c0,3.37.08,7.25.08,7.29a.52.52,0,0,0,.52.51h0a.52.52,0,0,0,.51-.53s-.08-3.91-.08-7.27A20.15,20.15,0,0,1,24.24,18,.52.52,0,0,0,24,17.28Z"/><path class="a" d="M5,17.28a.52.52,0,0,0-.26.69,20.1,20.1,0,0,1,1.66,6.95c0,3.36-.08,7.23-.08,7.27a.52.52,0,0,0,.51.53h0a.52.52,0,0,0,.52-.51s.08-3.92.08-7.29a20.85,20.85,0,0,0-1.75-7.38A.52.52,0,0,0,5,17.28Z"/><circle class="a" cx="9.28" cy="16.05" r="0.54"/><path class="a" d="M28.73,14.64a.65.65,0,0,1,.19-.49.64.64,0,0,1,.47-.18H32V11.41a.73.73,0,0,1,.17-.5.67.67,0,0,1,.94,0,.73.73,0,0,1,.17.5V14h2.66a.65.65,0,0,1,.47.18.74.74,0,0,1,0,1,.64.64,0,0,1-.47.18H33.26v2.78a.73.73,0,0,1-.17.5.67.67,0,0,1-.94,0,.73.73,0,0,1-.17-.5V15.32h-2.6a.64.64,0,0,1-.47-.18A.65.65,0,0,1,28.73,14.64Z"/></svg>