<svg width="100px" height="100px" viewBox="0 0 100 100">
  <path d="M50,100 C22.3857625,100 0,77.6142375 0,50 C0,22.3857625 22.3857625,0 50,0 C77.6142375,0 100,22.3857625 100,50 C100,77.6142375 77.6142375,100 50,100 Z M50,96 C75.4050985,96 96,75.4050985 96,50 C96,24.5949015 75.4050985,4 50,4 C24.5949015,4 4,24.5949015 4,50 C4,75.4050985 24.5949015,96 50,96 Z M16.2455722,58.8531309 C15.9552193,57.7874063 16.5837822,56.6880883 17.6495069,56.3977354 C18.7152315,56.1073825 19.8145495,56.7359455 20.1049024,57.8016701 C23.8080604,71.3939112 36.2043431,81 50.5,81 C64.9099142,81 77.3793414,71.2409316 80.9757944,57.4995229 C81.2554664,56.4309456 82.3484384,55.7914116 83.4170156,56.0710836 C84.4855929,56.3507557 85.1251269,57.4437277 84.8454549,58.5123049 C80.7911652,74.0030265 66.740033,85 50.5,85 C34.3888131,85 20.420065,74.1753812 16.2455722,58.8531309 Z" fill="#fff"></path>
</svg>
