<svg xmlns="http://www.w3.org/2000/svg" viewBox="0 0 40 40"><defs><style>.a{fill:#fff;}</style></defs><title>PICTOS_BORNE_</title><path class="a" d="M31,16.76a2.73,2.73,0,0,1,.15-.82,2.51,2.51,0,0,1,.49-.86,2.71,2.71,0,0,1,.89-.67,3,3,0,0,1,1.35-.27,3.08,3.08,0,0,1,1.17.22A2.78,2.78,0,0,1,36,15a2.65,2.65,0,0,1,.6.91A3.15,3.15,0,0,1,36.78,17a2.41,2.41,0,0,1-.23,1.08,3.44,3.44,0,0,1-.6.86,5.53,5.53,0,0,1-.83.71l-.92.62-.75.49a4.82,4.82,0,0,0-.66.52,2.63,2.63,0,0,0-.47.59,1.34,1.34,0,0,0-.18.69v.87h4.34a.5.5,0,0,1,.4.18.63.63,0,0,1,.15.42.54.54,0,0,1-.15.4.55.55,0,0,1-.4.15H31v-2a2.62,2.62,0,0,1,.19-1,2.84,2.84,0,0,1,.52-.8,4.5,4.5,0,0,1,.74-.65l.88-.59.87-.57a5.89,5.89,0,0,0,.74-.58,2.81,2.81,0,0,0,.51-.62,1.35,1.35,0,0,0,.19-.7,1.62,1.62,0,0,0-1.78-1.81,1.73,1.73,0,0,0-.44.07,1.9,1.9,0,0,0-.54.25,2,2,0,0,0-.49.47,1.64,1.64,0,0,0-.29.71.68.68,0,0,1-.18.37.55.55,0,0,1-.78,0A.58.58,0,0,1,31,16.76Z"/><path class="a" d="M29.33,4.45a.49.49,0,0,0-.55.44l-.68,6.43a1,1,0,0,1-1.07,1L20.87,13a.5.5,0,0,0-.44.44l-.83,7a.5.5,0,0,0,.16.43s.32.29,1.31,1.08a.5.5,0,0,0,.62-.78c-.55-.44-.89-.71-1.07-.87L21.38,14,27,13.32l.14,0a2,2,0,0,0,1.93-1.85L29.77,5A.5.5,0,0,0,29.33,4.45Z"/><path class="a" d="M25.35,24.07c-.27-.19-.44-.32-.9-.67a.5.5,0,0,0-.61.79c.47.36.65.49.92.69a1.71,1.71,0,0,1,.73,1.67l-1.38,8.22a.92.92,0,0,1-1,.85,1,1,0,0,1-.85-1.05l.09-5.85.07-1.47a.5.5,0,0,0-.25-.46L17.23,24a.8.8,0,0,0-.58,0L11.71,26.8a.5.5,0,0,0-.25.46l.17,7.35a.94.94,0,0,1-.85,1,1,1,0,0,1-1-.88l-1.38-8.2a1.71,1.71,0,0,1,.74-1.66c1.21-.87,4.83-3.77,5-3.9a.5.5,0,0,0,.18-.45l-.83-7a.5.5,0,0,0-.06-.18l0-.05a.49.49,0,0,0-.08-.09l-.06,0-.11-.06H13L13,13H10.55L4,12.61a.54.54,0,0,1-.57-.56A.57.57,0,0,1,4,11.47L19.43,11a.5.5,0,0,0,.48-.52A.51.51,0,0,0,19.4,10l-15.47.48a1.57,1.57,0,0,0,0,3.13H4l6.56.42h2l.74,6.33c-.81.65-3.71,3-4.73,3.69a2.7,2.7,0,0,0-1.13,2.65l1.37,8.15a1.94,1.94,0,0,0,1.93,1.76h.18a1.93,1.93,0,0,0,1.75-2.06l-.09-5.88-.06-1.17L16.94,25l4.47,2.55-.15,7A1.94,1.94,0,0,0,23,36.62h.18a1.93,1.93,0,0,0,1.92-1.72l1.37-8.17A2.71,2.71,0,0,0,25.35,24.07Z"/><path class="a" d="M17.67,8.77a3.18,3.18,0,1,0-3.18-3.18A3.19,3.19,0,0,0,17.67,8.77Zm0-5.36a2.18,2.18,0,1,1-2.18,2.18A2.18,2.18,0,0,1,17.67,3.4Z"/><circle class="a" cx="22.85" cy="22.9" r="0.5"/></svg>