<svg xmlns="http://www.w3.org/2000/svg" viewBox="0 0 40 40"><defs><style>.a{fill:#fff;}</style></defs><title>PICTOS_BORNE_</title><circle class="a" cx="15.87" cy="13.11" r="0.71"/><circle class="a" cx="17.07" cy="7.93" r="0.71"/><circle class="a" cx="27.77" cy="3.23" r="0.71"/><circle class="a" cx="35.65" cy="13.55" r="0.71"/><circle class="a" cx="33.55" cy="21.99" r="0.71"/><circle class="a" cx="28.3" cy="23.5" r="0.71"/><path class="a" d="M26.74,19.09l-4.53,3.68a17.59,17.59,0,0,0-1.87-2l6.51-7.61a.46.46,0,0,0-.7-.6l-6.5,7.59a17,17,0,0,0-2.21-1.59l3.36-7a.46.46,0,1,0-.83-.4l-3.34,7c-2.08-1.06-3.89-1.21-4.77-.24-1.35,1.5.17,4.93,3.54,8l.14.12a11,11,0,0,1-3.54.38.46.46,0,0,0-.08.92c.21,0,.46,0,.74,0a13.36,13.36,0,0,0,3.76-.6,13.75,13.75,0,0,0,3.67,2.13l.36.1-1.57.79a.47.47,0,0,0-.21,0s-4.42,1.83-7.82.83a.48.48,0,1,0-.27.92,9.11,9.11,0,0,0,2.58.35,13.23,13.23,0,0,0,1.7-.12L7.2,35.56,10.81,24a.46.46,0,0,0-.88-.28L6,36.32a.46.46,0,0,0,.44.6.47.47,0,0,0,.21,0L22,29.19h0a2.19,2.19,0,0,0,1.69-.65c.69-.76.65-2-.1-3.6a11.09,11.09,0,0,0-.84-1.42l4.57-3.72a.46.46,0,1,0-.58-.72Zm-4,6.25c.57,1.18.66,2.13.25,2.58a1.25,1.25,0,0,1-.88.33.46.46,0,0,0-.32,0,5.05,5.05,0,0,1-1.4-.31A14,14,0,0,1,16,25.15c-3.08-2.78-4.31-5.75-3.48-6.67a1.31,1.31,0,0,1,1-.34,6.35,6.35,0,0,1,2.67.8l-1,2a.46.46,0,0,0,.22.62.46.46,0,0,0,.2,0,.46.46,0,0,0,.42-.26L17,19.39a16.11,16.11,0,0,1,2,1.46L17.2,23a.46.46,0,0,0,.05.65.46.46,0,0,0,.3.11.46.46,0,0,0,.35-.16l1.84-2.14a16.59,16.59,0,0,1,1.76,1.9l-1.62,1.32a.46.46,0,0,0,.58.72L22,24.11A10.1,10.1,0,0,1,22.76,25.34Z"/><path class="a" d="M20.52,7.77h1.35V9.12a.46.46,0,0,0,.92,0V7.77h1.35a.46.46,0,0,0,0-.92H22.8V5.49a.46.46,0,0,0-.92,0V6.85H20.52a.46.46,0,1,0,0,.92Z"/><path class="a" d="M29.27,9.32v1.35a.46.46,0,1,0,.92,0V9.32h1.35a.46.46,0,0,0,0-.92H30.2V7a.46.46,0,1,0-.92,0V8.4H27.92a.46.46,0,0,0,0,.92Z"/><path class="a" d="M31.77,16.95H30.42V15.59a.46.46,0,1,0-.92,0v1.35H28.14a.46.46,0,1,0,0,.92H29.5v1.36a.46.46,0,0,0,.92,0V17.87h1.35a.46.46,0,0,0,0-.92Z"/></svg>