<svg xmlns="http://www.w3.org/2000/svg" viewBox="0 0 40 40"><defs><style>.a{fill:#fff;}</style></defs><title>PICTOS_BORNE_</title><path class="a" d="M7.24,25.32H13a.5.5,0,1,0,0-1H7.24a.5.5,0,0,0,0,1Z"/><path class="a" d="M15.73,28.78H9.92a.5.5,0,0,0,0,1h5.8a.5.5,0,1,0,0-1Z"/><path class="a" d="M14.54,32.64H8.73a.5.5,0,1,0,0,1h5.8a.5.5,0,0,0,0-1Z"/><path class="a" d="M36.17,30.19a12.71,12.71,0,0,0-1.69-2.28c-.28-.33-.61-.71-1-1.21a42.37,42.37,0,0,1-3.21-4.61c-2.41-3.89-3.72-9.94-3.73-10a.5.5,0,0,0-.26-.34,2.41,2.41,0,0,0-1.9,0,5.15,5.15,0,0,0-2.55,3.21A7.94,7.94,0,0,1,18.33,13c-1.24-1.29-.63-3.64-.62-3.67a.5.5,0,0,0-.09-.44.51.51,0,0,0-.4-.19c-.09,0-2,.07-4.27,2.24h0l-.06.06-.38.38-.18.19-.39.44-.16.18-.11.14-.44.55-.15.21-.32.46-.12.18-.3.48-.07.13q-.17.31-.3.59l0,0h0c-.19.41-.34.8-.5,1.2l-.22.56a.79.79,0,0,0,0,.35s0,0,0,.07a1.92,1.92,0,0,0,.12.43l0,.09a6.31,6.31,0,0,0,.7,1.17l0,.05a31.41,31.41,0,0,0,4,4.26l0,0,1,.85.44.38.34.29c2.12,1.8,4.52,3.65,6.9,5.29l1.12.75,1.38.89c.63.4,1.26.78,1.88,1.15l1.22.71a7.71,7.71,0,0,0,3.8,1.06,5,5,0,0,0,3.56-1.3A3.12,3.12,0,0,0,36,33a2.45,2.45,0,0,0,.5-1.56A2.63,2.63,0,0,0,36.17,30.19ZM24.71,12.66a1.56,1.56,0,0,1,.6-.12,1.39,1.39,0,0,1,.29,0c.07.29.18.78.35,1.41a6.34,6.34,0,0,1-3.08,1A3.9,3.9,0,0,1,24.71,12.66Zm-7.1,1c.63.66,2.83,2.25,4.53,2.25h0a7.74,7.74,0,0,0,4.08-1,41.2,41.2,0,0,0,1.58,4.49L24.4,20.7a.5.5,0,0,0,.17,1,.49.49,0,0,0,.17,0l3.48-1.26c.2.43.4.85.62,1.25l-3,1.16a.5.5,0,1,0,.36.93l3.16-1.21.05.09c.31.5.6,1,.89,1.4l-2.51.88a.5.5,0,0,0,.17,1,.49.49,0,0,0,.17,0l2.75-1c.66,1,1.26,1.79,1.82,2.47.42.5.75.89,1,1.22a12.22,12.22,0,0,1,1.47,1.94,1.24,1.24,0,0,1-.69.87c-1.22.65-3.43.18-5.92-1.24A63.19,63.19,0,0,1,14.17,19a10.14,10.14,0,0,0-.27-7.52,7.46,7.46,0,0,1,2.71-1.6A4.76,4.76,0,0,0,17.61,13.71Zm-4.47,4.15-.46-.52-.13-.15-.47-.56L12,16.47l-.24-.3-.21-.27,0,0c-.25-.32-.42-.55-.52-.7l0-.1.19-.34.11-.18.21-.33.14-.21.25-.35.15-.21.49-.61,0,0q.29-.35.57-.64a9.3,9.3,0,0,1,.27,5.95L13.29,18ZM30.75,33.43a7.23,7.23,0,0,1-1.87-.75l-.22-.13-1.49-.88-.7-.43-1-.63-.74-.48-1-.65-.39-.26-1.09-.77-.4-.28-1-.73-.52-.38-.91-.7L19,26l-.88-.7-.37-.3a41.27,41.27,0,0,1-7.3-7.19l-.08-.14a2.47,2.47,0,0,1-.12-.22.78.78,0,0,1-.08-.28c.13-.32.25-.59.37-.86l.11.14.27.34.21.26.33.4.25.3.45.52.26.3.84.92A64.21,64.21,0,0,0,28.09,31c3.88,2.21,6,1.74,6.89,1.26a2.67,2.67,0,0,0,.49-.34v0a1.65,1.65,0,0,1-.18.36l0,0a2.06,2.06,0,0,1-.22.27A4.62,4.62,0,0,1,30.75,33.43Z"/><path class="a" d="M18.59,28.78h-1.3a.5.5,0,0,0,0,1h1.3a.5.5,0,0,0,0-1Z"/><path class="a" d="M6,24.73a.5.5,0,0,0-.5-.5H4.08a.5.5,0,0,0,0,1H5.51A.5.5,0,0,0,6,24.73Z"/><path class="a" d="M6.8,32.64H5.71a.5.5,0,0,0,0,1H6.8a.5.5,0,0,0,0-1Z"/><path class="a" d="M17.77,19.59a.5.5,0,1,0,.63-.78l-.53-.43a.5.5,0,1,0-.63.78Z"/><path class="a" d="M19.61,21.41a.5.5,0,1,0,.7-.71l-.8-.8a.5.5,0,0,0-.7.71Z"/></svg>