<svg width="62px" height="12px" viewBox="0 0 62 12" version="1.1" xmlns="http://www.w3.org/2000/svg" xmlns:xlink="http://www.w3.org/1999/xlink">
  <path d="M3.41935484,1.90322581 L58.5806452,1.90322581 C59.0244518,1.90322581 59.6201019,2.00250083 60.2375362,2.31121797 C61.3211632,2.8530315 62,3.87128665 62,5.32258065 C62,5.76638725 61.900725,6.36203737 61.5920078,6.97947166 C61.0501943,8.06309872 60.0319392,8.74193548 58.5806452,8.74193548 L3.41935484,8.74193548 C1.96806084,8.74193548 0.949805692,8.06309872 0.407992164,6.97947166 C0.0992750205,6.36203737 0,5.76638725 0,5.32258065 C0,3.87128665 0.678836768,2.8530315 1.76246382,2.31121797 C2.37989811,2.00250083 2.97554823,1.90322581 3.41935484,1.90322581 Z M3.41935484,3.90322581 C3.25832273,3.90322581 2.94671479,3.95516046 2.65689101,4.10007235 C2.2284213,4.31430721 2,4.65693916 2,5.32258065 C2,5.48361275 2.05193466,5.79522069 2.19684655,6.08504447 C2.41108141,6.51351419 2.75371335,6.74193548 3.41935484,6.74193548 L58.5806452,6.74193548 C59.2462867,6.74193548 59.5889186,6.51351419 59.8031535,6.08504447 C59.9480653,5.79522069 60,5.48361275 60,5.32258065 C60,4.65693916 59.7715787,4.31430721 59.343109,4.10007235 C59.0532852,3.95516046 58.7416773,3.90322581 58.5806452,3.90322581 L3.41935484,3.90322581 Z" id="Shape" fill="#212B31" fill-rule="nonzero"></path>
  <path d="M5.60116147,7.68946664 L7.24632276,3.7217247 C7.45785611,3.21155602 7.21576435,2.62650092 6.70559567,2.41496756 C6.19542699,2.20343421 5.61037189,2.44552597 5.39883853,2.95569465 L3.75367724,6.92343659 C3.54214389,7.43360527 3.78423565,8.01866037 4.29440433,8.23019373 C4.80457301,8.44172708 5.38962811,8.19963532 5.60116147,7.68946664 Z" id="Shape" fill="#212B31" fill-rule="nonzero"></path>
  <path d="M9.47212921,7.68946664 L11.1172905,3.7217247 C11.3288239,3.21155602 11.0867321,2.62650092 10.5765634,2.41496756 C10.0663947,2.20343421 9.48133963,2.44552597 9.26980627,2.95569465 L7.62464498,6.92343659 C7.41311163,7.43360527 7.65520339,8.01866037 8.16537207,8.23019373 C8.67554076,8.44172708 9.26059585,8.19963532 9.47212921,7.68946664 Z" id="Shape" fill="#212B31" fill-rule="nonzero"></path>
  <path d="M13.343097,7.68946664 L14.9882582,3.7217247 C15.1997916,3.21155602 14.9576998,2.62650092 14.4475312,2.41496756 C13.9373625,2.20343421 13.3523074,2.44552597 13.140774,2.95569465 L11.4956127,6.92343659 C11.2840794,7.43360527 11.5261711,8.01866037 12.0363398,8.23019373 C12.5465085,8.44172708 13.1315636,8.19963532 13.343097,7.68946664 Z" id="Shape" fill="#212B31" fill-rule="nonzero"></path>
  <path d="M48.859226,7.68946664 L50.5043873,3.7217247 C50.7159206,3.21155602 50.4738289,2.62650092 49.9636602,2.41496756 C49.4534915,2.20343421 48.8684364,2.44552597 48.656903,2.95569465 L47.0117418,6.92343659 C46.8002084,7.43360527 47.0423002,8.01866037 47.5524688,8.23019373 C48.0626375,8.44172708 48.6476926,8.19963532 48.859226,7.68946664 Z" id="Shape" fill="#212B31" fill-rule="nonzero"></path>
  <path d="M52.7301937,7.68946664 L54.375355,3.7217247 C54.5868884,3.21155602 54.3447966,2.62650092 53.8346279,2.41496756 C53.3244592,2.20343421 52.7394041,2.44552597 52.5278708,2.95569465 L50.8827095,6.92343659 C50.6711761,7.43360527 50.9132679,8.01866037 51.4234366,8.23019373 C51.9336053,8.44172708 52.5186604,8.19963532 52.7301937,7.68946664 Z" id="Shape" fill="#212B31" fill-rule="nonzero"></path>
  <path d="M56.6011615,7.68946664 L58.2463228,3.7217247 C58.4578561,3.21155602 58.2157643,2.62650092 57.7055957,2.41496756 C57.195427,2.20343421 56.6103719,2.44552597 56.3988385,2.95569465 L54.7536772,6.92343659 C54.5421439,7.43360527 54.7842357,8.01866037 55.2944043,8.23019373 C55.804573,8.44172708 56.3896281,8.19963532 56.6011615,7.68946664 Z" id="Shape" fill="#212B31" fill-rule="nonzero"></path>
  <rect id="Rectangle-3" fill="#212B32" x="40" y="0" width="2" height="11.012036"></rect>
  <rect id="Rectangle-3-Copy" fill="#212B32" x="21" y="0" width="2" height="11.012036"></rect>
  <path d="M17.2140647,7.68946664 L18.859226,3.7217247 C19.0707593,3.21155602 18.8286676,2.62650092 18.3184989,2.41496756 C17.8083302,2.20343421 17.2232751,2.44552597 17.0117418,2.95569465 L15.3665805,6.92343659 C15.1550471,7.43360527 15.3971389,8.01866037 15.9073076,8.23019373 C16.4174762,8.44172708 17.0025313,8.19963532 17.2140647,7.68946664 Z" id="Shape" fill="#212B31" fill-rule="nonzero"></path>
</svg>
