<?xml version="1.0" encoding="UTF-8"?>
<svg width="34px" height="38px" viewBox="0 0 34 38" version="1.1" xmlns="http://www.w3.org/2000/svg" xmlns:xlink="http://www.w3.org/1999/xlink">
    <!-- Generator: Sketch 43.2 (39069) - http://www.bohemiancoding.com/sketch -->
    <title>play</title>
    <desc>Created with Sketch.</desc>
    <defs></defs>
    <g id="UX-UI" stroke="none" stroke-width="1" fill="none" fill-rule="evenodd">
        <g id="03-01-Fiche-cours-/-1-cours" transform="translate(-884.000000, -482.000000)" fill-rule="nonzero" fill="#FFFFFF">
            <g id="CTA---remplacer" transform="translate(854.000000, 451.000000)">
                <g id="icone-/-cta-/-play" transform="translate(30.000000, 31.000000)">
                    <path d="M3.55310311,0 C1.46266986,0 0,1.66378579 0,4.0491505 L0,33.9543261 C0,36.336123 1.46266986,38 3.55310311,38 C4.31291308,38 5.08887222,37.7755079 5.85941027,37.3354888 L31.7918433,22.3784862 C33.1955658,21.5715024 34,20.3404463 34,19.0007945 C34,17.6629266 33.1955658,16.4302462 31.7918433,15.6232452 L5.85941027,0.669714745 C5.08887222,0.226139223 4.31291308,0 3.55310311,0 Z M3.60822714,3.56635198 C3.68492144,3.57882788 3.84213334,3.61803948 4.07569715,3.75342209 L30.0116682,18.7069526 C30.2453461,18.840557 30.3577626,18.9544929 30.4094628,18.9776494 C30.3559365,19.0400004 30.2454032,19.1558285 30.0082443,19.2894329 L4.07923513,34.2464297 C3.86341829,34.3693535 3.71710565,34.4122184 3.63327832,34.4300346 C3.60297723,34.3480835 3.56725503,34.1983841 3.56725503,33.9543261 L3.56725503,4.0491505 C3.56725503,3.77658429 3.61193631,3.61980059 3.60822714,3.56635198 L3.60822714,3.56635198 Z" id="play"></path>
                </g>
            </g>
        </g>
    </g>
</svg>