<?xml version="1.0" encoding="UTF-8" standalone="no"?>
<svg width="50px" height="25px" viewBox="0 0 50 25" version="1.1" xmlns="http://www.w3.org/2000/svg" xmlns:xlink="http://www.w3.org/1999/xlink">
    <!-- Generator: Sketch 43.2 (39069) - http://www.bohemiancoding.com/sketch -->
    <title>icone / matériel noir / stepper@1x</title>
    <desc>Created with Sketch.</desc>
    <defs></defs>
    <g id="UX-UI" stroke="none" stroke-width="1" fill="none" fill-rule="evenodd">
        <g id="03-01-Fiche-cours-/-1-cours" transform="translate(-618.000000, -557.000000)" fill-rule="nonzero" fill="#000000">
            <g id="Matériel" transform="translate(355.000000, 548.000000)">
                <g id="stepper" transform="translate(263.000000, 9.000000)">
                    <g id="icone-/-matériel-noir-/-stepper">
                        <path d="M42.84296,0 L7.1570225,0 C6.427335,0 5.7913975,0.488125 5.61421,1.18375 L0.0482725,23.0575 C-0.202665,24.0440625 0.5563975,25 1.591085,25 L15.0645225,25 C15.6657725,25 16.2157725,24.6665625 16.48546,24.1384375 L18.1982725,20.7871875 C18.46796,20.25875 19.01796,19.9253125 19.6195225,19.9253125 L30.38046,19.9253125 C30.9820225,19.9253125 31.5320225,20.25875 31.80171,20.7871875 L33.51421,24.1384375 C33.78421,24.6665625 34.3338975,25 34.9351475,25 L48.4088975,25 C49.443585,25 50.2026475,24.0440625 49.95171,23.0575 L44.3857725,1.18375 C44.208585,0.488125 43.5726475,0 42.84296,0 L42.84296,0 Z M42.6270225,1.875 L48.0338975,23.125 L35.1020225,23.125 L33.4713975,19.93375 C32.8776475,18.771875 31.6932725,18.0503125 30.38046,18.0503125 L19.6195225,18.0503125 C18.3063975,18.0503125 17.1220225,18.771875 16.528585,19.93375 L14.89796,23.125 L1.9657725,23.125 L7.37296,1.875 L42.6270225,1.875 L42.6270225,1.875 Z M7.4313975,1.64625 L7.4326475,1.64625 L7.4313975,1.64625 Z M39.1246787,3.5430625 C39.8331162,3.5430625 40.4559287,4.003375 40.6528037,4.672125 L42.2774912,10.19525 C42.5715537,11.1949375 41.8084287,12.19275 40.7496787,12.19275 L9.17749125,12.19275 C8.14124125,12.19275 7.38155375,11.2336875 7.63561625,10.2461875 L9.05749125,4.72275 C9.23592875,4.0293125 9.87124125,3.5430625 10.5993663,3.5430625 L39.1246787,3.5430625 Z M38.9178037,5.4180625 L10.8146788,5.4180625 L9.55342875,10.31775 L40.3590537,10.31775 L38.9178037,5.4180625 Z M31.8914288,16.1523438 L18.1086163,16.1523438 C17.5904913,16.1523438 17.1711163,15.7326562 17.1711163,15.2148438 C17.1711163,14.6970313 17.5904913,14.2773438 18.1086163,14.2773438 L31.8914288,14.2773438 C32.4092413,14.2773438 32.8289288,14.6970313 32.8289288,15.2148438 C32.8289288,15.7326562 32.4092413,16.1523438 31.8914288,16.1523438 Z" id="Shape"></path>
                    </g>
                </g>
            </g>
        </g>
    </g>
</svg>