<?xml version="1.0" encoding="UTF-8"?>
<svg width="42px" height="30px" viewBox="0 0 42 30" version="1.1" xmlns="http://www.w3.org/2000/svg" xmlns:xlink="http://www.w3.org/1999/xlink">
    <!-- Generator: Sketch 43.2 (39069) - http://www.bohemiancoding.com/sketch -->
    <title>Shape</title>
    <desc>Created with Sketch.</desc>
    <defs></defs>
    <g id="UX-UI" stroke="none" stroke-width="1" fill="none" fill-rule="evenodd" opacity="0.40234375">
        <g id="14-05-pop-confirmation-/-lancement" transform="translate(-899.000000, -453.000000)" fill-rule="nonzero" fill="#000000">
            <g id="contenu" transform="translate(555.000000, 332.000000)">
                <g id="noun_668836" transform="translate(344.000000, 121.000000)">
                    <path d="M41.2934642,3.24 C40.2348817,1.21235294 38.2436969,0 35.9708066,0 L18.492823,0 C16.2986703,0 14.2007523,0.945882353 12.6924911,2.64882353 L1.87045395,16.9429412 C0.664894762,18.4694118 0,20.3858824 0,22.3376471 L0,23.9364706 C0,23.9594118 0,23.9823529 0.00174972306,24.0052941 C0.0979844913,27.3264706 2.80655579,30 6.12403071,30 L23.6212613,30 C23.736743,30 23.8469756,29.9770588 23.9502092,29.9347059 C26.1128669,29.6541176 28.0725568,28.4594118 29.3271082,26.6205882 L40.9277721,9.49764706 C42.2138185,7.60941176 42.3520466,5.26764706 41.2934642,3.24 Z M39.4842505,8.50058824 L27.8835867,25.6235294 C26.7690131,27.2594118 24.9283044,28.2352941 22.959866,28.2352941 L6.12403071,28.2352941 C3.71291233,28.2352941 1.74972306,26.2552941 1.74972306,23.8235294 C1.74972306,21.3917647 3.71291233,19.4117647 6.12403071,19.4135294 L21.8715382,19.4135294 C23.3185592,19.4135294 24.4961228,20.6011765 24.4961228,22.0605882 C24.4961228,23.52 23.3185592,24.7076471 21.8715382,24.7076471 L6.12403071,24.7076471 C5.64110714,24.7076471 5.24916918,24.3123529 5.24916918,23.8252941 C5.24916918,23.3382353 5.64110714,22.9429412 6.12403071,22.9429412 L21.8715382,22.9429412 C22.3544618,22.9429412 22.7463998,22.5476471 22.7463998,22.0605882 C22.7463998,21.5735294 22.3544618,21.1782353 21.8715382,21.1782353 L6.12403071,21.1782353 C4.67700974,21.1782353 3.49944612,22.3658824 3.49944612,23.8252941 C3.49944612,25.2847059 4.67700974,26.4723529 6.12403071,26.4723529 L21.8715382,26.4723529 C24.2826566,26.4723529 26.2458459,24.4923529 26.2458459,22.0605882 C26.2458459,19.6288235 24.2826566,17.6488235 21.8715382,17.6488235 L6.12403071,17.6488235 C4.91322235,17.6488235 3.78290125,18.0035294 2.83280163,18.6176471 C2.96053142,18.4147059 3.10050926,18.2188235 3.25098544,18.0282353 L14.0415275,3.77294118 C15.1753481,2.49705882 16.7973414,1.76470588 18.4945727,1.76470588 L35.9725564,1.76470588 C37.5840513,1.76470588 38.9943281,2.62411765 39.7449593,4.06235294 C40.4955905,5.50058824 40.397606,7.15941176 39.4842505,8.50058824 Z" id="Shape"></path>
                </g>
            </g>
        </g>
    </g>
</svg>