<?xml version="1.0" encoding="UTF-8"?>
<svg width="49px" height="48px" viewBox="0 0 49 48" version="1.1" xmlns="http://www.w3.org/2000/svg" xmlns:xlink="http://www.w3.org/1999/xlink">
    <!-- Generator: Sketch 43.2 (39069) - http://www.bohemiancoding.com/sketch -->
    <title>whistle</title>
    <desc>Created with Sketch.</desc>
    <defs></defs>
    <g id="UX-UI" stroke="none" stroke-width="1" fill="none" fill-rule="evenodd">
        <g id="03-03-FIche-cours-/-0-cours" transform="translate(-103.000000, -738.000000)" fill-rule="nonzero" fill="#FFFFFF">
            <g id="noun_988064" transform="translate(103.000000, 738.000000)">
                <path d="M48.8,10.1 L42.7,0.5 C42.4,0 41.8,-0.1 41.3,0.2 L22.3,12.3 C21.9,12.5 21.8,13 21.9,13.4 L23.1,17.9 L19.7,20 L16.1,17 C15.8,16.7 15.3,16.7 14.9,16.9 L6.7,22.1 C0.7,26.6 -0.9,35 3.2,41.4 C5.9,45.5 10.5,48 15.4,48 C18.1,48 20.8,47.2 23.1,45.8 C28.9,42.1 31.2,34.8 28.8,28.5 L48.5,11.4 C49,11.1 49.1,10.5 48.8,10.1 Z M27,27.4 C26.7,27.7 26.6,28.2 26.7,28.6 C29.2,34.2 27.2,40.8 22,44.1 C20,45.4 17.7,46 15.4,46 C11.1,46 7.2,43.9 4.9,40.3 C1.4,34.9 2.8,27.6 7.9,23.8 L15.4,19.1 L19,22.1 C19.3,22.4 19.8,22.4 20.2,22.2 L24.8,19.3 C25.2,19.1 25.3,18.6 25.2,18.2 L24,13.7 L41.5,2.4 L46.6,10.5 L27,27.4 Z M15.4,27.9 C14.3,27.9 13.3,28.2 12.4,28.8 C9.8,30.5 9,34 10.6,36.7 C11.7,38.4 13.4,39.3 15.4,39.3 C16.5,39.3 17.5,39 18.4,38.4 C19.7,37.6 20.6,36.3 20.9,34.8 C21.2,33.3 21,31.8 20.1,30.5 C19.2,28.9 17.4,27.9 15.4,27.9 Z M19,34.4 C18.8,35.4 18.2,36.2 17.4,36.7 C16.8,37.1 16.1,37.3 15.4,37.3 C14.1,37.3 13,36.7 12.3,35.6 C11.2,33.9 11.7,31.6 13.4,30.5 C14,30.1 14.7,29.9 15.4,29.9 C16.7,29.9 17.8,30.5 18.5,31.6 C19.1,32.5 19.2,33.4 19,34.4 Z M13.5,9.4 L11.5,6.5 C11.2,6 11.3,5.4 11.8,5.1 C12.3,4.8 12.9,4.9 13.2,5.4 L15.1,8.3 C15.4,8.8 15.3,9.4 14.8,9.7 C14.7,9.8 14.5,9.9 14.3,9.9 C14,9.9 13.7,9.7 13.5,9.4 Z M19.9,8.8 C19.3,8.7 19,8.2 19.1,7.6 L19.9,4.2 C20,3.6 20.6,3.3 21.1,3.4 C21.7,3.5 22,4.1 21.9,4.6 L21.1,8 C21,8.5 20.6,8.8 20.1,8.8 L19.9,8.8 Z M7.4,13.8 C6.9,13.7 6.5,13.2 6.6,12.6 C6.7,12 7.3,11.7 7.8,11.8 L11.2,12.6 C11.8,12.7 12.1,13.3 12,13.8 C11.9,14.3 11.5,14.6 11,14.6 L10.8,14.6 L7.4,13.8 Z" id="whistle"></path>
            </g>
        </g>
    </g>
</svg>