<?xml version="1.0" encoding="UTF-8"?>
<svg width="36px" height="25px" viewBox="0 0 36 25" version="1.1" xmlns="http://www.w3.org/2000/svg" xmlns:xlink="http://www.w3.org/1999/xlink">
    <!-- Generator: Sketch 43.2 (39069) - http://www.bohemiancoding.com/sketch -->
    <title>Shape</title>
    <desc>Created with Sketch.</desc>
    <defs></defs>
    <g id="UX-UI" stroke="none" stroke-width="1" fill="none" fill-rule="evenodd">
        <g id="12-01-Filtres-durée" transform="translate(-514.000000, -30.000000)" fill-rule="nonzero" fill="#000000">
            <g id="tuto" transform="translate(325.000000, 24.000000)">
                <g id="icone-/-flèche-aide" transform="translate(206.506097, 20.506097) rotate(-315.000000) translate(-206.506097, -20.506097) translate(196.506097, 1.506097)">
                    <path d="M18.3496347,1.62389862 C15.5831325,0.728446511 12.7889359,0.20519029 9.89025591,0.00335689636 C8.63645512,-0.0839224091 8.31167539,1.66795788 9.27762232,2.26464621 C10.3535076,2.92889208 11.4604442,3.4349442 12.6059851,3.80504203 C7.27775131,6.56357161 3.28472309,11.4507931 1.43843009,17.2821417 C-0.446467216,23.2347582 -1.19253743,33.6260309 4.71979629,37.663538 C5.28543332,38.0500007 5.77554019,37.2397298 5.40124625,36.7806742 C1.28695014,31.7319021 1.72124861,23.2817547 3.78867716,17.4730652 C5.6433624,12.2619032 9.37035658,7.95542477 14.2932451,5.64126434 C13.8132089,6.37726386 13.3713574,7.13844011 12.9811182,7.9323461 C12.3147743,9.28769301 14.2395348,10.4521164 15.0254681,9.12740121 C16.1835974,7.17578559 17.3706798,5.36264194 18.8871578,3.66069548 C19.5081836,2.96330026 19.249283,1.91552899 18.3496347,1.62389862 Z" id="Shape"></path>
                </g>
            </g>
        </g>
    </g>
</svg>