<?xml version="1.0" encoding="UTF-8"?>
<svg width="13px" height="22px" viewBox="0 0 13 22" version="1.1" xmlns="http://www.w3.org/2000/svg" xmlns:xlink="http://www.w3.org/1999/xlink">
    <!-- Generator: Sketch 43.2 (39069) - http://www.bohemiancoding.com/sketch -->
    <title></title>
    <desc>Created with Sketch.</desc>
    <defs></defs>
    <g id="UX-UI" stroke="none" stroke-width="1" fill="none" fill-rule="evenodd">
        <g id="04-01-Mire-avant-cours" transform="translate(-122.000000, -252.000000)" fill="#FFFFFF">
            <g id="bt---back" transform="translate(80.000000, 224.000000)">
                <g id="Group-5" transform="translate(42.000000, 28.000000)">
                    <path d="M8.01562594,10.5125009 L0.187500937,2.35625087 C-0.0625003125,2.10624962 -0.0625003125,1.85625212 0.187500937,1.60625087 L1.59375094,0.200000871 C1.87500234,-0.0500003789 2.12499984,-0.0656252226 2.34375094,0.153125871 L11.9062509,10.1375009 C12.0000014,10.2312513 12.0468759,10.3562501 12.0468759,10.5125009 C12.0468759,10.6687517 12.0000014,10.7937504 11.9062509,10.8875009 L2.34375094,20.8718759 C2.09374969,21.1218771 1.84375219,21.1218771 1.59375094,20.8718759 L0.187500937,19.4187509 C-0.0625003125,19.1687496 -0.0625003125,18.9187521 0.187500937,18.6687509 L8.01562594,10.5125009 Z" id="" transform="translate(6.023438, 10.529688) rotate(-180.000000) translate(-6.023438, -10.529688) "></path>
                </g>
            </g>
        </g>
    </g>
</svg>