<svg xmlns="http://www.w3.org/2000/svg" viewBox="0 0 40 40"><defs><style>.a{fill:#fff;}</style></defs><title>PICTOS_BORNE_</title><path class="a" d="M19.9,30.88H12.84A5.49,5.49,0,0,1,7.36,25.4a.5.5,0,0,0-1,0,6.48,6.48,0,0,0,3,5.44H4.63a.93.93,0,0,1,0-1.86.92.92,0,0,1,.59.21.5.5,0,0,0,.63-.77,1.93,1.93,0,1,0-1.23,3.42H12.1a6.5,6.5,0,0,0,.74,0H19.9a.5.5,0,0,0,0-1Z"/><path class="a" d="M9.2,12.48h2.19a1,1,0,0,1,.95.95v8.91a3.13,3.13,0,1,0,1,0v-8.9a2,2,0,0,0-1.95-1.95H9.2a.95.95,0,0,1,0-1.9h6.75a.5.5,0,0,0,0-1H9.2a1.95,1.95,0,0,0,0,3.9ZM15,25.4a2.11,2.11,0,1,1-2.67-2v2.17a.5.5,0,0,0,1,0v-2.2A2.11,2.11,0,0,1,15,25.4Z"/><path class="a" d="M37.19,7.47A5.24,5.24,0,0,0,32.72,5a2.29,2.29,0,0,0-2.29,2.29,1.29,1.29,0,0,1-1.29,1.29h-.52a1.29,1.29,0,0,1-1.29-1.29V5.5a.5.5,0,0,0-1,0V7.29a2.29,2.29,0,0,0,2.29,2.29h.52a2.29,2.29,0,0,0,2.29-2.29A1.29,1.29,0,0,1,32.72,6a4.27,4.27,0,0,1,3.85,6.12l-5.94,12.4-10.76-.16a.52.52,0,0,0-.51.49.5.5,0,0,0,.49.51l10.87.16a2.79,2.79,0,0,1-1.1,5.36H23.56a.5.5,0,0,0,0,1h6.08a3.79,3.79,0,0,0,2-7l5.89-12.29A5.25,5.25,0,0,0,37.19,7.47Z"/><circle class="a" cx="17.71" cy="24.8" r="0.56"/></svg>