<svg xmlns="http://www.w3.org/2000/svg" viewBox="0 0 40 40"><defs><style>.a{fill:#fff;}</style></defs><title>PICTOS_BORNE_</title><path class="a" d="M32.49,4.37a.49.49,0,0,0-.55.44l-.69,6.57a1.09,1.09,0,0,1-1.1,1l-6.29.76a.5.5,0,0,0-.44.44l-.84,7.2a.5.5,0,0,0,.16.43s.33.3,1.34,1.1a.5.5,0,1,0,.62-.78c-.57-.45-.91-.73-1.1-.89l.77-6.54,5.77-.69.15,0a2.08,2.08,0,0,0,2-1.88l.69-6.59A.5.5,0,0,0,32.49,4.37Z"/><path class="a" d="M28.43,24.41c-.28-.2-.45-.33-.92-.69a.5.5,0,1,0-.61.79c.48.37.66.5.94.71a1.76,1.76,0,0,1,.75,1.72l-1.41,8.4a1,1,0,1,1-1.92-.21l.09-6,.07-1.5a.5.5,0,0,0-.25-.46l-5-2.88a.8.8,0,0,0-.58,0l-5,2.88a.5.5,0,0,0-.25.46l.17,7.51a1,1,0,1,1-1.93.14l-1.41-8.38a1.76,1.76,0,0,1,.75-1.7c1.23-.89,4.93-3.85,5.09-4a.5.5,0,0,0,.18-.45l-.84-7.2a.5.5,0,0,0-.06-.18l-.06-.07-.06-.07-.07,0-.1-.05h-.07l-.09,0H13.32L6.6,12.7A.62.62,0,0,1,6,12.13a.59.59,0,0,1,.57-.6L22.39,11a.5.5,0,0,0,.48-.52.53.53,0,0,0-.52-.48l-15.8.49a1.59,1.59,0,0,0,0,3.18h0l6.7.43h2l.76,6.48c-.83.66-3.79,3-4.83,3.77a2.75,2.75,0,0,0-1.15,2.7l1.4,8.32a2,2,0,0,0,2,1.79h.18a2,2,0,0,0,1.78-2.1l-.09-6-.06-1.2,4.57-2.61,4.57,2.61-.15,7.16A2,2,0,0,0,26,37.2h.18a2,2,0,0,0,2-1.75l1.4-8.34A2.75,2.75,0,0,0,28.43,24.41Z"/><path class="a" d="M19.93,8.76a3.24,3.24,0,1,0-3.24-3.24A3.24,3.24,0,0,0,19.93,8.76Zm0-5.48a2.24,2.24,0,1,1-2.24,2.24A2.24,2.24,0,0,1,19.93,3.28Z"/><circle class="a" cx="25.9" cy="23.09" r="0.51"/></svg>