<svg xmlns="http://www.w3.org/2000/svg" viewBox="0 0 40 40"><defs><style>.a{fill:#fff;}</style></defs><title>PICTOS_BORNE_</title><path class="a" d="M5,17.49l6.24,0h0a.5.5,0,0,0,0-1L5,16.49H5a.5.5,0,0,0,0,1Z"/><path class="a" d="M15.86,17.58h5.69a3.9,3.9,0,1,0-4-3.9.5.5,0,0,0,1,0,3,3,0,1,1,3,2.9H15.86a.5.5,0,0,0,0,1Z"/><path class="a" d="M31.3,12.37a4,4,0,0,0-4,3.9.5.5,0,0,0,1,0,3,3,0,1,1,3,2.9H4.88a.5.5,0,0,0,0,1H31.3a3.9,3.9,0,1,0,0-7.8Z"/><path class="a" d="M15.9,23.73h-11a.5.5,0,0,0,0,1h11a2.9,2.9,0,1,1-3,2.9.5.5,0,0,0-1,0,4,4,0,1,0,4-3.9Z"/><path class="a" d="M25.61,21.34H4.94a.5.5,0,0,0,0,1H25.61a2.9,2.9,0,1,1-3,2.9.5.5,0,0,0-1,0,4,4,0,1,0,4-3.9Z"/><ellipse class="a" cx="13.42" cy="17.05" rx="0.49" ry="0.48"/></svg>