<svg xmlns="http://www.w3.org/2000/svg" viewBox="0 0 40 40"><defs><style>.a{fill:#fff;}</style></defs><title>PICTOS_BORNE_</title><path class="a" d="M31.48,9.92a3,3,0,1,0-3-3A3,3,0,0,0,31.48,9.92Zm0-5a2,2,0,1,1-2,2A2,2,0,0,1,31.48,4.88Z"/><path class="a" d="M29.08,23l-.61-1.51a.51.51,0,0,0-.07-.12c0-.05-1-1.28-.15-4l1.05-4.89A1.92,1.92,0,0,0,29.2,11,3.5,3.5,0,0,0,27,9.33a.5.5,0,0,0-.33.94c2,.69,1.71,1.7,1.65,1.87l-1.07,4.92c-.86,2.92,0,4.49.29,4.83l5.15,12.36a1.06,1.06,0,0,1-1.91.92l0,0L25.41,24.88l-.15-.27a.48.48,0,0,0-.78-.1l-.14-.08s-2.21,4-2.87,5.28a1.56,1.56,0,0,1-1.44.87l-7.83-.27a.83.83,0,0,1-.88-.81.86.86,0,0,1,.85-.88L17.62,28,19,27.87a.5.5,0,0,0,.42-.31l1.71-4.19A.5.5,0,0,0,20.2,23L18.61,26.9l-6.52.72a1.85,1.85,0,0,0,.12,3.69l7.77.27h.1a2.57,2.57,0,0,0,2.28-1.4c.47-.87,1.71-3.16,2.4-4.42L29.9,35.6a2.06,2.06,0,0,0,3.72-1.75Z"/><path class="a" d="M11.08,10a.5.5,0,0,0-.5-.5H4.48a.5.5,0,0,0,0,1h6.1A.5.5,0,0,0,11.08,10Z"/><path class="a" d="M11,13.18a.5.5,0,0,0-.5-.5H6.13a.5.5,0,1,0,0,1h4.33A.5.5,0,0,0,11,13.18Z"/><path class="a" d="M10.88,16.7a.5.5,0,0,0-.5-.5h-2a.5.5,0,1,0,0,1h2A.5.5,0,0,0,10.88,16.7Z"/><path class="a" d="M15.29,15.59a2,2,0,0,0,.41,0L22,14.18a.5.5,0,0,0-.21-1l-6.3,1.39A.83.83,0,1,1,15.11,13l.07,0,6.52-1.36,1.54.54-1.85,7.06a.5.5,0,0,0,.36.61l.13,0a.5.5,0,0,0,.48-.37l2-7.5a.5.5,0,0,0-.32-.6L15.68,8.4a.83.83,0,0,1,.5-1.58h0l7.55,2.66a.5.5,0,0,0,.33-.94L16.5,5.86l-.09,0a1.83,1.83,0,0,0-1,3.52l4.47,1.58-5,1-.07,0a1.82,1.82,0,0,0,.45,3.59Z"/><circle class="a" cx="21.35" cy="21.18" r="0.47"/></svg>