<?xml version="1.0" encoding="UTF-8"?>
<svg width="42px" height="38px" viewBox="0 0 42 38" version="1.1" xmlns="http://www.w3.org/2000/svg" xmlns:xlink="http://www.w3.org/1999/xlink">
    <!-- Generator: Sketch 43.2 (39069) - http://www.bohemiancoding.com/sketch -->
    <title>hiit</title>
    <desc>Created with Sketch.</desc>
    <defs></defs>
    <g id="UX-UI" stroke="none" stroke-width="1" fill="none" fill-rule="evenodd">
        <g id="09-01-Filtres-catégories" transform="translate(-623.000000, -540.000000)" fill="#A7CD45">
            <g id="filtres-tuile" transform="translate(325.000000, 206.000000)">
                <g id="filtre-/-hiit" transform="translate(212.000000, 285.000000)">
                    <g id="hiit" transform="translate(86.000000, 49.000000)">
                        <path d="M20.126798,37.5263105 C20.6088259,38.0009886 21.3887806,38.0010403 21.870873,37.5264261 L34.2348156,25.3542715 C34.7179922,24.8785899 34.7192859,24.1060799 34.2377053,23.628822 C33.7561246,23.151564 32.9740345,23.1502862 32.4908579,23.6259677 L21.0007625,34.9412789 L9.52957233,23.6449983 C9.04646042,23.1692528 8.26437004,23.1704271 7.78272456,23.6476211 C7.30107915,24.1248152 7.30226798,24.8973255 7.78537989,25.3730711 C9.94263837,27.4974362 19.6432632,37.0501486 20.126798,37.5263105 Z M38.2899707,3.66704911 C34.124903,-0.446999061 27.7825189,-1.09718136 22.9286591,1.71567544 C22.0167108,2.24415802 20.9999934,3.09311213 20.9999934,3.09311213 C16.0296634,-1.21335365 8.45620453,-1.02317298 3.71001613,3.6648775 C0.345600825,6.98808074 -0.814398537,11.8356045 0.57523329,16.2438519 C0.778043894,16.8872161 1.47047196,17.2463692 2.12181467,17.0460429 C2.77315739,16.8457166 3.1367645,16.1617704 2.9339539,15.5184062 C1.8145645,11.967433 2.74821437,8.06580156 5.45686589,5.39032941 C9.4396407,1.45634116 15.8953906,1.4569269 19.8783795,5.39112656 L20.1276678,5.6373613 C20.6100471,6.11383167 21.3921384,6.11383167 21.8745176,5.6373613 L22.1216074,5.39329816 C26.1045963,1.45909851 32.5603462,1.45851277 36.543121,5.39250102 C39.2611426,8.07722845 40.1913749,11.9962646 39.0549454,15.5555259 C38.8497614,16.1981554 39.2108416,16.8834065 39.8614407,17.0860771 C40.5120396,17.2887476 41.2057887,16.9320904 41.4109726,16.2894609 C42.8217811,11.8708538 41.6660419,7.00176539 38.2899707,3.66704911 Z" id="Shape"></path>
                        <path d="M9.51493213,21.5322021 C10.0324984,21.5322021 10.4957759,21.2101939 10.6775056,20.7241375 L11.4406212,18.695655 L13.335329,23.2565035 C13.8048197,24.3866387 15.4480164,24.2300996 15.6969784,23.0315209 L17.4370534,14.6951564 L20.0847885,31.0715089 C20.296333,32.3799209 22.1286819,32.4952001 22.5015832,31.2235575 L24.9337117,22.9313461 L25.9281882,24.1781459 C26.5334689,24.9370014 27.7334899,24.7390775 28.0646123,23.8257777 L29.5645272,19.703684 L30.1328922,20.8438013 C30.3432142,21.2656988 30.7731446,21.5322021 31.2434389,21.5322021 L39.9348416,21.5322021 C40.6205744,21.5322021 41.1764706,20.9746494 41.1764706,20.2868734 C41.1764706,19.5990973 40.6205744,19.0415446 39.9348416,19.0415446 L32.0194188,19.0415446 L30.4915422,15.9939592 C30.0040482,15.0160659 28.5866445,15.0978117 28.2141208,16.1253047 L26.4883391,20.8934236 L25.384029,19.5089227 C24.7567741,18.7225178 23.5066262,18.9693166 23.2233037,19.9354836 L21.6600455,25.2548507 L18.8111391,7.63424477 C18.5907016,6.27082947 16.6508598,6.22740312 16.3699899,7.57959588 L14.0875675,18.5915463 L12.5234946,14.8265858 C12.0906736,13.7847201 10.6099335,13.8114709 10.2148021,14.8682943 L8.65380967,19.0415446 L2.06515837,19.0415446 C1.37942563,19.0415446 0.823529412,19.5990973 0.823529412,20.2868734 C0.823529412,20.9746494 1.37942563,21.5322021 2.06515837,21.5322021 L9.51493213,21.5322021 Z" id="Shape"></path>
                    </g>
                </g>
            </g>
        </g>
    </g>
</svg>