<?xml version="1.0" encoding="UTF-8"?>
<svg width="43px" height="49px" viewBox="0 0 43 49" version="1.1" xmlns="http://www.w3.org/2000/svg" xmlns:xlink="http://www.w3.org/1999/xlink">
    <!-- Generator: Sketch 43.2 (39069) - http://www.bohemiancoding.com/sketch -->
    <title>Shape</title>
    <desc>Created with Sketch.</desc>
    <defs></defs>
    <g id="UX-UI" stroke="none" stroke-width="1" fill="none" fill-rule="evenodd">
        <g id="04-02-Mire-cours" transform="translate(-876.000000, -501.000000)" fill-rule="nonzero" fill="#FFFFFF">
            <g id="Group-6" transform="translate(-473.000000, -222.000000)">
                <g id="son-musique" transform="translate(1292.000000, 656.000000)">
                    <g id="noun_970739" transform="translate(57.000000, 67.000000)">
                        <path d="M0,41.3636364 C0,45.5636364 3.49172932,49 7.7593985,49 C12.0270677,49 15.518797,45.5636364 15.518797,41.3636364 C15.518797,40.6 15.3894737,39.9 15.1954887,39.2636364 L15.1954887,9.16363636 L40.4135338,2.67272727 L40.4135338,23.4818182 C38.9909774,22.1454545 37.0511278,21.3818182 34.9172932,21.3818182 C30.4556391,21.3818182 26.8345865,24.9454545 26.8345865,29.3363636 C26.8345865,33.7272727 30.3909774,37.2272727 34.9172932,37.2272727 C39.443609,37.2272727 43,33.6636364 43,29.2727273 L43,28.7 L43,28.7 L43,2.22727273 C43,1.01818182 41.9654135,0 40.7368421,0 L40.6075188,0 L14.6781955,6.61818182 C13.5142857,6.68181818 12.6090226,7.63636364 12.6090226,8.84545455 L12.6090226,35.3818182 C11.3157895,34.3636364 9.56992481,33.7272727 7.7593985,33.7272727 C3.42706767,33.7272727 0,37.1636364 0,41.3636364 Z M34.9172932,34.6818182 C31.8781955,34.6818182 29.4210526,32.2636364 29.4210526,29.2727273 C29.4210526,26.2818182 31.8781955,23.8636364 34.9172932,23.8636364 C37.956391,23.8636364 40.4135338,26.2818182 40.4135338,29.2727273 C40.4135338,32.2636364 37.8917293,34.6818182 34.9172932,34.6818182 Z M7.7593985,36.2727273 C10.6045113,36.2727273 12.9323308,38.5636364 12.9323308,41.3636364 C12.9323308,44.1636364 10.6045113,46.4545455 7.7593985,46.4545455 C4.91428571,46.4545455 2.58646617,44.1636364 2.58646617,41.3636364 C2.58646617,38.5636364 4.91428571,36.2727273 7.7593985,36.2727273 Z" id="Shape"></path>
                    </g>
                </g>
            </g>
        </g>
    </g>
</svg>