<?xml version="1.0" encoding="UTF-8"?>
<svg width="29px" height="36px" viewBox="0 0 29 36" version="1.1" xmlns="http://www.w3.org/2000/svg" xmlns:xlink="http://www.w3.org/1999/xlink">
    <!-- Generator: Sketch 43.2 (39069) - http://www.bohemiancoding.com/sketch -->
    <title>pause</title>
    <desc>Created with Sketch.</desc>
    <defs></defs>
    <g id="UX-UI" stroke="none" stroke-width="1" fill="none" fill-rule="evenodd">
        <g id="04-02-Mire-cours" transform="translate(-419.000000, -551.000000)" fill-rule="nonzero" fill="#E00069">
            <g id="Group-6" transform="translate(-473.000000, -222.000000)">
                <g id="CTA-play-stop-Timer-" transform="translate(798.000000, 626.000000)">
                    <g id="icone-/-controle-/-pause" transform="translate(94.000000, 147.000000)">
                        <path d="M5.4,0.2 C8.3,0.2 10.8,2.6 10.8,5.6 L10.8,30.4 C10.8,33.4 8.4,35.8 5.4,35.8 C2.4,35.8 0,33.3 0,30.3 L0,5.6 C0,2.6 2.4,0.2 5.4,0.2 Z M22.7,0.2 C25.6,0.2 28,2.6 28.1,5.6 L28.1,30.3 C28.1,33.3 25.7,35.7 22.7,35.7 C19.7,35.7 17.3,33.3 17.3,30.3 L17.3,5.6 C17.3,2.6 19.7,0.2 22.7,0.2 Z" id="pause"></path>
                    </g>
                </g>
            </g>
        </g>
    </g>
</svg>