<?xml version="1.0" encoding="UTF-8"?>
<svg width="34px" height="38px" viewBox="0 0 34 38" version="1.1" xmlns="http://www.w3.org/2000/svg" xmlns:xlink="http://www.w3.org/1999/xlink">
    <!-- Generator: Sketch 43.2 (39069) - http://www.bohemiancoding.com/sketch -->
    <title>Shape</title>
    <desc>Created with Sketch.</desc>
    <defs></defs>
    <g id="UX-UI" stroke="none" stroke-width="1" fill="none" fill-rule="evenodd">
        <g id="02-02-Tous-les-cours-/-Filtrés-prof" transform="translate(-335.000000, -33.000000)" stroke-width="1.95000011" stroke="#F2F2F2" fill="#F2F2F2" fill-rule="nonzero">
            <g id="bt-/-réinitialiser-filtre" transform="translate(325.000000, 29.000000)">
                <g id="Group-10" transform="translate(26.500000, 23.000000) scale(-1, 1) translate(-26.500000, -23.000000) translate(14.000000, 9.000000)">
                    <g id="noun_592796">
                        <path d="M11.9754224,32 C20.8233487,32 28,24.8051584 28,15.9348057 C28,15.3927286 27.5576037,14.9492109 27.0168971,14.9492109 C26.4761905,14.9492109 26.0337942,15.3927286 26.0337942,15.9348057 C26.0337942,23.7210042 19.7419355,30.0288105 11.9754224,30.0288105 C4.20890937,30.0288105 -2.08294931,23.7210042 -2.08294931,15.9348057 C-2.08294931,8.14860721 4.20890937,1.84080086 11.9754224,1.84080086 C13.1059908,1.84080086 14.187404,1.98864007 15.2688172,2.23503875 L13.0568356,4.40334719 C12.6635945,4.79758509 12.6635945,5.38894193 13.0568356,5.78317983 C13.2534562,5.98029878 13.499232,6.07885825 13.7450077,6.07885825 C13.9907834,6.07885825 14.2365591,5.98029878 14.4331797,5.78317983 L19.0046083,1.29872375 L14.4823349,-3.6785297 C14.1382488,-4.0727676 13.499232,-4.12204734 13.1059908,-3.72780944 C12.7127496,-3.38285128 12.6635945,-2.7422147 13.0568356,-2.3479768 L15.4162826,0.263849268 C14.2857143,0.0174505822 13.1551459,-0.0811088921 12.0245776,-0.0811088921 C3.17665131,-0.0811088921 -4,7.11373273 -4,15.9840854 C-4,24.8544381 3.12749616,32 11.9754224,32 Z" id="Shape"></path>
                    </g>
                </g>
            </g>
        </g>
    </g>
</svg>