<?xml version="1.0" encoding="UTF-8"?>
<svg width="25px" height="28px" viewBox="0 0 25 28" version="1.1" xmlns="http://www.w3.org/2000/svg" xmlns:xlink="http://www.w3.org/1999/xlink">
    <!-- Generator: Sketch 43.2 (39069) - http://www.bohemiancoding.com/sketch -->
    <title>Shape</title>
    <desc>Created with Sketch.</desc>
    <defs></defs>
    <g id="Kit-UI" stroke="none" stroke-width="1" fill="none" fill-rule="evenodd">
        <g id="filtre" transform="translate(-202.000000, -981.000000)" fill-rule="nonzero" fill="#212B32">
            <g id="bt-/-réinitialiser-filtre" transform="translate(188.000000, 972.000000)">
                <g id="Group-10" transform="translate(26.500000, 23.000000) scale(-1, 1) translate(-26.500000, -23.000000) translate(14.000000, 9.000000)">
                    <g id="noun_592796">
                        <path d="M12.3106061,27.8486486 C19.1287879,27.8486486 24.6590909,22.3243243 24.6590909,15.5135135 C24.6590909,15.0972973 24.3181818,14.7567568 23.9015152,14.7567568 C23.4848485,14.7567568 23.1439394,15.0972973 23.1439394,15.5135135 C23.1439394,21.4918919 18.2954545,26.3351351 12.3106061,26.3351351 C6.32575758,26.3351351 1.47727273,21.4918919 1.47727273,15.5135135 C1.47727273,9.53513514 6.32575758,4.69189189 12.3106061,4.69189189 C13.1818182,4.69189189 14.0151515,4.80540541 14.8484848,4.99459459 L13.1439394,6.65945946 C12.8409091,6.96216216 12.8409091,7.41621622 13.1439394,7.71891892 C13.2954545,7.87027027 13.4848485,7.94594595 13.6742424,7.94594595 C13.8636364,7.94594595 14.0530303,7.87027027 14.2045455,7.71891892 L17.7272727,4.27567568 L14.2424242,0.454054054 C13.9772727,0.151351351 13.4848485,0.113513514 13.1818182,0.416216216 C12.8787879,0.681081081 12.8409091,1.17297297 13.1439394,1.47567568 L14.9621212,3.48108108 C14.0909091,3.29189189 13.219697,3.21621622 12.3484848,3.21621622 C5.53030303,3.21621622 0,8.74054054 0,15.5513514 C0,22.3621622 5.49242424,27.8486486 12.3106061,27.8486486 Z" id="Shape"></path>
                    </g>
                </g>
            </g>
        </g>
    </g>
</svg>