<?xml version="1.0" encoding="UTF-8" standalone="no"?>
<svg width="46px" height="37px" viewBox="0 0 46 37" version="1.1" xmlns="http://www.w3.org/2000/svg" xmlns:xlink="http://www.w3.org/1999/xlink">
    <!-- Generator: Sketch 43.2 (39069) - http://www.bohemiancoding.com/sketch -->
    <title>icone / matériel noir / tapis@1x</title>
    <desc>Created with Sketch.</desc>
    <defs></defs>
    <g id="UX-UI" stroke="none" stroke-width="1" fill="none" fill-rule="evenodd">
        <g id="03-01-Fiche-cours-/-1-cours" transform="translate(-355.000000, -551.000000)" fill-rule="nonzero" fill="#000000">
            <g id="Matériel" transform="translate(355.000000, 548.000000)">
                <g id="tapis" transform="translate(0.000000, 3.000000)">
                    <g id="icone-/-matériel-noir-/-tapis">
                        <path d="M45.4832568,10.947079 C44.8507478,9.97405328 43.704026,9.41565734 42.3371228,9.41565734 L25.7995764,9.41565734 C25.8823154,9.07673046 25.946592,8.72669121 25.963003,8.35373273 C26.0539476,6.34170159 25.3366482,4.38662128 23.9444446,2.84964341 C22.3915495,1.13625687 20.121355,0.100724099 17.7150856,0.00904715358 C13.2300838,-0.16319438 9.21758343,2.13775804 7.71939182,5.72982744 L0.99701769,21.8483012 C0.992914929,21.8594136 0.990863548,21.870526 0.986760787,21.8816383 C0.534773268,22.8657764 0.219544453,23.9332572 0.0868885095,25.0715793 C-0.278941026,28.205264 0.514943255,30.9896039 2.38306716,33.1259545 C4.59992577,35.6602665 8.08180239,37 12.4519268,37 L31.5981455,37 C34.1507467,37 36.9378891,35.1324295 37.941698,32.7474399 L45.63164,14.4884483 C46.1704693,13.2105273 46.1157658,11.9201048 45.4832568,10.947079 Z M9.60871333,6.54172402 C10.7581702,3.78516496 14.0547388,1.9530151 17.6385007,2.09053052 C19.501838,2.1613718 21.2496143,2.95243271 22.4346285,4.26021822 C23.4541646,5.38603889 23.979318,6.8056425 23.9143576,8.25858317 C23.8883735,8.83434217 23.6989627,9.38996002 23.4213425,10.0483672 L23.4213425,10.0483672 C23.4199749,10.0504507 23.4192911,10.0532288 23.4179235,10.0560069 L18.7571869,21.1218309 C18.4146063,20.2258971 17.9038126,19.3848306 17.2316435,18.6430808 C15.6787484,16.9296942 13.4092377,15.8941615 11.0036521,15.803179 C8.85243769,15.7226145 6.83661438,16.2692035 5.13054954,17.280428 L9.60871333,6.54172402 Z M43.7464212,13.6682175 L36.0564792,31.927209 C35.3740533,33.5468351 33.3329296,34.9157385 31.5981455,34.9157385 L12.4519268,34.9157385 C8.68490828,34.9157385 5.73297164,33.8183933 3.91681604,31.7417716 C2.44939513,30.0638057 1.82919441,27.8420288 2.12390942,25.3167457 C2.63812215,20.9086126 6.42155172,17.7061702 10.9263835,17.8853569 C12.7897208,17.9561982 14.5374971,18.7465646 15.7218274,20.0543501 C16.7420474,21.1794763 17.2672008,22.5997744 17.2022404,24.0534096 C17.0846279,26.6793984 14.6140819,28.9838235 11.9165165,28.9838235 C10.3143882,28.9838235 8.96321224,28.4337618 8.20830419,27.4746265 C7.65921799,26.7773261 7.47801271,25.9223691 7.68178318,25.0028216 C7.99837958,23.5797454 9.20937791,22.2323721 11.2128929,22.4164205 C12.3131167,22.5199043 13.0741789,23.2227609 13.0222106,24.0874412 C12.9476771,25.3341087 11.8201016,25.4243966 11.4481179,25.4237021 C10.8826207,25.4389816 10.4121707,25.8668073 10.3991786,26.4418718 C10.3861866,27.0169363 10.8347551,27.4940731 11.4009362,27.507269 C12.7917722,27.5183814 14.9204214,26.6891218 15.0688046,24.2145388 C15.1891523,22.215009 13.6123244,20.5509336 11.4016199,20.3425769 C8.18368763,20.034209 6.17743743,22.306686 5.68031954,24.5430478 C5.33842277,26.0800257 5.66664366,27.582972 6.60480838,28.7754668 C7.75084633,30.2318801 9.68666579,31.0673904 11.9158327,31.0673904 C14.8807614,31.0673904 17.5660186,29.1428691 18.6922265,26.5217419 C18.7147917,26.4828486 18.743511,26.4502061 18.7619734,26.4078402 L25.0405656,11.4999188 L42.3371228,11.4999188 C43.012027,11.4999188 43.5214531,11.7117481 43.7710378,12.0951244 C44.0206224,12.4785007 44.0124169,13.0375912 43.7464212,13.6682175 Z" id="Shape"></path>
                    </g>
                </g>
            </g>
        </g>
    </g>
</svg>