<?xml version="1.0" encoding="UTF-8"?>
<svg width="28px" height="24px" viewBox="0 0 28 24" version="1.1" xmlns="http://www.w3.org/2000/svg" xmlns:xlink="http://www.w3.org/1999/xlink">
    <!-- Generator: Sketch 43.2 (39069) - http://www.bohemiancoding.com/sketch -->
    <title>prof</title>
    <desc>Created with Sketch.</desc>
    <defs></defs>
    <g id="Symbols" stroke="none" stroke-width="1" fill="none" fill-rule="evenodd">
        <g id="icone-/-filtre-petit-/-prof-tous" fill-rule="nonzero" fill="#212B32">
            <g id="prof">
                <path d="M9.9555556,0 C7.21746049,0 4.97777783,2.33480369 4.97777783,5.18918779 C4.97777783,8.04356539 7.21746049,10.3783756 9.9555556,10.3783756 C12.6936507,10.3783756 14.9333334,8.04356539 14.9333334,5.18918779 C14.9333334,2.33480369 12.6936507,0 9.9555556,0 Z M20.5333333,0.648648473 C18.3106934,0.648648473 16.4888889,2.54783607 16.4888889,4.86486355 C16.4888889,7.18190076 18.3106934,9.08107863 20.5333333,9.08107863 C22.7559733,9.08107863 24.5777778,7.18190076 24.5777778,4.86486355 C24.5777778,2.54783607 22.7559733,0.648648473 20.5333333,0.648648473 Z M9.9555556,1.94594542 C11.6848294,1.94594542 13.0666667,3.38647044 13.0666667,5.18918779 C13.0666667,6.99191162 11.6848294,8.43243015 9.9555556,8.43243015 C8.22628182,8.43243015 6.84444449,6.99191162 6.84444449,5.18918779 C6.84444449,3.38647044 8.22628182,1.94594542 9.9555556,1.94594542 Z M20.5333333,2.59459389 C21.7471458,2.59459389 22.7111111,3.59950281 22.7111111,4.86486355 C22.7111111,6.13022105 21.7471458,7.13513321 20.5333333,7.13513321 C19.319524,7.13513321 18.3555556,6.13022105 18.3555556,4.86486355 C18.3555556,3.59950281 19.319524,2.59459389 20.5333333,2.59459389 Z M20.5333333,9.7297271 C17.9055676,9.7297271 15.5605769,10.4689269 14.1847223,11.9493114 C12.8977614,11.5616466 11.46894,11.3513548 9.9555556,11.3513548 C7.30838582,11.3513548 4.91089827,11.9961762 3.10138894,13.1047165 C1.29187955,14.2132891 0,15.87224 0,17.8378395 L0,23.0270273 C4.97777777e-05,23.5364434 0.444655555,23.9999351 0.933333331,24 L18.9777778,24 C19.4664556,23.9999351 19.9110614,23.5364434 19.9111111,23.0270273 L19.9111111,19.7837849 L27.0666667,19.7837849 C27.5553444,19.7837201 27.9999502,19.3202283 28,18.8108122 L28,14.5945971 C28,13.0360246 26.9812044,11.7565979 25.6180556,10.9560619 C24.2549067,10.1555648 22.4796071,9.7297271 20.5333333,9.7297271 Z M20.5333333,11.675679 C22.2065262,11.675679 23.6957933,12.0723275 24.6944445,12.6587706 C25.6930956,13.2452461 26.1333333,13.917246 26.1333333,14.5945971 L26.1333333,17.8378395 L19.9111111,17.8378395 C19.9111111,15.87224 18.6192316,14.2132891 16.8097222,13.1047165 C16.6200129,12.9885111 16.4189138,12.8761003 16.2166667,12.7702733 C17.2183574,12.1452356 18.7622431,11.675679 20.5333333,11.675679 Z M9.9555556,13.2973002 C12.3066969,13.2973002 14.4146427,13.887473 15.8666667,14.7770295 C17.3186907,15.666586 18.0444445,16.7689317 18.0444445,17.8378395 L18.0444445,22.0540546 L1.86666672,22.0540546 L1.86666672,17.8378395 C1.86666672,16.7689317 2.5924205,15.666586 4.0444445,14.7770295 C5.49646849,13.887473 7.60441427,13.2973002 9.9555556,13.2973002 L9.9555556,13.2973002 Z" id="Shape"></path>
            </g>
        </g>
    </g>
</svg>
