<?xml version="1.0" encoding="UTF-8"?>
<svg width="33px" height="33px" viewBox="0 0 33 33" version="1.1" xmlns="http://www.w3.org/2000/svg" xmlns:xlink="http://www.w3.org/1999/xlink">
    <!-- Generator: Sketch 43.2 (39069) - http://www.bohemiancoding.com/sketch -->
    <title>Group 2</title>
    <desc>Created with Sketch.</desc>
    <defs></defs>
    <g id="Symbols" stroke="none" stroke-width="1" fill="none" fill-rule="evenodd">
        <g id="icone-/-filtre-petit-/-durée-20-min-vert" transform="translate(1.000000, 2.000000)">
            <g transform="translate(-1.000000, -2.000000)" id="Group-2">
                <g>
                    <path d="M16,33 C7.163444,33 0,25.836556 0,17 C0,8.163444 7.163444,1 16,1 C24.836556,1 32,8.163444 32,17 C32,25.836556 24.836556,33 16,33 Z M16,31 C23.7319865,31 30,24.7319865 30,17 C30,9.2680135 23.7319865,3 16,3 C8.2680135,3 2,9.2680135 2,17 C2,24.7319865 8.2680135,31 16,31 Z" id="Oval-2" fill-opacity="0.195906929" fill="#212B31" fill-rule="nonzero"></path>
                    <path d="M16,10 L16,18" id="Line" stroke="#A7CD45" stroke-width="2" stroke-linecap="round" stroke-linejoin="round"></path>
                    <path d="M22,18 L16,18" id="Line" stroke="#A7CD45" stroke-width="2" stroke-linecap="round" stroke-linejoin="round"></path>
                    <path d="M28.6036823,25.1363998 C30.1198195,22.7926595 31,19.9991183 31,17" id="Oval-2" stroke="#A7CD45" stroke-width="4" stroke-linecap="round" stroke-linejoin="round"></path>
                    <path d="M33,17 C33,7.61115925 25.3888407,2.22044605e-15 16,0 C14.8954305,-4.4408921e-16 14,0.8954305 14,2 C14,3.1045695 14.8954305,4 16,4 C23.1797017,4 29,9.82029825 29,17 C29,18.1045695 29.8954305,19 31,19 C32.1045695,19 33,18.1045695 33,17 Z" id="Oval-2" fill="#A7CD45" fill-rule="nonzero"></path>
                </g>
            </g>
        </g>
    </g>
</svg>