<?xml version="1.0" encoding="UTF-8"?>
<svg width="34px" height="34px" viewBox="0 0 34 34" version="1.1" xmlns="http://www.w3.org/2000/svg" xmlns:xlink="http://www.w3.org/1999/xlink">
    <!-- Generator: Sketch 43.2 (39069) - http://www.bohemiancoding.com/sketch -->
    <title>Group 2</title>
    <desc>Created with Sketch.</desc>
    <defs></defs>
    <g id="Symbols" stroke="none" stroke-width="1" fill="none" fill-rule="evenodd">
        <g id="icone-/-filtre-petit-/-durée-30-min-vert" transform="translate(2.000000, 2.000000)" fill-rule="nonzero">
            <g transform="translate(-2.000000, -2.000000)" id="Group-2">
                <g>
                    <path d="M17,33 C8.163444,33 1,25.836556 1,17 C1,8.163444 8.163444,1 17,1 C25.836556,1 33,8.163444 33,17 C33,25.836556 25.836556,33 17,33 Z M17,31 C24.7319865,31 31,24.7319865 31,17 C31,9.2680135 24.7319865,3 17,3 C9.2680135,3 3,9.2680135 3,17 C3,24.7319865 9.2680135,31 17,31 Z" id="Oval-2" class="time-line" fill-opacity="0.195906929" fill="#212B31"></path>
                    <path d="M16,10 L16,18 C16,18.5522847 16.4477153,19 17,19 C17.5522847,19 18,18.5522847 18,18 L18,10 C18,9.44771525 17.5522847,9 17,9 C16.4477153,9 16,9.44771525 16,10 Z" id="Line" fill="#A7CD45"></path>
                    <path d="M23,17 L17,17 C16.4477153,17 16,17.4477153 16,18 C16,18.5522847 16.4477153,19 17,19 L23,19 C23.5522847,19 24,18.5522847 24,18 C24,17.4477153 23.5522847,17 23,17 Z" id="Line" fill="#A7CD45"></path>
                    <path d="M17,34 C26.3888407,34 34,26.3888407 34,17 C34,15.8954305 33.1045695,15 32,15 C30.8954305,15 30,15.8954305 30,17 C30,24.1797017 24.1797017,30 17,30 C15.8954305,30 15,30.8954305 15,32 C15,33.1045695 15.8954305,34 17,34 Z" id="Oval-2" fill="#A7CD45"></path>
                    <path d="M0,17 C-5.99520433e-15,26.3888407 7.61115925,34 17,34 C18.1045695,34 19,33.1045695 19,32 C19,30.8954305 18.1045695,30 17,30 C9.82029825,30 4,24.1797017 4,17 C4,15.8954305 3.1045695,15 2,15 C0.8954305,15 6.66133815e-16,15.8954305 0,17 Z" id="Oval-2" fill="#A7CD45"></path>
                    <path d="M34,17 C34,7.61115925 26.3888407,2.22044605e-15 17,0 C15.8954305,-4.4408921e-16 15,0.8954305 15,2 C15,3.1045695 15.8954305,4 17,4 C24.1797017,4 30,9.82029825 30,17 C30,18.1045695 30.8954305,19 32,19 C33.1045695,19 34,18.1045695 34,17 Z" id="Oval-2" fill="#A7CD45"></path>
                </g>
            </g>
        </g>
    </g>
</svg>
