<?xml version="1.0" encoding="UTF-8"?>
<svg width="32px" height="33px" viewBox="0 0 32 33" version="1.1" xmlns="http://www.w3.org/2000/svg" xmlns:xlink="http://www.w3.org/1999/xlink">
    <!-- Generator: Sketch 43.2 (39069) - http://www.bohemiancoding.com/sketch -->
    <title>Group 2</title>
    <desc>Created with Sketch.</desc>
    <defs></defs>
    <g id="Symbols" stroke="none" stroke-width="1" fill="none" fill-rule="evenodd">
        <g id="icone-/-filtre-petit-/-durée-10-min-vert" transform="translate(1.000000, 2.000000)" fill-rule="nonzero">
            <g transform="translate(-1.000000, -2.000000)" id="Group-2">
                <g>
                    <path d="M16,33 C7.163444,33 0,25.836556 0,17 C0,8.163444 7.163444,1 16,1 C24.836556,1 32,8.163444 32,17 C32,25.836556 24.836556,33 16,33 Z M16,31 C23.7319865,31 30,24.7319865 30,17 C30,9.2680135 23.7319865,3 16,3 C8.2680135,3 2,9.2680135 2,17 C2,24.7319865 8.2680135,31 16,31 Z" id="Oval-2" fill-opacity="0.195906929" fill="#212B31"></path>
                    <path d="M15,10 L15,18 C15,18.5522847 15.4477153,19 16,19 C16.5522847,19 17,18.5522847 17,18 L17,10 C17,9.44771525 16.5522847,9 16,9 C15.4477153,9 15,9.44771525 15,10 Z" id="Line" fill="#A7CD45"></path>
                    <path d="M22,17 L16,17 C15.4477153,17 15,17.4477153 15,18 C15,18.5522847 15.4477153,19 16,19 L22,19 C22.5522847,19 23,18.5522847 23,18 C23,17.4477153 22.5522847,17 22,17 Z" id="Line" fill="#A7CD45"></path>
                    <path d="M31.304595,9.59149886 C28.4841471,3.77446281 22.5811154,1.77635684e-15 16,0 C14.8954305,-4.4408921e-16 14,0.8954305 14,2 C14,3.1045695 14.8954305,4 16,4 C21.0339034,4 25.5474203,6.88599189 27.7053548,11.3366263 C28.1872584,12.3305291 29.3836359,12.7455864 30.3775386,12.2636827 C31.3714414,11.7817791 31.7864986,10.5854016 31.304595,9.59149886 Z" id="Oval-2" fill="#A7CD45"></path>
                </g>
            </g>
        </g>
    </g>
</svg>