<svg width="100px" height="100px" viewBox="0 0 100 100">
  <path d="M50,100 C22.3857625,100 0,77.6142375 0,50 C0,22.3857625 22.3857625,0 50,0 C77.6142375,0 100,22.3857625 100,50 C100,77.6142375 77.6142375,100 50,100 Z M50,96 C75.4050985,96 96,75.4050985 96,50 C96,24.5949015 75.4050985,4 50,4 C24.5949015,4 4,24.5949015 4,50 C4,75.4050985 24.5949015,96 50,96 Z M85.9133366,47 C85.9707923,47.8258718 86,48.659525 86,49.5 C86,69.1061086 70.1061086,85 50.5,85 C30.8938914,85 15,69.1061086 15,49.5 C15,48.659525 15.0292077,47.8258718 15.0866634,47 L19.0977552,47 C19.0329928,47.8248121 19,48.6585531 19,49.5 C19,66.8969696 33.1030304,81 50.5,81 C67.8969696,81 82,66.8969696 82,49.5 C82,48.6585531 81.9670072,47.8248121 81.9022448,47 L85.9133366,47 Z M85.9165609,47 L15.0827153,47 C15.0827153,47 15,46.1045695 15,45 C15,43.8954305 15.7307536,43 16.6321839,43 L84.3678161,43 C85.2692464,43 86,43.8954305 86,45 C86,46.1045695 85.9165609,47 85.9165609,47 Z" fill="#fff"></path>
</svg>
