<svg width="36px" height="48px" viewBox="0 -3 35 52">
    <path d="M18.1927506,0 C12.6082239,0 8.07214699,5.05336654 8.07214699,11.2672949 C8.07214699,17.4787741 12.61046,22.53422 18.1927506,22.53422 C23.7726559,22.53422 28.3090339,17.4787741 28.3090339,11.2672949 C28.3090339,5.05566865 23.7726559,0 18.1927506,0 Z M18.0111018,24.9434211 C14.0306302,24.9419358 10.043152,25.616827 6.24090018,26.9724761 C2.55507681,28.3304272 -0.233832298,32.46421 0.0154968953,36.1873993 L0.674858935,45.8320755 C0.761024696,47.0507858 1.77675232,47.9933164 2.99999338,47.9933164 L32.9964227,47.9933164 L32.9964227,48 C34.2196638,48 35.2401618,47.0552415 35.324017,45.8366054 L35.983379,36.1989098 C36.2419509,32.4687399 33.4531908,28.3348087 29.7394157,26.9722533 C25.9651159,25.6223967 21.9915734,24.9446093 18.0111018,24.9431983 L18.0111018,24.9434211 Z" id="Shape" stroke="#7F7F7F" stroke-width="2" fill="#fff"></path>
</svg>
