<?xml version="1.0" encoding="UTF-8"?>
<svg width="58px" height="60px" viewBox="0 0 58 60" version="1.1" xmlns="http://www.w3.org/2000/svg" xmlns:xlink="http://www.w3.org/1999/xlink">
    <!-- Generator: Sketch 43.2 (39069) - http://www.bohemiancoding.com/sketch -->
    <title>yoga</title>
    <desc>Created with Sketch.</desc>
    <defs></defs>
    <g id="UX-UI" stroke="none" stroke-width="1" fill="none" fill-rule="evenodd">
        <g id="09-01-Filtres-catégories" transform="translate(-615.000000, -673.000000)" fill-rule="nonzero" fill="#A7CD45">
            <g id="filtres-tuile" transform="translate(325.000000, 206.000000)">
                <g id="filtre-/-yoga" transform="translate(212.000000, 429.000000)">
                    <g id="yoga" transform="translate(78.000000, 38.000000)">
                        <path d="M45.7981988,42.5106856 C43.6852585,42.0716678 42.2446174,40.7058346 41.0921045,39.3887813 C39.1712497,37.242472 37.5865445,34.7059248 36.1459034,31.6328002 C35.185476,29.5352707 33.6007708,28.0230983 31.4878305,27.1938425 C29.7110399,26.4621461 27.8862278,26.0231283 26.0614157,25.8280093 C28.5105056,24.9499737 30.383339,22.4134264 30.4313604,19.6329804 C30.4313604,15.6330405 27.6941423,12.6574754 24.0925396,12.6086957 C20.5389582,12.6086957 17.7056974,15.6818202 17.7056974,19.4378614 C17.7056974,22.3158669 19.6265522,24.8524142 22.1236634,25.7792296 C20.6350009,25.9255688 19.1943598,26.1694676 17.7056974,26.6572651 C14.8724365,27.5353007 12.9996031,29.1938124 11.8470902,31.8279192 C11.4629193,32.7059548 10.9346842,33.6327701 10.1663423,34.8034843 C8.29350887,37.6327101 5.94046174,40.7058346 1.90666667,41.63265 C0.994260636,41.827769 0.321961457,42.5106856 0.0818546078,43.3887212 C-0.158252242,44.3643163 0.129875978,45.4862507 0.946239266,46.3155065 C1.8586453,47.2911016 3.05917954,47.6813396 4.35575653,47.4862206 C7.47714558,47.0472028 10.1663423,45.7301494 12.3753253,43.4862807 C13.0476245,42.8033641 13.6719023,42.0716678 14.2961801,41.3399715 C14.5843083,40.9985132 14.9204579,40.6082751 15.2085861,40.2668169 L15.7848426,39.63268 L15.8808853,40.5107156 C15.8808853,40.7546144 15.9289067,40.9497334 15.9289067,41.1448524 C15.9769281,41.63265 16.0249494,42.0716678 16.0249494,42.5594653 C16.0729708,45.4374709 15.5447357,47.6325599 14.2961801,49.5349703 C13.9600305,50.0227679 13.6719023,50.1691072 13.1436672,50.1691072 L12.9996031,50.1691072 C11.1747911,50.0715476 9.39800037,50.0227679 7.95735928,50.1691072 C6.03650448,50.3642262 4.83597023,51.193482 4.25971379,52.7056544 C3.9235642,53.6812495 3.73147872,55.1934219 4.25971379,56.5592551 C4.69190612,57.5836299 5.46024804,58.3153263 6.51671818,58.7543441 C8.05340202,59.3397011 9.54206448,59.6811594 10.8386415,59.6811594 L10.9827056,59.6811594 C13.9600305,59.6323797 16.9853768,59.4372606 19.9146804,59.1933619 C21.0191719,59.0958024 22.1236634,59.0470226 23.2761763,58.9494631 C23.6603472,58.9494631 24.0925396,58.8519036 24.4767105,58.8031238 C25.052967,58.7543441 25.6292234,58.6567846 26.2054798,58.6567846 C26.4455867,58.6567846 26.7337149,58.6567846 26.9738218,58.7055643 C27.5980996,58.8031238 28.2223774,58.9006833 28.8466552,58.9494631 C31.3917878,59.2909214 34.0329631,59.6811594 36.6261171,59.6323797 C38.2108223,59.5835999 39.8915703,59.4372606 41.4282541,58.6567846 C43.1090021,57.778749 43.877344,56.3641361 43.6852585,54.5105054 C43.493173,52.4129759 42.4367029,51.0959225 40.6599122,50.7544642 C39.2672925,50.4617857 37.8746727,50.4617857 36.3379889,50.4617857 C35.5216256,50.4617857 34.9933905,50.1691072 34.5131768,49.5837501 C32.6883648,47.1935421 32.3522152,44.413096 32.4002366,40.9985132 L32.4002366,39.8277991 L33.5527494,41.3887512 C33.8408777,41.7789893 34.0809845,42.1204475 34.3210914,42.4131261 C36.8182026,45.5350304 39.3633352,47.3886611 42.3406601,48.2179169 C43.6852585,48.608155 44.78975,48.608155 45.7981988,48.1691372 C47.0947758,47.6325599 47.9591604,46.2667267 47.9111391,44.9984531 C47.9591604,43.7301795 47.0947758,42.7545844 45.7981988,42.5106856 Z M19.5305094,19.3890816 C19.5305094,16.7061951 21.547407,14.5111061 24.0445182,14.5111061 L24.1405609,14.5111061 C26.6376722,14.5598859 28.6065483,16.7061951 28.558527,19.4378614 C28.558527,22.0719682 26.5416294,24.2670571 24.0445182,24.2670571 C21.547407,24.2182774 19.5305094,22.0231884 19.5305094,19.3890816 Z M19.0022744,57.5836299 L18.6661248,57.6324097 C18.4260179,57.6324097 18.2339324,57.6811895 17.9938256,57.6811895 C17.5136119,57.7299692 17.0333982,57.778749 16.5531845,57.778749 C14.0560733,57.778749 11.6069834,57.778749 9.20591489,57.6811895 C8.58163708,57.6811895 7.95735928,57.4372907 7.42912421,57.1933919 C6.18056859,56.6568146 5.70035489,55.7299992 5.79639763,54.2178268 C5.89244037,53.0958925 6.56473955,52.4129759 7.86131654,52.0715176 C8.43757297,51.9251783 9.25393626,51.8276188 10.262385,51.8276188 C11.3668765,51.8276188 12.3753253,51.9251783 13.0956459,52.1202974 L13.3837741,52.1690771 L13.4317954,52.4617557 C13.5758596,54.1202673 14.4402442,55.0958624 16.3130776,55.6324397 C16.9373555,55.8275588 17.5136119,56.0714575 18.0898683,56.3153563 C18.3299752,56.4129158 18.6181034,56.5104753 18.8582102,56.6568146 L19.0983171,56.7543741 L19.0022744,57.5836299 Z M39.0271856,52.3641961 L39.3633352,52.3641961 C41.0440832,52.3641961 41.9084678,53.1446722 42.1005533,54.7544041 C42.2446174,55.8763385 41.8124251,56.7055944 40.900019,56.9982729 C39.7955275,57.3885109 38.6430147,57.6324097 37.5865445,57.8275287 C37.3464377,57.8763085 37.1543522,57.8763085 36.9142453,57.8763085 L36.3860103,57.8763085 L35.9057966,57.8763085 C28.6545697,57.4860704 22.8920053,56.3153563 17.7056974,54.2178268 C17.5136119,54.1202673 17.3215264,54.0714876 17.0814196,54.0227078 C16.74527,53.9251483 16.4091204,53.8275888 16.1209922,53.6324698 C16.0729708,53.6324698 15.2085861,53.1446722 15.2085861,52.5105354 C15.2085861,52.0227379 15.6887998,51.5349403 16.0729708,51.3398213 C16.9853768,50.8520237 17.9458042,50.803244 19.3864453,51.1447023 C20.0107231,51.2910415 20.6830223,51.4861605 21.3073001,51.6812796 C22.075642,51.9251783 22.8920053,52.1690771 23.6603472,52.3154164 C25.052967,52.6080949 26.5416294,52.7544342 28.3184201,52.7544342 C29.7590612,52.7544342 31.2957451,52.6568747 32.7363862,52.5593152 L32.9284716,52.5593152 C35.185476,52.4617557 37.2023736,52.3641961 39.0271856,52.3641961 Z M46.1823697,45.3886911 C46.1343484,45.4862507 46.086327,45.5838102 45.9902843,45.6813697 C45.7981988,45.9740482 45.6061133,46.3642863 45.2699637,46.413066 C44.3095363,46.608185 43.5892158,46.608185 43.0129593,46.4618458 C40.6118908,45.8764887 38.4029078,44.3643163 36.482053,41.9741083 C35.4255829,40.6570549 34.5131768,39.1936622 33.6487922,37.7790493 L33.1205571,36.9010137 C32.7363862,36.3156567 32.4962793,35.9741984 31.9680442,36.0717579 C31.4398092,36.1693174 31.2957451,36.5107757 31.1997023,37.242472 C30.5274031,41.2911917 30.7194886,44.6082151 31.7279374,47.6325599 C31.9200229,48.1691372 32.1601297,48.7057145 32.4482579,49.2910716 C32.592322,49.5837501 32.6883648,49.8276489 32.8324289,50.1203274 L33.0725357,50.6569047 L32.4962793,50.7056845 C31.3917878,50.803244 29.9031253,50.9008035 28.4144629,50.9008035 C26.2535012,50.9008035 24.3326464,50.6569047 22.6518985,50.1691072 C22.2677275,50.0715476 21.8835566,49.9252084 21.547407,49.8276489 C20.2028086,49.3886311 18.9062316,48.998393 17.6096546,49.0959525 L17.1294409,49.1447323 L17.2254837,48.608155 C17.3215264,48.0715777 17.4175692,47.5837801 17.4655905,47.0472028 C17.657676,45.9252685 17.8497615,44.8033341 17.9458042,43.7301795 C18.0898683,41.63265 17.8017401,39.3400015 17.0333982,36.8034542 C16.8893341,36.3156567 16.6492272,36.0717579 16.2650563,36.0229781 L16.1690135,36.0229781 C15.7848426,36.0229781 15.5447357,36.2180972 15.3046289,36.657115 C13.6719023,39.7790193 11.8470902,41.9741083 9.59008585,43.5350604 C8.10142339,44.5594353 6.46869681,45.2423519 4.64388475,45.5350304 C3.77950009,45.6813697 2.9631368,45.5838102 2.43490173,45.0472329 C2.05073077,44.7057746 1.90666667,44.3155365 2.0027094,43.9252985 C2.09875214,43.5838402 2.33885899,43.3399414 2.77105132,43.2423819 C8.00538065,42.1204475 10.646556,37.6327101 13.0476245,33.7303297 C13.1436672,33.5352106 13.2877313,33.3888714 13.3357527,33.1449726 C14.3922228,30.3645265 16.5051631,28.6572351 19.8186376,27.9743185 C23.5162831,27.1938425 27.0218431,27.3889615 30.2872963,28.5108958 C32.4002366,29.2425922 33.9369204,30.6084253 34.8973478,32.7059548 C36.5300744,36.1693174 38.4029078,38.9985432 40.6599122,41.2911917 C41.7644037,42.4131261 43.3010875,43.7789592 45.3660064,44.1691973 C45.6541347,44.217977 45.8462201,44.413096 46.086327,44.5594353 C46.1343484,44.6082151 46.2303911,44.6569948 46.2784125,44.7057746 L46.6625834,44.9496733 L46.1823697,45.3886911 Z" id="Shape"></path>
                        <path d="M50.6533333,12.9319955 C50.1243891,12.9319955 49.6950725,13.3471005 49.6950725,13.858926 L49.6950725,15.8843467 C49.6950725,16.3961721 50.1243891,16.8115942 50.6533333,16.8115942 C51.1822776,16.8115942 51.6115942,16.3961721 51.6115942,15.8843467 L51.6115942,13.858926 C51.6115942,13.3467834 51.1822776,12.9319955 50.6533333,12.9319955 Z" id="Shape"></path>
                        <path d="M50.6533333,3.87959866 C51.1822776,3.87959866 51.6115942,3.46390471 51.6115942,2.95174438 L51.6115942,0.927854285 C51.6115942,0.415376628 51.1822776,0 50.6533333,0 C50.1243891,0 49.6950725,0.415376628 49.6950725,0.927854285 L49.6950725,2.95174438 C49.6950725,3.46390471 50.1243891,3.87959866 50.6533333,3.87959866 Z" id="Shape"></path>
                        <path d="M57.2107614,7.75919732 L55.5950357,7.75919732 C55.1593889,7.75919732 54.8057971,8.1937283 54.8057971,8.72909699 C54.8057971,9.26479739 55.1593889,9.69899666 55.5950357,9.69899666 L57.2107614,9.69899666 C57.6464082,9.69899666 58,9.26479739 58,8.72909699 C58,8.19339659 57.6466781,7.75919732 57.2107614,7.75919732 Z" id="Shape"></path>
                        <path d="M45.2231884,8.72909699 C45.2231884,8.1937283 44.8698963,7.75919732 44.4340165,7.75919732 L42.8181574,7.75919732 C42.3822776,7.75919732 42.0289855,8.1937283 42.0289855,8.72909699 C42.0289855,9.26479739 42.3822776,9.69899666 42.8181574,9.69899666 L44.4340165,9.69899666 C44.8698963,9.69899666 45.2231884,9.26512909 45.2231884,8.72909699 Z" id="Shape"></path>
                        <path d="M55.0669504,11.9061587 C54.7151904,11.5495711 54.1445438,11.5498831 53.7921672,11.9058467 C53.4400989,12.2621224 53.4400989,12.8395885 53.7921672,13.1958642 L55.1837927,14.6044321 C55.3595185,14.7828819 55.5904285,14.8717949 55.8210301,14.8717949 C56.0516318,14.8717949 56.2822335,14.7828819 56.4582676,14.6047441 C56.8103359,14.2484684 56.8103359,13.6710024 56.4582676,13.3147267 L55.0669504,11.9061587 Z" id="Shape"></path>
                        <path d="M45.6007384,5.55220542 C45.7768235,5.73012571 46.007492,5.81939799 46.2381604,5.81939799 C46.4688289,5.81939799 46.6994973,5.73012571 46.8755824,5.55220542 C47.2277527,5.19574057 47.2277527,4.61796785 46.8755824,4.261503 L45.4847874,2.85374775 C45.1326171,2.49728289 44.5618052,2.49728289 44.209635,2.85374775 C43.8574647,3.2102126 43.8574647,3.78798532 44.209635,4.14445018 L45.6007384,5.55220542 Z" id="Shape"></path>
                        <path d="M54.4548467,5.81939799 C54.6918769,5.81939799 54.9292239,5.72767603 55.1098485,5.5445528 L56.4509067,4.18700356 C56.8127896,3.8207571 56.8127896,3.22745068 56.4509067,2.86120423 C56.0887069,2.49495777 55.5021523,2.49463707 55.1405863,2.86120423 L53.7995281,4.21875347 C53.4376452,4.58499992 53.4376452,5.17862705 53.7995281,5.54487351 C53.9807865,5.72767603 54.2178166,5.81939799 54.4548467,5.81939799 Z" id="Shape"></path>
                        <path d="M45.5582914,11.913381 L44.2168656,13.2710313 C43.8550545,13.6369842 43.8550545,14.2306555 44.2168656,14.5969292 C44.3977711,14.7803868 44.6347543,14.8717949 44.8717374,14.8717949 C45.1087205,14.8717949 45.3457036,14.7803868 45.5266092,14.5969292 L46.8683518,13.2395997 C47.2301629,12.873326 47.2301629,12.2796547 46.8683518,11.913381 C46.5068575,11.5471073 45.9197857,11.547428 45.5582914,11.913381 Z" id="Shape"></path>
                        <path d="M50.3337638,4.52619844 C48.2171488,4.52619844 46.5008696,6.26302099 46.5008696,8.40564602 C46.5008696,10.5491775 48.2171488,12.2853958 50.3337638,12.2853958 C52.4515729,12.2853958 54.1669565,10.5491775 54.1669565,8.40564602 C54.1669565,6.26302099 52.4515729,4.52619844 50.3337638,4.52619844 Z M50.3337638,10.7147619 C49.0757362,10.7147619 48.0523573,9.6789533 48.0523573,8.40564602 C48.0523573,7.13264091 49.0757362,6.09683233 50.3337638,6.09683233 C51.5917914,6.09683233 52.6154688,7.13264091 52.6154688,8.40564602 C52.6154688,9.6789533 51.5917914,10.7147619 50.3337638,10.7147619 Z" id="Shape"></path>
                    </g>
                </g>
            </g>
        </g>
    </g>
</svg>