<?xml version="1.0" encoding="UTF-8"?>
<svg width="38px" height="39px" viewBox="0 0 38 39" version="1.1" xmlns="http://www.w3.org/2000/svg" xmlns:xlink="http://www.w3.org/1999/xlink">
    <!-- Generator: Sketch 43.2 (39069) - http://www.bohemiancoding.com/sketch -->
    <title>b</title>
    <desc>Created with Sketch.</desc>
    <defs></defs>
    <g id="UX-UI" stroke="none" stroke-width="1" fill="none" fill-rule="evenodd">
        <g id="03-01-Fiche-cours-/-1-cours" transform="translate(-713.000000, -550.000000)" fill-rule="nonzero" fill="#212B31">
            <g id="Matériel" transform="translate(355.000000, 550.000000)">
                <g id="gymball" transform="translate(349.000000, 0.000000)">
                    <g id="icone-/-matériel-noir-/-ball" transform="translate(9.000000, 0.000000)">
                        <path d="M35.8540625,19.4222445 C35.8540541,18.5792958 35.8022777,17.7705164 35.6928468,16.9300923 C35.4978322,15.4914658 35.1279192,14.1295199 34.5810907,12.837123 C34.0996515,11.6826287 33.4780006,10.5853204 32.7117356,9.53952851 C32.5590872,9.32877076 32.3985247,9.12216518 32.2023091,8.88484978 C32.070658,8.71151922 31.9656406,8.5808276 31.8140528,8.405066 C31.5231,8.06597586 31.2153584,7.73316438 30.8907768,7.4066311 C30.3861571,6.89897708 29.8664796,6.43039122 29.3343894,6.00282533 C29.229735,5.91931613 29.1253314,5.83762505 29.0215769,5.75805529 C28.147458,5.08838478 27.2342867,4.51950606 26.2854686,4.05262804 C24.0774811,2.97835453 21.6447374,2.44047059 18.9756757,2.44047059 C16.2719551,2.44047059 13.8088832,2.99367226 11.5764687,4.09769078 C10.7434792,4.51206309 9.93998195,5.00090955 9.21540406,5.52595912 C9.14780516,5.58202284 9.07878609,5.6365782 9.00651411,5.69100545 C8.32584052,6.20118818 7.66855239,6.77348986 7.03789417,7.40497338 C6.6642332,7.78264061 6.31354066,8.16645739 5.98830994,8.55334345 C5.83464495,8.73763512 5.68715962,8.92129091 5.50246815,9.1583868 C5.41596046,9.27075434 5.41596046,9.27075434 5.34194304,9.3657223 C4.62203812,10.334859 4.0218847,11.3501025 3.54154708,12.4101255 C2.91717261,13.796684 2.49754796,15.2665262 2.28105268,16.8324835 C2.22599365,17.2033876 2.18405775,17.5792449 2.15493358,17.9643236 C2.11651999,18.4452674 2.0972973,18.932592 2.0972973,19.4263529 C2.0972973,19.9379866 2.1049648,20.2850988 2.11835134,20.4467218 C2.12262889,20.4994836 2.12865736,20.5540662 2.1419526,20.6584857 C2.3084475,22.5159211 2.70810709,24.2362858 3.34024514,25.823483 C4.12140536,27.7911296 5.25941228,29.5583475 6.77232027,31.1450151 C6.85919953,31.2398012 6.94717629,31.3319947 7.03625019,31.4216042 C10.3516587,34.7569485 14.3127898,36.4122353 18.9756757,36.4122353 C23.6379291,36.4122353 27.590198,34.7574696 30.8924053,31.4199697 C30.9940257,31.3180519 30.9940257,31.3180519 31.0890893,31.2222023 C32.557667,29.7087448 33.6821065,28.0619626 34.4684892,26.2760402 C35.122856,24.8024276 35.5463569,23.2325773 35.7385146,21.5675225 C35.8134895,20.8908443 35.8508383,20.2070091 35.8540625,19.4222445 Z M37.8540541,19.4263529 C37.8505373,20.2843828 37.8093321,21.0388276 37.7258396,21.7922863 C37.5101887,23.6610109 37.0336896,25.4273175 36.2976395,27.0848663 C35.4148952,29.0896452 34.1555509,30.9340003 32.5175912,32.6219476 C32.4124777,32.7280167 32.4124777,32.7280167 32.3108569,32.8299249 C28.636829,36.5432363 24.1728817,38.4122353 18.9756757,38.4122353 C13.7791021,38.4122353 9.30780072,36.5437574 5.61780386,32.8315723 C5.5096227,32.7227406 5.40300486,32.6110126 5.31146812,32.5108552 C3.6360269,30.7540447 2.35781761,28.7691057 1.48178208,26.5624782 C0.776943581,24.7927436 0.333359928,22.8833044 0.155417717,20.8850739 C0.142457501,20.7915809 0.13226976,20.6993399 0.125034904,20.6100819 C0.105846015,20.3784306 0.0972972973,19.9914252 0.0972972973,19.4263529 C0.0972972973,18.8797315 0.118615147,18.3392914 0.160954223,17.8093127 C0.193349348,17.3808531 0.240602632,16.9573379 0.301309374,16.54873 C0.542316908,14.805062 1.01458414,13.1508258 1.71888025,11.5867907 C2.25944976,10.3938387 2.93226931,9.25567036 3.74992419,8.15535903 C3.8337017,8.04745155 3.8337017,8.04745155 3.9205195,7.93470618 C4.12228589,7.67565124 4.28351755,7.47487784 4.45479542,7.26947536 C4.81770934,6.83774849 5.20485464,6.41403587 5.61944941,5.99501143 C6.31991889,5.29360818 7.04911725,4.65869417 7.80515502,4.09202734 C7.85064803,4.05776494 7.89514247,4.02259481 7.98845734,3.94778881 C8.85267007,3.31861986 9.75187548,2.77154475 10.6877861,2.30597716 C13.2034901,1.06185715 15.970148,0.440470588 18.9756757,0.440470588 C21.9421292,0.440470588 24.6742503,1.04454743 27.1644717,2.25614987 C28.2358991,2.78334688 29.2605656,3.42168384 30.2382792,4.17071939 C30.3526669,4.25844358 30.4671822,4.34804662 30.5844867,4.44165749 C31.1777772,4.9183931 31.7526942,5.43678762 32.3092232,5.99666301 C32.6680031,6.35760033 33.0089102,6.72627904 33.3302264,7.10076116 C33.509,7.30803808 33.6395867,7.47054996 33.767281,7.64030923 C33.9643976,7.87715835 34.1524837,8.11918022 34.3282584,8.3618937 C35.1842038,9.5300521 35.8841745,10.7656066 36.425006,12.0625591 C37.0395217,13.5148918 37.4560952,15.0486323 37.6754108,16.6666295 C37.7967554,17.5984327 37.8540541,18.4934737 37.8540541,19.4263529 Z M34.8691926,25.8236371 C35.3431884,25.5401826 35.9572231,25.6946468 36.2406777,26.1686425 C36.5241322,26.6426383 36.369668,27.2566731 35.8956723,27.5401276 C35.7579778,27.6224703 35.6163192,27.7045218 35.473111,27.7849313 C30.984281,30.3219097 25.5857077,31.5849412 19.2918919,31.5849412 C12.9980761,31.5849412 7.59950282,30.3219097 3.1131657,27.7863355 C2.67629028,27.5410706 2.25959726,27.2886959 1.86310418,27.029141 C1.40102385,26.726651 1.27165034,26.1068443 1.57414036,25.644764 C1.87663038,25.1826836 2.49643711,25.0533101 2.95851744,25.3558001 C3.31645848,25.5901178 3.69436006,25.818998 4.09473257,26.0437746 C8.26536205,28.4009138 13.3262482,29.5849412 19.2918919,29.5849412 C25.2575356,29.5849412 30.3184217,28.4009138 34.491471,26.0424115 C34.621392,25.9694586 34.7473009,25.8965297 34.8691926,25.8236371 Z M32.5,7.72941176 L33.0450735,6.89102351 C33.1081289,6.93181425 33.1081289,6.93181425 33.1664086,6.96870736 L32.6337838,7.81505882 L31.9245606,8.52004287 L31.8637498,8.4588664 L32.572973,7.75388235 L32.3046826,8.71722043 C32.2189231,8.69155842 32.2189231,8.69155842 32.1415724,8.66296929 L32.5,7.72941176 Z M33.2821961,7.04889831 L33.3430069,7.11007478 C34.1820528,7.95416587 33.1084551,9.29532059 32.101159,8.66141029 C32.0295822,8.61609751 32.0295822,8.61609751 31.9549265,8.56780002 C30.9499007,7.91438803 31.7359348,6.36952725 32.8542136,6.79424505 C33.015996,6.84165805 33.1632424,6.92922926 33.2821961,7.04889831 Z M19.7039851,11.8861166 C14.2475456,11.8783669 9.36047474,11.1292352 5.04546824,9.6339815 C5.02720782,9.64320847 5.00896589,9.65243329 4.99074243,9.66165594 C4.49796957,9.91104191 3.89633098,9.71373786 3.64694501,9.220965 C3.39755904,8.72819215 3.5948631,8.12655355 4.08763595,7.87716759 C4.23389752,7.8031465 4.38129623,7.72900399 4.5298322,7.65473989 C4.77456436,7.53238024 5.05874488,7.51564471 5.31614723,7.60843342 C9.50233054,9.11747391 14.2982369,9.87843691 19.7068264,9.88611866 C25.1172517,9.89380707 29.6130045,9.26475761 33.1905003,8.00935297 C33.7116297,7.82647974 34.2823366,8.10069052 34.4652098,8.6218199 C34.6480831,9.14294927 34.3738723,9.71365615 33.8527429,9.89652938 C30.0403317,11.2343698 25.3252736,11.8941047 19.7039851,11.8861166 Z M29.7070726,4.2531986 C30.241672,4.1145555 30.7874429,4.43554152 30.926086,4.97014094 C31.0647291,5.50474035 30.7437431,6.05051125 30.2091436,6.18915434 C27.3215365,6.93802682 23.9345542,7.31011765 20.0459459,7.31011765 C15.7221524,7.31011765 12.0190077,6.84967348 8.93352209,5.92183577 C8.69888136,5.85124277 8.47107074,5.77773206 8.25007952,5.7012778 C7.72814696,5.52070968 7.45141641,4.95122035 7.63198452,4.42928779 C7.81255264,3.90735523 8.38204197,3.63062467 8.90397453,3.81119279 C9.09890392,3.87863069 9.30082304,3.94378664 9.50959361,4.00659646 C12.3918031,4.87330692 15.9048747,5.31011765 20.0459459,5.31011765 C23.775032,5.31011765 26.9961577,4.95624769 29.7070726,4.2531986 Z M4.97702703,9.54917647 L4.70945946,9.54917647 C3.57006675,9.54917647 3.31745884,7.94871831 4.40146271,7.59778906 C4.44637238,7.58307696 4.44637238,7.58307696 4.4910761,7.56773831 C4.6671583,7.50663392 4.85681331,7.49595561 5.03864171,7.53690824 C5.09518495,7.55017896 5.10656573,7.55285003 5.14641334,7.56342595 C6.34189236,7.75797232 6.21383769,9.54917647 4.97702703,9.54917647 Z M4.8507421,9.54117048 C4.74890334,9.52571025 4.74890334,9.52571025 4.65221842,9.50146446 C4.62025386,9.49295726 4.62025386,9.49295726 4.59919613,9.48803294 L4.81891892,8.51247059 L5.14676174,9.45720287 C5.08225938,9.4793348 5.08225938,9.4793348 5.01745621,9.50056388 L4.70945946,8.54917647 L4.70945946,7.54917647 L4.97702703,7.54917647 L4.97702703,8.54917647 L4.8507421,9.54117048 Z M35.1142597,11.5313334 C35.6228598,11.3160559 36.2096785,11.5538408 36.424956,12.0624409 C36.6402335,12.571041 36.4024485,13.1578597 35.8938484,13.3731372 C31.335434,15.3025982 25.8824709,16.2719009 19.5383853,16.2908182 C13.1925514,16.3114433 8.79618262,15.7925901 6.27776571,14.6893025 C3.92329666,13.655713 2.57279762,13.0641219 2.23346206,12.9176644 C1.72639008,12.6988118 1.49274211,12.1103337 1.7115947,11.6032617 C1.93044729,11.0961898 2.51892543,10.8625418 3.0259974,11.0813944 C3.37116353,11.2303683 4.72066448,11.8215222 7.08100029,12.8576875 C9.27307414,13.8180079 13.4469756,14.3106058 19.5321533,14.290828 C25.6256372,14.2726579 30.81862,13.3495685 35.1142597,11.5313334 Z M36.4355321,20.7227386 C36.9629135,20.5587651 37.5233674,20.8533654 37.6873409,21.3807468 C37.8513144,21.9081282 37.5567141,22.468582 37.0293327,22.6325555 C36.6812705,22.7407751 35.1445917,23.3640634 32.5337022,24.459741 C29.7234433,25.6370838 25.1732676,26.22652 18.8359193,26.2625691 C12.4750518,26.3019406 7.94048551,25.6676526 5.18014602,24.3123321 C2.42674605,22.9576066 0.891450654,22.0426421 0.359543309,21.365479 C0.01838915,20.9311608 0.0939135137,20.3025162 0.528231697,19.9613621 C0.962549881,19.6202079 1.59119442,19.6957323 1.93234858,20.1300505 C2.19452908,20.4638285 3.64301747,21.32706 6.06235886,22.5174227 C8.47661753,23.702818 12.7474567,24.3002162 18.8240414,24.2626044 C24.9212426,24.2279212 29.2494452,23.6672398 31.7603338,22.6153168 C34.4736093,21.4766719 35.9936873,20.8601171 36.4355321,20.7227386 Z M36.3204956,15.8640879 C36.8350465,15.6634494 37.4148221,15.9179256 37.6154606,16.4324765 C37.8160991,16.9470274 37.5616229,17.526803 37.047072,17.7274415 C36.7911182,17.8272454 35.4078813,18.3920528 32.9271392,19.4098405 C30.278062,20.4930784 25.6584337,21.0145558 19.0002145,21.013647 C12.338046,21.0150759 7.73235303,20.4849496 5.11046737,19.3807774 C2.65581515,18.342608 1.25219674,17.7508494 0.910933598,17.6102393 C0.400295413,17.3998418 0.156902213,16.8153269 0.367299669,16.3046888 C0.577697126,15.7940506 1.162212,15.5506574 1.67285019,15.7610548 C2.02292995,15.9052977 3.42471694,16.4962841 5.88812241,17.5381569 C8.19395609,18.5092269 12.5882632,19.0150222 19.0001365,19.0136471 C25.4151305,19.0145226 29.8279346,18.5163921 32.169077,17.559073 C34.6737487,16.5314668 36.0472686,15.9706271 36.3204956,15.8640879 Z M31.3110621,31.0500914 C31.7907196,30.7763268 32.401489,30.943236 32.6752536,31.4228935 C32.9490182,31.9025511 32.782109,32.5133205 32.3024515,32.7870851 C28.4726345,34.9729537 24.0328692,36.0630588 19,36.0630588 C13.8930369,36.0630588 9.39756976,34.9387979 5.53143615,32.6845851 C5.05432882,32.4063998 4.89307063,31.7941142 5.1712559,31.3170069 C5.44944117,30.8398996 6.0617268,30.6786414 6.53883412,30.9568266 C10.0871853,33.0257511 14.2349614,34.0630588 19,34.0630588 C23.6969872,34.0630588 27.7950598,33.0568502 31.3110621,31.0500914 Z" id="b"></path>
                    </g>
                </g>
            </g>
        </g>
    </g>
</svg>