<svg width="100px" height="100px" viewBox="0 0 100 100">
  <path d="M50,100 C22.3857625,100 0,77.6142375 0,50 C0,22.3857625 22.3857625,0 50,0 C77.6142375,0 100,22.3857625 100,50 C100,77.6142375 77.6142375,100 50,100 Z M50,96 C75.4050985,96 96,75.4050985 96,50 C96,24.5949015 75.4050985,4 50,4 C24.5949015,4 4,24.5949015 4,50 C4,75.4050985 24.5949015,96 50,96 Z M29.5,69.5 C28.3954305,69.5 27.5,68.6045695 27.5,67.5 C27.5,66.3954305 28.3954305,65.5 29.5,65.5 L71.5119031,65.5 C72.6164726,65.5 73.5119031,66.3954305 73.5119031,67.5 C73.5119031,68.6045695 72.6164726,69.5 71.5119031,69.5 L29.5,69.5 Z" fill="#fff"></path>
</svg>
