<?xml version="1.0" encoding="UTF-8"?>
<svg width="47px" height="24px" viewBox="0 0 47 24" version="1.1" xmlns="http://www.w3.org/2000/svg" xmlns:xlink="http://www.w3.org/1999/xlink">
    <!-- Generator: Sketch 43.2 (39069) - http://www.bohemiancoding.com/sketch -->
    <title>bosu</title>
    <desc>Created with Sketch.</desc>
    <defs></defs>
    <g id="UX-UI" stroke="none" stroke-width="1" fill="none" fill-rule="evenodd">
        <g id="03-01-Fiche-cours-/-1-cours" transform="translate(-437.000000, -530.000000)" fill-rule="nonzero" fill="#000000">
            <g id="Matériel" transform="translate(355.000000, 531.000000)">
                <g id="icone-/-matériel-noir-/-bosu" transform="translate(82.000000, 0.000000)">
                    <g id="bosu" transform="translate(0.000000, -1.000000)">
                        <path d="M45,22.009222 L45,22.0005217 C45.0018881,22.0016621 45,22.0046161 45,22.009222 Z M2,17.990778 L2,17.9994733 C1.99811188,17.9983379 2,17.9953839 2,17.990778 Z M2,22.009222 C2,21.9976953 44.9970177,22 44.9970177,22 C44.9984798,22 45,17.990778 45,17.990778 C45,18.0023047 2.00298231,18 2.00298231,18 C2.00152024,18 2,22.009222 2,22.009222 Z M0,17.990778 C0,16.8878608 0.896525863,16 2.00298231,16 L44.9970177,16 C46.0990801,16 47,16.8945419 47,17.990778 L47,22.009222 C47,23.1121392 46.1034741,24 44.9970177,24 L2.00298231,24 C0.900919947,24 0,23.1054581 0,22.009222 L0,17.990778 Z" id="Rectangle"></path>
                        <path d="M44,17.5 C44,7.79454405 34.7882661,0 23.5,0 C12.2117339,0 3,7.79454405 3,17.5 L5,17.5 C5,8.9800592 13.2491609,2 23.5,2 C33.7508391,2 42,8.9800592 42,17.5 L44,17.5 Z" id="Oval-2"></path>
                        <path d="M26.8538469,7.06469341 C27.0722527,7.07551194 27.4914423,7.12647975 28.0417402,7.2462556 C28.9658041,7.44738403 29.8888205,7.77242819 30.7422936,8.24516785 C31.4899733,8.65930844 32.1495152,9.1693294 32.7009614,9.78399945 C33.0697708,10.1950932 33.7020073,10.2293714 34.113101,9.860562 C34.5241948,9.49175259 34.558473,8.85951617 34.1896636,8.44842243 C33.4822571,7.65991123 32.6463787,7.01352998 31.7113667,6.49562585 C30.6733043,5.92064197 29.5696755,5.53199437 28.4670941,5.29201048 C27.8014048,5.14711893 27.2748267,5.08309414 26.9527937,5.06714253 C26.4011853,5.03981911 25.9318683,5.4648361 25.9045449,6.01644454 C25.8772215,6.56805298 26.3022384,7.03736999 26.8538469,7.06469341 Z" id="Path-2"></path>
                    </g>
                </g>
            </g>
        </g>
    </g>
</svg>