<svg xmlns="http://www.w3.org/2000/svg" viewBox="0 0 40 40"><defs><style>.a{fill:#fff;}</style></defs><title>PICTOS_BORNE_</title><path class="a" d="M34.45,20.26H19.54a.5.5,0,0,1,0-1H34.45a.5.5,0,0,1,0,1Z"/><path class="a" d="M38.11,23.56H35.64a15.48,15.48,0,0,0-31,0H2.21a1.05,1.05,0,0,0-1.05,1.05v2.14A1.05,1.05,0,0,0,2.21,27.8h35.9a1.05,1.05,0,0,0,1.05-1.05V24.61A1.05,1.05,0,0,0,38.11,23.56Zm-32-3.3H13a.5.5,0,0,0,0-1H6.37a14.43,14.43,0,0,1,2.15-4.15l.12,0H24.41a.5.5,0,0,0,0-1H9.3a14.46,14.46,0,0,1,25.33,9.43h-29A14.43,14.43,0,0,1,6.1,20.26Zm32.06,6.49-.05.05-36-.05.05-2.19,36,.05Z"/><circle class="a" cx="16.26" cy="19.76" r="0.58"/></svg>