<svg xmlns="http://www.w3.org/2000/svg" viewBox="0 0 40 40"><defs><style>.a{fill:#fff;}</style></defs><title>PICTOS_BORNE_</title><path class="a" d="M34.76,17.06A3.25,3.25,0,1,0,38,20.3,3.25,3.25,0,0,0,34.76,17.06Zm0,5.49A2.25,2.25,0,1,1,37,20.3,2.25,2.25,0,0,1,34.76,22.55Z"/><path class="a" d="M35.33,29.05l-5.08-.89v-6.6h0A3.55,3.55,0,0,0,26.78,18H11.21L6.76,12.24A1.67,1.67,0,0,0,3.94,14l4,7.32a3.86,3.86,0,0,0,3,2.07l1.49,0h.83l.12,4.25-1.85.06a.5.5,0,0,0,0,1h0L14,28.66a.5.5,0,0,0,.48-.51l-.2-7.05a2.26,2.26,0,0,1,.51-1.49A2.06,2.06,0,0,1,16.32,19l.13,0H26.71a2.55,2.55,0,0,1,2.54,2.55h0v7a.5.5,0,0,0,.41.49l5.53,1c.4.06.6.25.6.57a.53.53,0,0,1-.53.53H28.21a1,1,0,0,1-1-1v0h0l-.12-4.91a.5.5,0,0,0-.49-.49L18,24.54h0a.5.5,0,0,0-.5.51s0,1.15,0,4a2.4,2.4,0,0,1-.62,1.79,1.45,1.45,0,0,1-1,.35L5.62,30.38a.69.69,0,0,1-.67-.7A.7.7,0,0,1,5.66,29h0l1.68-.07,0-1L5.66,28a1.7,1.7,0,0,0-1.71,1.66,1.68,1.68,0,0,0,.47,1.2,1.66,1.66,0,0,0,1.15.51l10.19.77h.15a2.48,2.48,0,0,0,1.61-.6,3.32,3.32,0,0,0,1-2.53c0-1.79,0-2.9,0-3.48l7.55.14.11,4.43h0a2,2,0,0,0,2,2h7.17a1.52,1.52,0,0,0,1.42-1.52A1.56,1.56,0,0,0,35.33,29.05ZM13.25,21.13l0,1.29c-.47,0-1.26,0-2.27,0a2.91,2.91,0,0,1-2.17-1.54l-4-7.37a.67.67,0,0,1,.2-.92.68.68,0,0,1,.95.23l4.62,6A.5.5,0,0,0,11,19h3A3.3,3.3,0,0,0,13.25,21.13Z"/><circle class="a" cx="9.48" cy="28.38" r="0.51"/></svg>