<svg xmlns="http://www.w3.org/2000/svg" viewBox="0 0 40 40"><defs><style>.a{fill:#fff;}</style></defs><title>PICTOS_BORNE_</title><path class="a" d="M30.92,28.78l-1.11-3.59A11.82,11.82,0,0,0,27,20.48a5.56,5.56,0,0,0-2.86-1,7.25,7.25,0,0,1-1.34-.3c-.47-.19-.55-.66-.62-1.69v-.11l.22-.07a4.31,4.31,0,1,0,4.71-7.22A7.27,7.27,0,0,0,12.6,10a4.31,4.31,0,1,0,4.62,7.26l.13,0a2.57,2.57,0,0,1-.1.68,2.42,2.42,0,0,1-1.92,1.65h-.28c-1.15,0-2.72.11-3.33,1.56-.07.18-.17.38-.3.63s-.44.91-.76,1.65a.5.5,0,1,0,.92.4c.31-.72.56-1.23.74-1.61s.24-.5.32-.69c.33-.8,1.22-.9,2.44-.95h.29a3.42,3.42,0,0,0,2.83-2.36,3.31,3.31,0,0,0,.13-1.36v0a1.65,1.65,0,0,0-.85-1.31,11.5,11.5,0,0,1-2-1.93l-.19-.2h0a.85.85,0,0,1,0-.22l.45-.95a12.1,12.1,0,0,1,3-2.63,9.2,9.2,0,0,0,5,4.37,1.8,1.8,0,0,1-.68.78,4.14,4.14,0,0,1-.83.44,1.38,1.38,0,0,0-1,1.68c0,.22,0,.43.05.64.07,1,.15,2.1,1.24,2.55a7.81,7.81,0,0,0,1.55.36,5,5,0,0,1,2.33.75,10.91,10.91,0,0,1,2.52,4.28L30,29.07a2,2,0,0,1-.89,2.21c-1.66,1-5.19,3.6-5.34,3.71l-.08.07a1.21,1.21,0,0,1-.71.39.54.54,0,0,1-.42-.24c-.61-.74-.94-1.18-1.08-1.36a.9.9,0,0,1,.35-.89,4,4,0,0,0,2-2.7.5.5,0,0,0-.14-.38L22,28.26a.5.5,0,0,0-.62-.08s-1,.62-1.49,0c-.66-.86-.73-1.37-.86-3a2.56,2.56,0,0,0-.59-1.76,1.36,1.36,0,0,0-1.08-.37,1.49,1.49,0,0,0-1.09.51c-.54.66-.44,1.77-.24,3.52.1.86.25,1.67.33,2.13-.38.08-1.28.06-3-1a.5.5,0,0,0-.52.86c3.14,1.91,4.28,1,4.48.77a.5.5,0,0,0,.13-.45s-.25-1.19-.4-2.42c-.12-1.07-.28-2.41,0-2.77,0,0,.1-.13.39-.15a.34.34,0,0,1,.31.09,1.7,1.7,0,0,1,.28,1.06c.13,1.63.2,2.45,1.07,3.58a2,2,0,0,0,2.44.43l1.14,1.17a3.32,3.32,0,0,1-1.41,1.68,1.91,1.91,0,0,0-.83,2.07.5.5,0,0,0,.08.18s.33.48,1.19,1.51a1.52,1.52,0,0,0,1.16.61h0a2.13,2.13,0,0,0,1.42-.69c.39-.29,3.69-2.71,5.22-3.62A2.93,2.93,0,0,0,30.92,28.78ZM23.6,15.59c1.3-.92,1.17-1.91,1.15-2a.5.5,0,0,0-.34-.39,8.25,8.25,0,0,1-5-4.46.5.5,0,0,0-.31-.3.49.49,0,0,0-.43.05,14.84,14.84,0,0,0-3.77,3.32l-.53,1.11a.5.5,0,0,0,0,.21,1.5,1.5,0,0,0,.3,1l.18.2a15.31,15.31,0,0,0,2,2,3.31,3.31,0,1,1-3.5-5.55.5.5,0,0,0,.29-.44,6.27,6.27,0,0,1,12.55.05.5.5,0,0,0,.28.44,3.31,3.31,0,1,1-3.59,5.51.49.49,0,0,0-.49-.08l.25-.11A5.17,5.17,0,0,0,23.6,15.59Z"/><path class="a" d="M15.95,35.37a.71.71,0,0,1-.41-.07s-2.65-.64-4.62-1.21S8.66,33,8.61,32.22a8.17,8.17,0,0,1,.72-2.93l.47-1.09a.5.5,0,0,0-.92-.4l-.47,1.08a9,9,0,0,0-.81,3.4c.11,1.63,1.15,2.23,3,2.77s4.55,1.19,4.58,1.19h0a1.69,1.69,0,0,0,.64.13,1.17,1.17,0,0,0,.51-.11,1.08,1.08,0,0,0,.58-.72c.21-.74.79-2.85.79-2.85l-1-.27S16.2,34.55,15.95,35.37Z"/><path class="a" d="M27.74,26.89a2.56,2.56,0,1,0-2.56,2.57A2.57,2.57,0,0,0,27.74,26.89Zm-4.13,0a1.56,1.56,0,1,1,1.56,1.57A1.57,1.57,0,0,1,23.62,26.89Z"/><circle class="a" cx="10.38" cy="25.77" r="0.49"/></svg>