<svg xmlns="http://www.w3.org/2000/svg" viewBox="0 0 40 40"><defs><style>.a{fill:#fff;}</style></defs><title>PICTOS_BORNE_</title><path class="a" d="M12.92,15.5A2.54,2.54,0,0,1,10.38,13V11a.52.52,0,0,0-1,0v2a3.59,3.59,0,0,0,3.58,3.58.52.52,0,1,0,0-1Z"/><path class="a" d="M30.31,10.49a.52.52,0,0,0-.52.52v2a2.54,2.54,0,0,1-2.54,2.54h-4.1A2.54,2.54,0,0,1,20.62,13V11.83a.59.59,0,0,0-.54-.57.52.52,0,0,0-.52.52V13A2.54,2.54,0,0,1,17,15.5a.52.52,0,0,0,0,1,3.58,3.58,0,0,0,3.05-1.72,3.58,3.58,0,0,0,3.08,1.76h4.1A3.59,3.59,0,0,0,30.83,13V11A.52.52,0,0,0,30.31,10.49Z"/><path class="a" d="M23.93,24.72a.52.52,0,1,0,0-1h-3V20.84a.52.52,0,1,0-1,0v2.84H16.51a.52.52,0,1,0,0,1h3.35v2.83H16.51a.52.52,0,1,0,0,1h3.35v3.08a.52.52,0,0,0,1,0V28.6h3a.52.52,0,1,0,0-1h-3V24.72Z"/><path class="a" d="M29.74,17.28a.52.52,0,0,0-.69.26,20.85,20.85,0,0,0-1.75,7.38c0,3.37.08,7.25.08,7.29a.52.52,0,0,0,.52.51h0a.52.52,0,0,0,.51-.53s-.08-3.91-.08-7.27A20.15,20.15,0,0,1,30,18,.52.52,0,0,0,29.74,17.28Z"/><path class="a" d="M10.75,17.28a.52.52,0,0,0-.26.69,20.1,20.1,0,0,1,1.66,6.95c0,3.36-.08,7.23-.08,7.27a.52.52,0,0,0,.51.53h0a.52.52,0,0,0,.52-.51s.08-3.92.08-7.29a20.85,20.85,0,0,0-1.75-7.38A.52.52,0,0,0,10.75,17.28Z"/><circle class="a" cx="15.04" cy="16.05" r="0.54"/></svg>