<svg xmlns="http://www.w3.org/2000/svg" viewBox="0 0 40 40"><defs><style>.a{fill:#fff;}</style></defs><title>PICTOS_BORNE_</title><path class="a" d="M33.08,25.61l-.17-.06-2.94-1,3.42-9.23a.5.5,0,0,0-.2-.6S32,14,32.86,12.17c1.69-3.62,2.06-4.34,2.06-4.35A.5.5,0,0,0,34,7.36s-.37.72-2.08,4.38a3,3,0,0,0,.38,3.6L29,24.28l-2.72-.89,1.92-11.17a.5.5,0,0,0-.32-.56c-.06,0-1.39-.53-.85-2.45L27.67,7a.51.51,0,0,0,.06-.14c.14-.52.24-.89.3-1.16l0-.14h0c.1-.53,0-.56-.33-.64s-.37-.1-.57.4h-.05c0,.06-.1.37-.18.67-.19.62-.46,1.57-.86,3a2.89,2.89,0,0,0,1.09,3.47L25.34,23.07,13.64,19.22h0a7.8,7.8,0,1,0-2.78,15.08H18a.5.5,0,0,0,0-1H10.82A6.8,6.8,0,1,1,13.3,20.17l.09,0,15.3,5-.94,2.54a1.06,1.06,0,0,1-1.22.86l-.61-.11a2.05,2.05,0,0,0-1.47-2.43l-7-1.85a.5.5,0,0,0-.26,1l7,1.85a1.05,1.05,0,0,1,.75,1.29l-9.38-1.63c0-.09,0-.17,0-.25a4.72,4.72,0,1,0-.19,1.24l11,1.91.35,0a2,2,0,0,0,1.18-.38A2,2,0,0,0,28.7,28l.92-2.49,3.07,1a3.52,3.52,0,0,1-1.38,6.75H23.9a.5.5,0,1,0,0,1h7.42a4.52,4.52,0,0,0,1.77-8.68ZM11,30.09a3.63,3.63,0,1,1,3.63-3.63s0,.05,0,.08L11.18,26a.49.49,0,0,0-.58.41.5.5,0,0,0,.41.58l3.39.59A3.62,3.62,0,0,1,11,30.09Z"/><circle class="a" cx="20.81" cy="33.92" r="0.6"/></svg>