<svg xmlns="http://www.w3.org/2000/svg" viewBox="0 0 40 40"><defs><style>.a{fill:#fff;}</style></defs><title>PICTOS_BORNE_</title><path class="a" d="M33,15.32A5.55,5.55,0,0,0,31.4,12L27.27,7.84c-2.13-2.13-5.75-2.15-8.79-.06a9.34,9.34,0,0,0-1.9,1.79l-2.33,3.07a.5.5,0,1,0,.8.6l2.32-3.06A8.32,8.32,0,0,1,19.05,8.6c2.64-1.82,5.73-1.85,7.51-.06l4.13,4.12A4.55,4.55,0,0,1,32,15.43a7.89,7.89,0,0,1-3.4,6.74l-3.78,2.6a2.23,2.23,0,0,1-1.41-.55.5.5,0,0,0-.86.51c.11.2.75,1.12,3.26,1.12h.5a.5.5,0,0,0,.48-.52.49.49,0,0,0-.32-.45l1.72-1.19c.44.39,1,1.1.89,1.75s-.82,1.47-4.3,2.14c-4.37.85-6.12,1.38-6.83,1.77l-5.71-5.71L9.36,20.76l3-4a.5.5,0,0,0-.8-.6L8.32,20.48,4.91,23.89a.5.5,0,0,0,0,.71l9.27,9.27a.5.5,0,0,0,.71,0l3.43-3.43a.5.5,0,0,0,.11-.17h0a.5.5,0,0,0,0-.11c.41-.21,1.8-.71,6.47-1.62,3.13-.61,4.79-1.56,5.09-2.91a2.89,2.89,0,0,0-1-2.54l.15-.1A8.8,8.8,0,0,0,33,15.32ZM14.54,32.8,9.65,27.91l1.54-.18a.5.5,0,0,0,.44-.55.51.51,0,0,0-.55-.44L8.74,27,6,24.24,8.7,21.52,9.88,22.7l-1.55.18a.5.5,0,0,0,.06,1h.06l2.34-.27,5,5-1.55.18a.5.5,0,0,0,.06,1h.06l2.34-.27.61.61Z"/><path class="a" d="M27.45,16.41a7.36,7.36,0,0,1,.18,1.38.5.5,0,0,0,.5.48h0a.5.5,0,0,0,.48-.52,8.52,8.52,0,0,0-.21-1.57.5.5,0,0,0-1,.23Z"/><path class="a" d="M21.91,11a.49.49,0,0,0-.52.48.5.5,0,0,0,.48.52s3.54.17,5.06,3a.5.5,0,0,0,.44.26.5.5,0,0,0,.44-.74C26,11.23,22.07,11,21.91,11Z"/><circle class="a" cx="13.44" cy="14.75" r="0.57"/></svg>