<svg xmlns="http://www.w3.org/2000/svg" viewBox="0 0 40 40"><defs><style>.a{fill:#fff;}</style></defs><title>PICTOS_BORNE_</title><path class="a" d="M34.76,20.45a.5.5,0,0,0,.31-.46V9.27a.5.5,0,0,0-1,0V19.65L28.39,22a.5.5,0,0,0-.31.46v5.08l-7.16.66a.5.5,0,0,0-.45.54.51.51,0,0,0,.54.45l11.81-1.09a1.11,1.11,0,0,1,.87.29,1.13,1.13,0,0,1-.66,2L4.81,33a1.1,1.1,0,0,1-.87-.29,1.13,1.13,0,0,1,.66-2l11.48-1.06a.5.5,0,0,0,.45-.54A.51.51,0,0,0,16,28.7L4.51,29.76A2.13,2.13,0,0,0,4.71,34H4.9l27.69-2.55V33h-4a.5.5,0,1,0,0,1h4.5a.5.5,0,0,0,.5-.5V31.3a2.13,2.13,0,0,0-.85-4.15l-3.66.34V22.84Z"/><path class="a" d="M34.58,9.66a1.94,1.94,0,1,1,1.94-1.94A1.94,1.94,0,0,1,34.58,9.66Zm0-2.88a.94.94,0,1,0,.94.94A.94.94,0,0,0,34.58,6.78Z"/><circle class="a" cx="18.42" cy="28.98" r="0.49"/></svg>