<svg xmlns="http://www.w3.org/2000/svg" viewBox="0 0 40 40"><defs><style>.a{fill:#fff;}</style></defs><title>PICTOS_BORNE_</title><path class="a" d="M19.85,9.78A3.16,3.16,0,1,1,23,6.62,3.17,3.17,0,0,1,19.85,9.78Zm0-5.33A2.16,2.16,0,1,0,22,6.62,2.17,2.17,0,0,0,19.85,4.45Z"/><path class="a" d="M16.63,18l-.09,4.34c0,.15,0,.47,0,.47V23l-4.18,4.52A1.59,1.59,0,0,0,11.9,29c.57,1.71,2.26,5.39,3.22,7.43a.8.8,0,0,0,1.53-.34.76.76,0,0,0,0-.13,60.77,60.77,0,0,0-1.81-6.69l-.1-.29.2-.22C16,27.59,18.7,25.2,18.81,25.1l.38-.33.34.37c.07.08,7.46,8.27,9.13,10.06a.74.74,0,0,0,.5.28.58.58,0,0,0,.47-.32.72.72,0,0,0,.05-.73c-.76-1.26-1.73-2.71-2.09-3.21l.82-.6c.37.51,1.36,2,2.14,3.28a1.72,1.72,0,0,1-.06,1.79,1.53,1.53,0,0,1-1.39.8,1.72,1.72,0,0,1-1.18-.6c-1.47-1.58-7.33-8.06-8.81-9.7-.73.65-2.36,2.12-3.23,3a60.09,60.09,0,0,1,1.75,6.55,1.87,1.87,0,0,1,0,.3,1.82,1.82,0,0,1-3.47.77c-1-2.06-2.67-5.79-3.26-7.54a2.56,2.56,0,0,1,.63-2.5l3.94-4.27c0-.08,0-.17,0-.23L15.64,17l-3.27,2.18a2,2,0,0,1-1.51.27,2.31,2.31,0,0,1-1.45-1c-.76-1.22-2-4-2.75-5.51l.93-.42c.55,1.22,1.93,4.18,2.68,5.39a1.28,1.28,0,0,0,.8.56.93.93,0,0,0,.73-.12"/><path class="a" d="M15.83,37.88a1.8,1.8,0,0,1-1.63-1c-1-2.06-2.67-5.79-3.26-7.54a2.55,2.55,0,0,1,.63-2.49l3.94-4.27c0-.08,0-.17,0-.23L15.65,17l-3.28,2.19a2,2,0,0,1-1.5.27,2.3,2.3,0,0,1-1.44-1c-.76-1.22-2-4-2.75-5.51a.5.5,0,1,1,.91-.41c.55,1.22,1.93,4.18,2.68,5.39a1.29,1.29,0,0,0,.81.56,1,1,0,0,0,.74-.12l4.09-2.73a.5.5,0,0,1,.78.43L16.62,18l-.09,4.34c0,.15,0,.47,0,.47a.49.49,0,0,1-.13.3l-4.06,4.4a1.59,1.59,0,0,0-.42,1.5c.57,1.71,2.26,5.39,3.22,7.43a.81.81,0,0,0,1.55-.34.9.9,0,0,0,0-.13,60.79,60.79,0,0,0-1.81-6.69.5.5,0,0,1,.11-.5c1.06-1.14,3.77-3.54,3.88-3.64a.5.5,0,0,1,.7,0c.07.08,7.46,8.27,9.13,10.06a.81.81,0,0,0,.5.28.59.59,0,0,0,.47-.32.73.73,0,0,0,.05-.74c-.76-1.26-1.73-2.71-2.09-3.21a.5.5,0,0,1,.81-.59c.37.51,1.36,2,2.14,3.28a1.71,1.71,0,0,1-.05,1.78,1.55,1.55,0,0,1-1.38.8,1.71,1.71,0,0,1-1.18-.6c-1.47-1.58-7.35-8.08-8.81-9.7-.73.65-2.36,2.13-3.24,3a59.86,59.86,0,0,1,1.76,6.55,1.74,1.74,0,0,1,0,.3,1.82,1.82,0,0,1-1.82,1.81Zm9.88-9.66A.5.5,0,0,1,25.3,28c-1.26-1.86-2.22-3.49-2.86-4.56a.5.5,0,0,1-.07-.24c0-.31,0-.81,0-1.1l.13-4.15a.5.5,0,0,1,.36-.46.5.5,0,0,1,.55.2c.64,1,2.79,2.79,3.37,2.42.82-.52,1.92-2.6,2.65-4,.27-.5.5-1,.69-1.27a.43.43,0,0,0,0-.5.38.38,0,0,0-.58-.05,33.23,33.23,0,0,0-2.94,3.07.54.54,0,0,1-.39.17.5.5,0,0,1-.38-.19l-3.7-4.66a3.28,3.28,0,0,0-2.43-1.24,3.22,3.22,0,0,0-1.92.52.5.5,0,0,1-.54-.84,4.35,4.35,0,0,1,2.5-.68,4.29,4.29,0,0,1,3.18,1.62l3.33,4.19a27.14,27.14,0,0,1,2.7-2.76,1.47,1.47,0,0,1,1.93.18A1.42,1.42,0,0,1,31,15.36c-.18.31-.41.74-.67,1.23-.87,1.65-2,3.7-3,4.36s-2.82-.65-3.86-1.71l-.09,2.87c0,.24,0,.63,0,.93.63,1.06,1.56,2.62,2.76,4.4a.5.5,0,0,1-.13.69A.49.49,0,0,1,25.71,28.22Z"/><circle class="a" cx="26.43" cy="29.4" r="0.61"/></svg>