<svg xmlns="http://www.w3.org/2000/svg" viewBox="0 0 40 40"><defs><style>.a{fill:#fff;}</style></defs><title>PICTOS_BORNE_</title><path class="a" d="M36.33,23.63l-.12,0a.49.49,0,0,0,.06-.32L35.63,20a3.49,3.49,0,0,0-3.29-2.73h-.93a.5.5,0,0,0,0,1h.93a2.48,2.48,0,0,1,2.31,1.92l.53,2.71H5.05l.53-2.72a2.48,2.48,0,0,1,2.31-1.91h17.8a.5.5,0,0,0,0-1H7.89A3.49,3.49,0,0,0,4.59,20L4,23.33a.5.5,0,0,0,0,.21h0L2.64,30.1a.5.5,0,0,0,.49.59h8.34a.5.5,0,0,0,.5-.46l.44-6.31h15.4l.44,6.31a.5.5,0,0,0,.5.46h8.34a.5.5,0,0,0,.49-.59ZM11,29.69H3.74l1.12-5.77h6.55Zm18.21,0-.4-5.77h6.55l1.12,5.77Z"/><circle class="a" cx="28.63" cy="17.8" r="0.58"/><circle class="a" cx="19.32" cy="20.82" r="0.58"/><circle class="a" cx="21.89" cy="20.82" r="0.58"/></svg>