<svg xmlns="http://www.w3.org/2000/svg" viewBox="0 0 40 40"><defs><style>.a{fill:#fff;}</style></defs><title>PICTOS_BORNE_</title><path class="a" d="M26.18,37a3.51,3.51,0,0,1-1.09-.18L20,34.64l-1.09.46a.5.5,0,0,1-.38-.92l1.29-.54a.5.5,0,0,1,.39,0l5.24,2.2a1.75,1.75,0,0,0,2.32-1,1.53,1.53,0,0,0,0-1.29,3.68,3.68,0,0,0-2-1.54.5.5,0,0,1,0-.93L31,28.81a2.19,2.19,0,0,0,.78-3,.5.5,0,0,1,.26-.71c.41-.16.92-.43,1-.83a1.51,1.51,0,0,0-.4-1.09l-3.35-3a.48.48,0,0,1-.11-.14l-3.06-5.79a1.39,1.39,0,0,0-1.36-.89H15.32a1.39,1.39,0,0,0-1.43.88l-3.06,5.8a.48.48,0,0,1-.11.14l-3.38,3A1.43,1.43,0,0,0,7,24.3c.1.41.6.68,1,.83a.5.5,0,0,1,.26.71,2.2,2.2,0,0,0,.85,3l5.14,2.24a.5.5,0,0,1,0,.93,3.78,3.78,0,0,0-2,1.55,1.52,1.52,0,0,0,0,1.27,1.77,1.77,0,0,0,2.36,1,.5.5,0,1,1,.31,1,2.74,2.74,0,0,1-3.6-1.56,2.48,2.48,0,0,1,0-2.05,3.78,3.78,0,0,1,1.54-1.59L8.63,29.73a3.18,3.18,0,0,1-1.47-3.88A2.06,2.06,0,0,1,6,24.52a2.42,2.42,0,0,1,.64-2l3.35-3,3-5.71a2.35,2.35,0,0,1,2.4-1.41h9.28A2.34,2.34,0,0,1,27,13.81l3,5.7,3.31,3a2.43,2.43,0,0,1,.67,2,2.06,2.06,0,0,1-1.15,1.33,3.15,3.15,0,0,1-1.41,3.84l-4.27,1.88a3.78,3.78,0,0,1,1.54,1.59,2.5,2.5,0,0,1,0,2.07A2.71,2.71,0,0,1,26.18,37ZM14.27,27.58a.49.49,0,0,1-.23-.06c-3.38-1.77-4.23-1.94-4.35-2a.48.48,0,0,1-.47-.26.5.5,0,0,1,.11-.61L12,22.35l1.35-2.13a.5.5,0,0,1,.92.23l.48,6.6a.5.5,0,0,1-.5.54Zm-3.58-2.75a31.38,31.38,0,0,1,3,1.39L13.4,22l-.58.91a.52.52,0,0,1-.09.11Zm15,2.75a.5.5,0,0,1-.5-.54l.48-6.6a.51.51,0,0,1,.54-.46.5.5,0,0,1,.46.54l-.42,5.71c3.55-1.81,4-1.68,4.18-1.64a.5.5,0,0,1,.35.62.51.51,0,0,1-.51.36c-.11,0-1,.18-4.35,2A.49.49,0,0,1,25.73,27.58Z"/><path class="a" d="M20,11.1a3.6,3.6,0,1,1,3.6-3.6A3.61,3.61,0,0,1,20,11.1Zm0-6.21a2.6,2.6,0,1,0,2.6,2.6A2.61,2.61,0,0,0,20,4.89Z"/><circle class="a" cx="16.75" cy="35.58" r="0.61"/></svg>