<?xml version="1.0" encoding="UTF-8"?>
<svg width="28px" height="28px" viewBox="0 0 28 28" version="1.1" xmlns="http://www.w3.org/2000/svg" xmlns:xlink="http://www.w3.org/1999/xlink">
    <!-- Generator: Sketch 43.2 (39069) - http://www.bohemiancoding.com/sketch -->
    <title>code</title>
    <desc>Created with Sketch.</desc>
    <defs></defs>
    <g id="Symbols" stroke="none" stroke-width="1" fill="none" fill-rule="evenodd">
        <g id="icon-code" transform="translate(1.000000, 1.000000)" fill-rule="nonzero" fill="#212B31">
            <g transform="translate(-1.000000, -1.000000)" id="code">
                <g>
                    <path d="M4,8 C1.790861,8 0,6.209139 0,4 C0,1.790861 1.790861,0 4,0 C6.209139,0 8,1.790861 8,4 C8,6.209139 6.209139,8 4,8 Z M4,6 C5.1045695,6 6,5.1045695 6,4 C6,2.8954305 5.1045695,2 4,2 C2.8954305,2 2,2.8954305 2,4 C2,5.1045695 2.8954305,6 4,6 Z" id="Oval"></path>
                    <path d="M14,8 C11.790861,8 10,6.209139 10,4 C10,1.790861 11.790861,0 14,0 C16.209139,0 18,1.790861 18,4 C18,6.209139 16.209139,8 14,8 Z M14,6 C15.1045695,6 16,5.1045695 16,4 C16,2.8954305 15.1045695,2 14,2 C12.8954305,2 12,2.8954305 12,4 C12,5.1045695 12.8954305,6 14,6 Z" id="Oval"></path>
                    <path d="M24,8 C21.790861,8 20,6.209139 20,4 C20,1.790861 21.790861,0 24,0 C26.209139,0 28,1.790861 28,4 C28,6.209139 26.209139,8 24,8 Z M24,6 C25.1045695,6 26,5.1045695 26,4 C26,2.8954305 25.1045695,2 24,2 C22.8954305,2 22,2.8954305 22,4 C22,5.1045695 22.8954305,6 24,6 Z" id="Oval"></path>
                    <path d="M4,18 C1.790861,18 0,16.209139 0,14 C0,11.790861 1.790861,10 4,10 C6.209139,10 8,11.790861 8,14 C8,16.209139 6.209139,18 4,18 Z M4,16 C5.1045695,16 6,15.1045695 6,14 C6,12.8954305 5.1045695,12 4,12 C2.8954305,12 2,12.8954305 2,14 C2,15.1045695 2.8954305,16 4,16 Z" id="Oval"></path>
                    <path d="M14,18 C11.790861,18 10,16.209139 10,14 C10,11.790861 11.790861,10 14,10 C16.209139,10 18,11.790861 18,14 C18,16.209139 16.209139,18 14,18 Z M14,16 C15.1045695,16 16,15.1045695 16,14 C16,12.8954305 15.1045695,12 14,12 C12.8954305,12 12,12.8954305 12,14 C12,15.1045695 12.8954305,16 14,16 Z" id="Oval"></path>
                    <path d="M24,18 C21.790861,18 20,16.209139 20,14 C20,11.790861 21.790861,10 24,10 C26.209139,10 28,11.790861 28,14 C28,16.209139 26.209139,18 24,18 Z M24,16 C25.1045695,16 26,15.1045695 26,14 C26,12.8954305 25.1045695,12 24,12 C22.8954305,12 22,12.8954305 22,14 C22,15.1045695 22.8954305,16 24,16 Z" id="Oval"></path>
                    <path d="M4,28 C1.790861,28 0,26.209139 0,24 C0,21.790861 1.790861,20 4,20 C6.209139,20 8,21.790861 8,24 C8,26.209139 6.209139,28 4,28 Z M4,26 C5.1045695,26 6,25.1045695 6,24 C6,22.8954305 5.1045695,22 4,22 C2.8954305,22 2,22.8954305 2,24 C2,25.1045695 2.8954305,26 4,26 Z" id="Oval"></path>
                    <path d="M14,28 C11.790861,28 10,26.209139 10,24 C10,21.790861 11.790861,20 14,20 C16.209139,20 18,21.790861 18,24 C18,26.209139 16.209139,28 14,28 Z M14,26 C15.1045695,26 16,25.1045695 16,24 C16,22.8954305 15.1045695,22 14,22 C12.8954305,22 12,22.8954305 12,24 C12,25.1045695 12.8954305,26 14,26 Z" id="Oval"></path>
                    <path d="M24,28 C21.790861,28 20,26.209139 20,24 C20,21.790861 21.790861,20 24,20 C26.209139,20 28,21.790861 28,24 C28,26.209139 26.209139,28 24,28 Z M24,26 C25.1045695,26 26,25.1045695 26,24 C26,22.8954305 25.1045695,22 24,22 C22.8954305,22 22,22.8954305 22,24 C22,25.1045695 22.8954305,26 24,26 Z" id="Oval"></path>
                </g>
            </g>
        </g>
    </g>
</svg>