<?xml version="1.0" encoding="UTF-8"?>
<svg width="34px" height="64px" viewBox="0 0 34 64" version="1.1" xmlns="http://www.w3.org/2000/svg" xmlns:xlink="http://www.w3.org/1999/xlink">
    <!-- Generator: Sketch 43.2 (39069) - http://www.bohemiancoding.com/sketch -->
    <title>danse</title>
    <desc>Created with Sketch.</desc>
    <defs></defs>
    <g id="UX-UI" stroke="none" stroke-width="1" fill="none" fill-rule="evenodd">
        <g id="09-01-Filtres-catégories" transform="translate(-415.000000, -385.000000)" fill-rule="nonzero" fill="#A7CD45">
            <g id="filtres-tuile" transform="translate(325.000000, 206.000000)">
                <g id="filtre-/-barre-au-sol" transform="translate(0.000000, 143.000000)">
                    <g id="danse" transform="translate(90.000000, 36.000000)">
                        <path d="M11.2976842,15.9924211 C11.2976842,18.6416842 13.4534737,20.7966316 16.1027368,20.7966316 C18.7528421,20.7966316 20.9086316,18.6416842 20.9086316,15.9924211 C20.9086316,13.3431579 18.7528421,11.1873684 16.1027368,11.1873684 C13.4534737,11.1873684 11.2976842,13.3431579 11.2976842,15.9924211 Z M16.1027368,13.0391579 C17.7313684,13.0391579 19.056,14.3637895 19.056,15.9924211 C19.056,17.6202105 17.7313684,18.9448421 16.1027368,18.9448421 C14.4749474,18.9448421 13.1511579,17.6202105 13.1511579,15.9924211 C13.1503158,14.3646316 14.4741053,13.0391579 16.1027368,13.0391579 Z" id="Shape"></path>
                        <path d="M31.2901053,25.9924211 C31.2505263,25.9789474 31.2092632,25.9688421 31.168,25.9604211 L20.7957895,23.9578947 L10.7317895,20.4623158 L10.368,13.1553684 C11.2345263,9.70105263 12.6534737,4.16926316 12.8530526,3.66484211 C13.2564211,2.88757895 13.2210526,1.96715789 12.7562105,1.20336842 C12.3208421,0.485894737 11.5755789,0.0412631579 10.8092632,0.0412631579 C10.3461053,0.0412631579 9.46694737,0.208 8.78231579,1.32378947 C8.21136842,2.25347368 4.94147368,11.0164211 4.688,11.7330526 C4.25178947,12.9633684 3.15368421,21.4349474 3.15452632,22.0665263 C3.13515789,22.2905263 2.86484211,23.2 2.62736842,24.0025263 C2.21052632,25.4088421 1.64042105,27.3355789 1.33389474,28.9987368 C0.775578947,32.0210526 0.0117894737,36.1591579 0.455578947,39.824 C0.906947368,43.5545263 8.37136842,61.712 8.42357895,61.8341053 C8.85726316,63.1435789 9.86357895,63.9570526 11.0501053,63.9570526 C11.8231579,63.9570526 12.5465263,63.5941053 13.0341053,62.9616842 C13.6682105,62.1389474 13.8315789,60.976 13.5048421,59.7355789 L11.1772632,48.4084211 L9.36842105,40.384 L15.3541053,38.9945263 C13.8829474,46.6214737 13.8829474,46.7722105 13.8846316,46.8252632 C13.8374737,47.6303158 14.1044211,48.384 14.6349474,48.9465263 C15.1461053,49.4888421 15.8543158,49.7995789 16.5776842,49.7995789 C17.7953684,49.7995789 18.7713684,48.9322105 19.0753684,47.584 L23.0113684,35.5023158 C23.4703158,34.1061053 22.9827368,32.5894737 21.8223158,31.7482105 C21.2277895,31.2858947 20.5212632,31.0416842 19.7785263,31.0416842 C19.3818947,31.0416842 18.9869474,31.1090526 18.6517895,31.2345263 L11.8913684,32.4572632 L11.8837895,32.4117895 L13.7886316,28.3806316 L20.3890526,29.7431579 L29.8315789,30.8623158 L29.8905263,30.8682105 C30.1381053,30.9178947 30.3873684,30.9423158 30.6315789,30.9423158 C31.9882105,30.9423158 33.0113684,30.1675789 33.3027368,28.9187368 C33.6378947,27.4829474 32.5330526,26.4143158 31.2901053,25.9924211 Z M31.4989474,28.5002105 C31.4071579,28.8934737 31.1157895,29.0922105 30.6324211,29.0922105 C30.5002105,29.0922105 30.3637895,29.0762105 30.2256842,29.0467368 C30.192,29.04 30.1583158,29.0341053 30.1246316,29.0307368 L20.6863158,27.9174737 L13.4509474,26.4210526 C13.0357895,26.3334737 12.6088421,26.5448421 12.4261053,26.9322105 L10.0867368,31.8837895 C10.0058947,32.0538947 9.97978947,32.2450526 10.0101053,32.4303158 L10.2181053,33.6884211 C10.2585263,33.9326316 10.3957895,34.1515789 10.5987368,34.2947368 C10.8016842,34.4362105 11.0534737,34.4926316 11.2976842,34.4488421 L19.0736842,33.0416842 C19.1418947,33.0290526 19.2092632,33.0096842 19.2724211,32.9827368 C19.3667368,32.9423158 19.5562105,32.8951579 19.7802105,32.8951579 C20.1069474,32.8951579 20.4202105,33.0054737 20.7115789,33.2303158 C21.2421053,33.6151579 21.4593684,34.2964211 21.2522105,34.9271579 L17.3010526,47.0543158 C17.2909474,47.0854737 17.2825263,47.1174737 17.2757895,47.1503158 C17.1991579,47.5141053 17.0155789,47.9469474 16.5793684,47.9469474 C16.3671579,47.9469474 16.1448421,47.8458947 15.984,47.6757895 C15.8661053,47.5511579 15.7313684,47.3347368 15.7347368,46.9557895 C15.8138947,46.4269474 16.7949474,41.3111579 17.4450526,37.9477895 C17.5048421,37.6395789 17.4037895,37.3229474 17.1781053,37.1048421 C16.9524211,36.8858947 16.6307368,36.7966316 16.3258947,36.8698947 L8.05389474,38.7898947 C7.55789474,38.9052632 7.24715789,39.3995789 7.35915789,39.8955789 L9.36673684,48.8008421 L11.7018947,60.1591579 C11.8888421,60.8698947 11.84,61.4795789 11.568,61.8315789 C11.4324211,62.0084211 11.2488421,62.1052632 11.0509474,62.1052632 C10.6837895,62.1052632 10.3595789,61.7861053 10.16,61.1907368 C8.22989474,56.5044211 2.64252632,42.4783158 2.29473684,39.6025263 C1.88547368,36.2172632 2.61978947,32.24 3.15621053,29.3355789 C3.44505263,27.7684211 4,25.8964211 4.40421053,24.5288421 C4.83284211,23.0821053 5.00715789,22.4791579 5.00715789,22.0985263 C5.02652632,21.2867368 6.13389474,13.1991579 6.43452632,12.352 C6.96673684,10.848 9.952,2.98105263 10.3612632,2.29305263 C10.512,2.04715789 10.6837895,1.89389474 10.8092632,1.89389474 C10.9263158,1.89389474 11.0753684,2.00505263 11.1730526,2.16421053 C11.2328421,2.26357895 11.3574737,2.52463158 11.2084211,2.81178947 C10.9574737,3.29768421 9.61768421,8.53221053 8.53810526,12.8378947 C8.51621053,12.9263158 8.50694737,13.0181053 8.51115789,13.1090526 L8.91284211,21.1772632 C8.93136842,21.5545263 9.17726316,21.8821053 9.53431579,22.0058947 L20.2517895,25.7288421 C20.2938947,25.744 20.3368421,25.7549474 20.3797895,25.7633684 L30.7477895,27.7642105 C31.0138947,27.8686316 31.5781053,28.16 31.4989474,28.5002105 Z" id="Shape"></path>
                    </g>
                </g>
            </g>
        </g>
    </g>
</svg>