<svg xmlns="http://www.w3.org/2000/svg" viewBox="0 0 40 40"><defs><style>.a{fill:#fff;}</style></defs><title>PICTOS_BORNE_</title><path class="a" d="M21.66,13.22a.52.52,0,0,0,.29-.68l-3.22-8a.52.52,0,0,0-1,.17l-.45,9.46-4.09-3.88a.52.52,0,0,0-.87.47l.88,4.68L6.82,14.29a.51.51,0,0,0-.56.29.52.52,0,0,0,.13.62l5.91,5.08L3.77,23.12a.52.52,0,0,0,.16,1H4l9.84-.39L7.87,33.19a.52.52,0,0,0,.72.72L11,32.38a.52.52,0,0,0-.55-.88l-.53.33,5.17-8.25a.51.51,0,0,0,.19-.41.53.53,0,0,0-.54-.5l-7.21.28,5.94-2a.52.52,0,0,0,.17-.89L8.51,15.65l5.24.94a.51.51,0,0,0,.46-.15.52.52,0,0,0,.14-.46l-.72-3.84,3.75,3.55a.52.52,0,0,0,.88-.35l.39-8.21L21,12.94A.52.52,0,0,0,21.66,13.22Z"/><path class="a" d="M37.66,20.81,28.77,19.2l2.4-2.58a.52.52,0,0,0-.46-.87L27,16.33l5.41-8.11a.52.52,0,0,0-.72-.72L21,14.45a.52.52,0,1,0,.57.87l8.54-5.56-4.66,7a.52.52,0,0,0,0,.57.52.52,0,0,0,.52.23l3.4-.53-2,2.17a.52.52,0,0,0,.29.87l6.9,1.25-7.11,1.2-1.56.17a.52.52,0,0,0-.38.79l1,1.55,3.25,4.5-4.65-3.28a.52.52,0,0,0-.6.85l7.2,5.08a.52.52,0,0,0,.72-.73l-5.06-7-.52-.82,10.84-1.78a.52.52,0,0,0,0-1Z"/><path class="a" d="M17,37a.52.52,0,0,1-.27-.07c-.35-.2-.55-.32.55-8.49l-.84.52a.52.52,0,0,1-.55-.88L17.72,27a.52.52,0,0,1,.79.51c-.32,2.37-.64,4.92-.83,6.69.89-1.9,2.22-4.82,3.14-6.89a.53.53,0,0,1,.49-.31.52.52,0,0,1,.47.33l1.58,4.06L23,27.55A.52.52,0,0,1,23.5,27a.51.51,0,0,1,.56.47l.65,7.45a.52.52,0,0,1-1,.23l-2.45-6.29c-3.47,7.74-3.77,8-3.89,8A.55.55,0,0,1,17,37Z"/><path class="a" d="M22.57,20.63l-1-.41.44-1a.36.36,0,0,0-.49-.46l-1,.54-.39-.81a.36.36,0,0,0-.67.11l-.15,1.08-.93-.17a.37.37,0,0,0-.37.17.35.35,0,0,0,0,.41l.55.67-.52.13a.36.36,0,0,0,0,.69l.7.16-.38.64a.36.36,0,0,0,.49.49l.61-.36-.08.55a.35.35,0,0,0,.21.38.35.35,0,0,0,.15,0,.35.35,0,0,0,.27-.13l1-1.15.63.65a.36.36,0,0,0,.58-.39l-.49-1.13.74-.06a.36.36,0,0,0,.11-.68Z"/></svg>