<svg xmlns="http://www.w3.org/2000/svg" viewBox="0 0 40 40"><defs><style>.a{fill:#fff;}</style></defs><title>PICTOS_BORNE_</title><path class="a" d="M33.09,20.94a9.18,9.18,0,0,0-.65-1.39L30.7,16.82a.5.5,0,1,0-.84.54l1.72,2.7a8.32,8.32,0,0,1,1.08,4.06,8.23,8.23,0,0,1-7.53,8.16,8.38,8.38,0,0,1-1.33,0,8.2,8.2,0,0,1-6.46-12.2l3.12-4.89,0,0,4-6.23,2.9,4.55a.5.5,0,1,0,.84-.54L24.89,7.71a.52.52,0,0,0-.84,0l-4,6.24L16.23,8a.52.52,0,0,0-.84,0l-4.54,7.11a5.76,5.76,0,0,0-.4.85,5.68,5.68,0,0,0-.36,2,5.74,5.74,0,0,0,5.2,5.68c0,.18,0,.36,0,.54a9.24,9.24,0,0,0,8.45,9.16c.25,0,.49,0,.74,0s.5,0,.74,0a9.17,9.17,0,0,0,7.88-12.34Zm-22-3a4.79,4.79,0,0,1,.61-2.31l4.1-6.43,3.66,5.73-3,4.68a9.08,9.08,0,0,0-.64,1.37,9.37,9.37,0,0,0-.44,1.65A4.73,4.73,0,0,1,11.1,17.9Z"/><circle class="a" cx="29.01" cy="15.27" r="0.53"/></svg>