<svg xmlns="http://www.w3.org/2000/svg" viewBox="0 0 40 40"><defs><style>.a{fill:#fff;}</style></defs><title>PICTOS_BORNE_</title><path class="a" d="M31.29,17.29a81.18,81.18,0,0,0-4-9.59l-.06-.09c-.07-.09-1.83-2.19-7.13-2.33a.43.43,0,0,0-.22,0,5.1,5.1,0,0,0-2.65,3.13c-.6,2.28.43,3.39.55,3.51.32.32.8.47,2.24.28.43-.06.81-.09,1.14-.11.87-.07,1.44-.11,1.73-.58a5.48,5.48,0,0,0,.25-.49,5.79,5.79,0,0,1,1.25,1.65,11.3,11.3,0,0,1,.7,3.87,10.45,10.45,0,0,1-.94,3.06l-1.17,3a.49.49,0,0,0,0,.18,5.35,5.35,0,0,0-2.34-1,10.69,10.69,0,0,0-3.34.09,6.5,6.5,0,0,0-3.83-2.56,8.8,8.8,0,0,0-5,.16.5.5,0,0,0,.36.93,8,8,0,0,1,4.47-.12,5.43,5.43,0,0,1,3,1.87,10.81,10.81,0,0,0-2.84,1.48.5.5,0,0,0,.58.81,8.74,8.74,0,0,1,6.55-1.68c1.63.17,3.81,2.42,4.51,3.27a.5.5,0,0,0,.77-.64,16.61,16.61,0,0,0-2.21-2.16.48.48,0,0,0,.33-.28l1.16-3a11.24,11.24,0,0,0,1-3.49,11.94,11.94,0,0,0-.79-4.25,7.11,7.11,0,0,0-1.72-2.19L24,9.2A.5.5,0,1,0,23,8.81l-.45,1.06,0,0a.49.49,0,0,0-.09.27c-.17.39-.32.71-.38.81a3.76,3.76,0,0,1-1,.14c-.34,0-.74.06-1.19.12-1.22.16-1.39,0-1.4,0s-.75-.78-.29-2.55a4.11,4.11,0,0,1,2-2.42c4.34.15,6,1.69,6.22,1.93a80.57,80.57,0,0,1,3.9,9.39c1.54,4.54,1.31,10.68,1.25,12l-.22.14A17,17,0,0,1,28.47,31a.5.5,0,0,0,.35.94,17.94,17.94,0,0,0,3.1-1.4l.42-.28a.5.5,0,0,0,.22-.38C32.59,29.6,33.07,22.55,31.29,17.29Z"/><path class="a" d="M21.93,32.87a14.74,14.74,0,0,1-3.15.27,11.9,11.9,0,0,1-6.59-2.31l-.07,0c.13-.18.24-.33.32-.43a.5.5,0,0,0-.78-.63c-.62.76-2.56,3.88-2.64,4a.5.5,0,1,0,.85.53s.93-1.5,1.7-2.66a12.7,12.7,0,0,0,7.17,2.52h.44a17.17,17.17,0,0,0,2.93-.29.5.5,0,1,0-.17-1Z"/><path class="a" d="M20.9,17.43v-3a.5.5,0,1,0-1,0v3a.5.5,0,0,0,1,0Z"/><path class="a" d="M16.1,16.57a.5.5,0,0,0,.5-.5V14.75a.5.5,0,0,0-1,0v1.32A.5.5,0,0,0,16.1,16.57Z"/><path class="a" d="M18.72,18.49v-3a.5.5,0,1,0-1,0v3a.5.5,0,0,0,1,0Z"/><circle class="a" cx="25.44" cy="32.47" r="0.54"/></svg>