<?xml version="1.0" encoding="UTF-8"?>
<svg width="32px" height="57px" viewBox="0 0 32 57" version="1.1" xmlns="http://www.w3.org/2000/svg" xmlns:xlink="http://www.w3.org/1999/xlink">
    <!-- Generator: Sketch 43.2 (39069) - http://www.bohemiancoding.com/sketch -->
    <title>Shape</title>
    <desc>Created with Sketch.</desc>
    <defs></defs>
    <g id="UX-UI" stroke="none" stroke-width="1" fill="none" fill-rule="evenodd">
        <g id="04-02-Mire-cours" transform="translate(-670.000000, -497.000000)" fill-rule="nonzero" fill="#FFFFFF">
            <g id="Group-6" transform="translate(-473.000000, -222.000000)">
                <g id="son-voix" transform="translate(1074.000000, 656.000000)">
                    <g id="noun_960540" transform="translate(69.000000, 63.000000)">
                        <path d="M15.9956672,0 C10.7009519,0 6.39849174,4.35440906 6.39849174,9.71305396 L6.39849174,27.8439865 C6.39849174,33.2025667 10.7009519,37.5569757 15.9956672,37.5569757 C21.2903825,37.5569757 25.5929099,33.2025667 25.5929099,27.8439865 L25.5929099,9.71305396 C25.5929099,4.35440906 21.2903825,0 15.9956672,0 Z M15.9956672,2.59013045 C19.9168797,2.59013045 23.0336162,5.7445606 23.0336162,9.71305396 L23.0336162,27.8439865 C23.0336162,31.8124799 19.9168797,34.9668453 15.9956672,34.9668453 C12.0745187,34.9668453 8.95772147,31.8124799 8.95772147,27.8439865 L8.95772147,9.71305396 C8.95772147,5.7445606 12.0745187,2.59013045 15.9956672,2.59013045 Z M30.5514335,25.1121788 C29.8506101,25.1966789 29.3496784,25.8394525 29.4317545,26.5489019 C29.4317545,34.0742776 23.4313758,40.1269619 15.9956672,40.1269619 C8.56002582,40.1269619 2.55958314,34.0742776 2.55958314,26.5489019 C2.56828619,26.1719707 2.4142683,25.8099113 2.13774446,25.5572598 C1.86122063,25.3046083 1.48964288,25.1864466 1.12003242,25.2336276 C0.468740725,25.3165455 -0.0149546961,25.8847371 0.000353414523,26.5489019 C0.000353414523,35.0386782 6.49321165,41.995395 14.7160524,42.6563355 C14.7152187,42.6833176 14.7152187,42.7103194 14.7160524,42.7373014 L14.7160524,55.6879537 C14.710053,56.1546591 14.9526317,56.5885346 15.3510217,56.8236577 C15.7494117,57.0587808 16.2419868,57.0587808 16.6403767,56.8236577 C17.0387667,56.5885346 17.2813454,56.1546591 17.2753461,55.6879537 L17.2753461,42.7373014 C17.2761798,42.7103194 17.2761798,42.6833176 17.2753461,42.6563355 C25.498126,41.995395 31.9910482,35.0386782 31.9910482,26.5489019 C32.0377007,26.1515891 31.9002966,25.7547579 31.6187998,25.4738265 C31.337303,25.1928951 30.9433174,25.0594039 30.5514335,25.1121788 L30.5514335,25.1121788 Z" id="Shape"></path>
                    </g>
                </g>
            </g>
        </g>
    </g>
</svg>