<svg width="100px" height="100px" viewBox="0 0 100 100">
  <path d="M50,100 C22.3857625,100 0,77.6142375 0,50 C0,22.3857625 22.3857625,0 50,0 C77.6142375,0 100,22.3857625 100,50 C100,77.6142375 77.6142375,100 50,100 Z M50,96 C75.4050985,96 96,75.4050985 96,50 C96,24.5949015 75.4050985,4 50,4 C24.5949015,4 4,24.5949015 4,50 C4,75.4050985 24.5949015,96 50,96 Z M79.3134294,68.3283979 C80.089892,69.1140057 80.0824785,70.3803139 79.2968707,71.1567766 C78.5112629,71.9332392 77.2449547,71.9258256 76.468492,71.1402179 C69.467465,64.0567332 59.9561223,60 49.7961804,60 C39.7762699,60 30.3851413,63.9449653 23.4074441,70.8563365 C22.6226746,71.6336464 21.3563591,71.6275992 20.5790492,70.8428297 C19.8017393,70.0580602 19.8077865,68.7917447 20.5925559,68.0144348 C28.3118725,60.3684937 38.7112254,56 49.7961804,56 C61.0361413,56 71.5684366,60.4921851 79.3134294,68.3283979 Z" fill="#fff"></path>
</svg>
