<?xml version="1.0" encoding="UTF-8"?>
<svg width="41px" height="42px" viewBox="0 0 41 42" version="1.1" xmlns="http://www.w3.org/2000/svg" xmlns:xlink="http://www.w3.org/1999/xlink">
    <!-- Generator: Sketch 43.2 (39069) - http://www.bohemiancoding.com/sketch -->
    <title>schedule</title>
    <desc>Created with Sketch.</desc>
    <defs></defs>
    <g id="UX-UI" stroke="none" stroke-width="1" fill="none" fill-rule="evenodd">
        <g id="03-01-Fiche-cours-/-1-cours" transform="translate(-878.000000, -612.000000)" fill="#FFFFFF">
            <g id="CTA---Réserver" transform="translate(854.000000, 585.000000)">
                <path d="M64.2291667,35.71875 L61.6041667,38.8125 L52.4166667,31.125 L55.0416667,28.03125 L64.2291667,35.71875 Z M35.8229167,31.03125 L26.7291667,38.8125 L24.1041667,35.71875 L33.1979167,27.9375 L35.8229167,31.03125 Z M45.1979167,40.21875 L45.1979167,50.625 L53.1666667,55.3125 L51.6666667,57.84375 L42.1979167,52.125 L42.1979167,40.21875 L45.1979167,40.21875 Z M44.1666667,32.25 C49.1666917,32.25 53.432274,33.9999825 56.9635417,37.5 C60.4948093,41.0000175 62.2604167,45.2187253 62.2604167,50.15625 C62.2604167,55.0937747 60.4948093,59.3124825 56.9635417,62.8125 C53.432274,66.3125175 49.1666917,68.0625 44.1666667,68.0625 C39.1666417,68.0625 34.9010593,66.3125175 31.3697917,62.8125 C27.838524,59.3124825 26.0729167,55.0937747 26.0729167,50.15625 C26.0729167,45.2187253 27.838524,41.0000175 31.3697917,37.5 C34.9010593,33.9999825 39.1666417,32.25 44.1666667,32.25 Z M44.1666667,64.125 C48.0416861,64.125 51.3541529,62.7656386 54.1041667,60.046875 C56.8541804,57.3281114 58.2291667,54.0312694 58.2291667,50.15625 C58.2291667,46.3437309 56.8541804,43.0625138 54.1041667,40.3125 C51.3541529,37.5624862 48.0416861,36.1875 44.1666667,36.1875 C40.2916473,36.1875 36.9791804,37.5624862 34.2291667,40.3125 C31.4791529,43.0625138 30.1041667,46.3437309 30.1041667,50.15625 C30.1041667,53.9687691 31.4791529,57.2499862 34.2291667,60 C36.9791804,62.7500138 40.2916473,64.125 44.1666667,64.125 Z" id="schedule"></path>
            </g>
        </g>
    </g>
</svg>