<?xml version="1.0" encoding="UTF-8"?>
<svg width="55px" height="30px" viewBox="0 0 55 30" version="1.1" xmlns="http://www.w3.org/2000/svg" xmlns:xlink="http://www.w3.org/1999/xlink">
    <!-- Generator: Sketch 43.2 (39069) - http://www.bohemiancoding.com/sketch -->
    <title>strech</title>
    <desc>Created with Sketch.</desc>
    <defs></defs>
    <g id="UX-UI" stroke="none" stroke-width="1" fill="none" fill-rule="evenodd">
        <g id="09-01-Filtres-catégories" transform="translate(-616.000000, -402.000000)" fill-rule="nonzero" fill="#A7CD45">
            <g id="filtres-tuile" transform="translate(325.000000, 206.000000)">
                <g id="filtre-/-cuisse-fessier" transform="translate(212.000000, 143.000000)">
                    <path d="M133.975548,74.6723327 C133.879589,73.5329164 133.492732,72.4275012 132.859555,71.4769802 C127.536486,63.4965326 119.483502,57.812296 110.183055,55.4684835 C108.425573,55.0242018 106.598578,55.2931886 105.042081,56.2240646 C103.485584,57.1534293 102.383947,58.6351238 101.941176,60.3933611 C101.705435,61.3287705 101.68579,62.307248 101.856551,63.2555023 C101.413025,63.8509002 100.961943,64.441009 100.498016,65.0228065 C101.073769,63.8969906 101.404713,62.6253476 101.404713,61.2758798 C101.404713,56.7121699 97.6925435,53 93.1288337,53 C88.5651238,53 84.8521983,56.7121699 84.8521983,61.2758798 C84.8521983,65.8395896 88.5651238,69.5517596 93.1288337,69.5517596 C94.9656513,69.5517596 96.658153,68.9435168 98.0317994,67.9272602 C97.1130128,68.9571172 96.169292,69.9620401 95.1938368,70.9314506 C90.918759,71.2835514 86.6701264,71.9673523 82.4819404,72.9858757 C81.3002116,73.2729965 80.2990666,74.0036434 79.6666452,75.0425674 C79.0334683,76.082247 78.8430618,77.3062884 79.1309382,78.4895284 C79.636422,80.5703987 81.504974,81.9689793 83.5578879,81.9689793 C83.9122554,81.9689793 84.2726676,81.9266668 84.6330798,81.839775 C86.2394452,81.448384 87.8571443,81.1242397 89.4801325,80.8439191 C90.2432695,81.9228889 91.4786446,82.5469989 92.7646436,82.5469989 C93.3298182,82.5469989 93.9040599,82.4276171 94.4495894,82.1744974 C94.7525775,82.0332037 95.0366759,81.8548866 95.2935735,81.6455906 C95.2943291,81.6455906 95.2950847,81.6440795 95.2950847,81.6440795 C95.9841746,81.0849495 96.658153,80.5076855 97.3260867,79.9236213 C100.583397,79.7181033 103.855063,79.7165921 107.126729,79.9455332 C112.30246,81.4529175 117.611928,82.2137876 122.965976,82.2137876 C124.567052,82.2137876 126.172662,82.1457853 127.779783,82.0090251 C129.587888,81.8563978 131.226744,81.0093914 132.397139,79.6236556 C133.56829,78.2356531 134.12742,76.4781715 133.975548,74.6723327 Z M93.1288337,67.7383649 C89.5647576,67.7383649 86.6655929,64.8392002 86.6655929,61.2751242 C86.6655929,57.7110482 89.5647576,54.8118835 93.1288337,54.8118835 C96.6929097,54.8118835 99.5920744,57.7110482 99.5920744,61.2751242 C99.5920744,64.8392002 96.6929097,67.7383649 93.1288337,67.7383649 Z M91.7710544,80.4857736 C92.5840597,80.3731921 93.397065,80.2719442 94.2130925,80.1850524 C94.1926919,80.2016752 94.1730468,80.2198091 94.1526461,80.2364319 C94.1526461,80.2364319 94.1526461,80.2371875 94.1518905,80.2371875 L94.1518905,80.2371875 C94.0098412,80.3520358 93.8526804,80.4510169 93.6864525,80.5288418 C93.0532756,80.8212517 92.3520963,80.7781835 91.7710544,80.4857736 Z M131.01367,78.4517493 C130.156085,79.4672503 128.954711,80.0875824 127.629422,80.200164 C120.832215,80.7728945 114.075053,80.0928715 107.530965,78.1721843 C107.496964,78.1623618 107.464474,78.169162 107.431984,78.1638729 C107.399494,78.1578283 107.373049,78.1412055 107.340559,78.1381832 C103.908709,77.8926193 100.477615,77.8956416 97.0601221,78.1192936 C97.0291433,78.1170269 96.9989201,78.1245827 96.9679412,78.1253383 C92.6739739,78.4117035 88.4064518,79.0539475 84.2046653,80.0754931 C82.7418603,80.4283495 81.2503432,79.5269412 80.8929533,78.0580916 C80.7199253,77.3463342 80.8347736,76.6096426 81.2155865,75.9832659 C81.5963994,75.3584003 82.1985975,74.9186521 82.9103549,74.745624 C91.0200068,72.7750685 99.3548219,72.0754004 107.68737,72.6639981 C107.697948,72.6647537 107.70626,72.6602202 107.716838,72.6602202 C107.727416,72.6609758 107.73875,72.6662649 107.750839,72.6662649 C107.802219,72.6662649 107.854354,72.6617314 107.905733,72.6526644 C110.554801,72.1962934 113.256759,71.9137061 115.933782,71.8162361 C115.945872,71.8162361 115.955694,71.8094359 115.967784,71.8079247 C116.06072,71.8011245 116.150634,71.7784571 116.236015,71.7437003 C116.26246,71.7323666 116.285883,71.7255664 116.311573,71.7127215 C116.401487,71.6658755 116.485357,71.6084513 116.557892,71.5328932 C116.568471,71.5223151 116.57376,71.5087146 116.584338,71.4973809 C116.625895,71.4482681 116.666696,71.3983998 116.699186,71.3387089 C116.708253,71.3228417 116.706742,71.3031965 116.714298,71.2858182 C116.740743,71.2306608 116.754343,71.172481 116.767188,71.1120345 C116.7823,71.051588 116.795145,70.9941639 116.796656,70.9337174 C116.796656,70.9148279 116.807234,70.8982051 116.805723,70.87856 C116.804212,70.8392698 116.786833,70.8067798 116.780789,70.7682451 C116.770211,70.7085542 116.761899,70.6518856 116.739232,70.5952171 C116.718831,70.5385485 116.687852,70.4894357 116.656874,70.4395674 C116.628917,70.3927213 116.602472,70.348142 116.563937,70.3073407 C116.519358,70.2582279 116.466467,70.2196933 116.412065,70.1819142 C116.382598,70.1607579 116.363708,70.1305347 116.329707,70.1124007 C113.580147,68.638262 110.639426,67.5706259 107.5831,66.9382045 C107.580078,66.937449 107.575544,66.9366934 107.572522,66.9359378 C107.561944,66.9329155 107.55061,66.9298931 107.540032,66.9276264 C107.495453,66.9185594 107.454651,66.9291376 107.410072,66.9268708 C107.34207,66.9230929 107.274067,66.9147815 107.206065,66.9268708 C107.150152,66.9366934 107.101039,66.960872 107.048149,66.9805171 C106.99148,67.0016734 106.934056,67.016785 106.881165,67.049275 C106.827519,67.0832761 106.785962,67.1308777 106.739116,67.1762126 C106.704359,67.2087026 106.662047,67.2306144 106.632579,67.2699046 C105.756105,68.432744 104.835052,69.5759382 103.895109,70.6821089 C101.89433,70.6352629 99.8943068,70.6564191 97.8980616,70.7546447 C99.9162187,68.6322174 101.814238,66.3798301 103.549053,64.026195 C103.55812,64.0141057 103.559631,63.9989941 103.567187,63.9861492 C103.602699,63.9332585 103.623855,63.8750788 103.646523,63.8146323 C103.666923,63.7632528 103.691857,63.71414 103.702436,63.6612493 C103.713014,63.6083586 103.70848,63.5539568 103.709236,63.4987994 C103.709236,63.434575 103.713014,63.3718618 103.699413,63.3083929 C103.696391,63.2940369 103.700924,63.2804364 103.697902,63.2653248 C103.496162,62.4704535 103.496162,61.6302473 103.697902,60.835376 C104.022802,59.5463546 104.829007,58.4613402 105.969934,57.779806 C107.112373,57.0967607 108.44824,56.9010652 109.738017,57.2267207 C118.600984,59.4594628 126.275421,64.8769793 131.347637,72.4811475 C131.812319,73.1785488 132.095662,73.9885318 132.166687,74.8249601 C132.279268,76.1494937 131.868988,77.4377595 131.01367,78.4517493 Z M107.71306,68.8354687 C109.272579,69.1860583 110.798853,69.6613188 112.282059,70.2491609 C110.747474,70.3942325 109.218178,70.5914392 107.703993,70.8506035 C107.194731,70.8150912 106.687736,70.7984684 106.179986,70.772023 C106.700581,70.1343126 107.212865,69.4882907 107.71306,68.8354687 Z" id="strech"></path>
                </g>
            </g>
        </g>
    </g>
</svg>