<?xml version="1.0" encoding="UTF-8"?>
<svg width="42px" height="38px" viewBox="0 0 42 38" version="1.1" xmlns="http://www.w3.org/2000/svg" xmlns:xlink="http://www.w3.org/1999/xlink">
    <!-- Generator: Sketch 43.2 (39069) - http://www.bohemiancoding.com/sketch -->
    <title>Group</title>
    <desc>Created with Sketch.</desc>
    <defs></defs>
    <g id="UX-UI" stroke="none" stroke-width="1" fill="none" fill-rule="evenodd">
        <g id="04-02-Mire-cours" transform="translate(-1080.000000, -510.000000)">
            <g id="Group-6" transform="translate(-473.000000, -222.000000)">
                <g id="sous-titre" transform="translate(1510.000000, 685.000000)">
                    <g id="noun_138768" transform="translate(43.000000, 47.000000)">
                        <g id="Group">
                            <g id="Shape">
                                <path d="M39.3943791,3 L3.67710473,3 C3.29623332,3 3,3.29128739 3,3.66579974 L3,25.7620286 C3,26.136541 3.29623332,26.4278283 3.67710473,26.4278283 L14.9339708,26.4278283 L17.896304,26.4278283 L19.2081944,29.0078023 L22.2551657,35 L28.3491082,29.0078023 L30.9728891,26.4278283 L34.6969651,26.4278283 L39.309741,26.4278283 C39.6906124,26.4278283 39.9868458,26.136541 39.9868458,25.7620286 L39.9868458,3.66579974 C40.0714838,3.29128739 39.7329315,3 39.3943791,3 Z M12.3525091,16.6488947 C12.3525091,16.2743823 12.6487424,15.9830949 13.0296138,15.9830949 L22.2974847,15.9830949 C22.6783562,15.9830949 22.9745895,16.2743823 22.9745895,16.6488947 L22.9745895,17.9388817 C22.9745895,18.313394 22.6783562,18.6046814 22.2974847,18.6046814 L12.9872947,18.6046814 C12.6064233,18.6046814 12.31019,18.313394 12.31019,17.9388817 L12.31019,16.6488947 L12.3525091,16.6488947 Z M5.75073796,16.6488947 C5.75073796,16.2743823 6.04697128,15.9830949 6.42784268,15.9830949 L10.405833,15.9830949 C10.7867044,15.9830949 11.0829377,16.2743823 11.0829377,16.6488947 L11.0829377,17.9388817 C11.0829377,18.313394 10.7867044,18.6046814 10.405833,18.6046814 L6.42784268,18.6046814 C6.04697128,18.6046814 5.75073796,18.313394 5.75073796,17.9388817 L5.75073796,16.6488947 Z M16.3304993,23.1404421 C16.3304993,23.5149545 16.034266,23.8062419 15.6533946,23.8062419 L6.38552364,23.8062419 C6.00465223,23.8062419 5.70841891,23.5149545 5.70841891,23.1404421 L5.70841891,21.8504551 C5.70841891,21.4759428 6.00465223,21.1846554 6.38552364,21.1846554 L15.6533946,21.1846554 C16.034266,21.1846554 16.3304993,21.4759428 16.3304993,21.8504551 L16.3304993,23.1404421 L16.3304993,23.1404421 Z M28.2221511,23.1404421 C28.2221511,23.5149545 27.9259178,23.8062419 27.5450464,23.8062419 L18.2771754,23.8062419 C17.896304,23.8062419 17.6000707,23.5149545 17.6000707,23.1404421 L17.6000707,21.8504551 C17.6000707,21.4759428 17.896304,21.1846554 18.2771754,21.1846554 L27.5450464,21.1846554 C27.9259178,21.1846554 28.2221511,21.4759428 28.2221511,21.8504551 L28.2221511,23.1404421 L28.2221511,23.1404421 Z M37.4900221,23.1404421 C37.4900221,23.5149545 37.1937888,23.8062419 36.8129173,23.8062419 L30.2111462,23.8062419 C29.8302748,23.8062419 29.5340415,23.5149545 29.5340415,23.1404421 L29.5340415,21.8504551 C29.5340415,21.4759428 29.8302748,21.1846554 30.2111462,21.1846554 L36.8129173,21.1846554 C37.1937888,21.1846554 37.4900221,21.4759428 37.4900221,21.8504551 L37.4900221,23.1404421 L37.4900221,23.1404421 Z M37.4900221,17.9388817 C37.4900221,18.313394 37.1937888,18.6046814 36.8129173,18.6046814 L24.9212656,18.6046814 C24.5403942,18.6046814 24.2441608,18.313394 24.2441608,17.9388817 L24.2441608,16.6488947 C24.2441608,16.2743823 24.5403942,15.9830949 24.9212656,15.9830949 L36.8129173,15.9830949 C37.1937888,15.9830949 37.4900221,16.2743823 37.4900221,16.6488947 L37.4900221,17.9388817 L37.4900221,17.9388817 Z"></path>
                                <path d="M5.63492063,19 L9.36507937,19 C9.72222222,19 10,18.6666667 10,18.2380952 L10,16.7619048 C10,16.3333333 9.72222222,16 9.36507937,16 L5.63492063,16 C5.27777778,16 5,16.3333333 5,16.7619048 L5,18.2380952 C5.03968254,18.6666667 5.31746032,19 5.63492063,19 Z" fill="#FFFFFF" fill-rule="nonzero"></path>
                                <path d="M12.7011952,19 L22.2988048,19 C22.6932271,19 23,18.6666667 23,18.2380952 L23,16.7619048 C23,16.3333333 22.6932271,16 22.2988048,16 L12.7011952,16 C12.3067729,16 12,16.3333333 12,16.7619048 L12,18.2380952 C12.0438247,18.6666667 12.3505976,19 12.7011952,19 Z" fill="#FFFFFF" fill-rule="nonzero"></path>
                                <path d="M36.3354633,16 L24.6645367,16 C24.2907348,16 24,16.3333333 24,16.7619048 L24,18.2380952 C24,18.6666667 24.2907348,19 24.6645367,19 L36.3354633,19 C36.7092652,19 37,18.6666667 37,18.2380952 L37,16.7619048 C37,16.3809524 36.6677316,16 36.3354633,16 Z" fill="#FFFFFF" fill-rule="nonzero"></path>
                                <path d="M15.2988048,21 L5.70119522,21 C5.30677291,21 5,21.3333333 5,21.7619048 L5,23.2380952 C5,23.6666667 5.30677291,24 5.70119522,24 L15.2988048,24 C15.6932271,24 16,23.6666667 16,23.2380952 L16,21.7619048 C16,21.3809524 15.6494024,21 15.2988048,21 Z" fill="#FFFFFF" fill-rule="nonzero"></path>
                                <path d="M27.2988048,21 L17.7011952,21 C17.3067729,21 17,21.3333333 17,21.7619048 L17,23.2380952 C17,23.6666667 17.3067729,24 17.7011952,24 L27.2988048,24 C27.6932271,24 28,23.6666667 28,23.2380952 L28,21.7619048 C28,21.3809524 27.6932271,21 27.2988048,21 Z" fill="#FFFFFF" fill-rule="nonzero"></path>
                                <path d="M36.3191489,21 L29.6808511,21 C29.2978723,21 29,21.3333333 29,21.7619048 L29,23.2380952 C29,23.6666667 29.2978723,24 29.6808511,24 L36.3191489,24 C36.7021277,24 37,23.6666667 37,23.2380952 L37,21.7619048 C37,21.3809524 36.6595745,21 36.3191489,21 Z" fill="#FFFFFF" fill-rule="nonzero"></path>
                                <path d="M38.724,0 L3.276,0 C1.47,0 0,1.48212351 0,3.2524377 L0,25.1137595 C0,26.8840737 1.47,28.3250271 3.276,28.3250271 L15.75,28.3250271 L20.412,37.4647887 C20.58,37.8353196 20.916,38 21.21,38 C21.462,38 21.714,37.9176598 21.924,37.6706392 L31.5,28.3250271 L38.724,28.3250271 C40.53,28.3250271 42,26.8840737 42,25.1137595 L42,3.2524377 C42,1.48212351 40.53,0 38.724,0 Z M39.396,25.1137595 C39.396,25.4842904 39.102,25.772481 38.724,25.772481 L34.104,25.772481 L30.408,25.772481 L27.804,28.3250271 L21.714,34.2535211 L18.69,28.3250271 L17.388,25.772481 L14.448,25.772481 L3.276,25.772481 C2.898,25.772481 2.604,25.4842904 2.604,25.1137595 L2.604,3.2524377 C2.604,2.88190683 2.898,2.59371614 3.276,2.59371614 L38.724,2.59371614 C39.102,2.59371614 39.396,2.88190683 39.396,3.2524377 L39.396,25.1137595 Z" fill="#FFFFFF" fill-rule="nonzero"></path>
                            </g>
                        </g>
                    </g>
                </g>
            </g>
        </g>
    </g>
</svg>