<svg width="32px" height="32px" viewBox="0 0 32 32">
    <g id="time-icon" fill="#fff">
        <path d="M16,32 C7.163444,32 0,24.836556 0,16 C0,7.163444 7.163444,0 16,0 C24.836556,0 32,7.163444 32,16 C32,24.836556 24.836556,32 16,32 Z M16,30 C23.7319865,30 30,23.7319865 30,16 C30,8.2680135 23.7319865,2 16,2 C8.2680135,2 2,8.2680135 2,16 C2,23.7319865 8.2680135,30 16,30 Z" id="Oval-2"></path>
        <path d="M15,9 L15,17 C15,17.5522847 15.4477153,18 16,18 C16.5522847,18 17,17.5522847 17,17 L17,9 C17,8.44771525 16.5522847,8 16,8 C15.4477153,8 15,8.44771525 15,9 Z" id="Line"></path>
        <path d="M22,16 L16,16 C15.4477153,16 15,16.4477153 15,17 C15,17.5522847 15.4477153,18 16,18 L22,18 C22.5522847,18 23,17.5522847 23,17 C23,16.4477153 22.5522847,16 22,16 Z" id="Line"></path>
    </g>
</svg>
