<?xml version="1.0" encoding="UTF-8"?>
<svg width="58px" height="60px" viewBox="0 0 58 60" version="1.1" xmlns="http://www.w3.org/2000/svg" xmlns:xlink="http://www.w3.org/1999/xlink">
    <!-- Generator: Sketch 43.2 (39069) - http://www.bohemiancoding.com/sketch -->
    <title>envie-icon-7</title>
    <desc>Created with Sketch.</desc>
    <defs></defs>
    <g id="UX-UI" stroke="none" stroke-width="1" fill="none" fill-rule="evenodd">
        <g id="05-01-envie-de" transform="translate(-829.000000, -627.000000)" stroke="#FFFFFF" stroke-width="2" fill-rule="nonzero">
            <g id="sport-à-2" transform="translate(759.000000, 580.000000)">
                <g id="envie-icon-7" transform="translate(71.000000, 48.000000)">
                    <path d="M24.2771429,14.5828571 C27.5914286,14.5828571 30.2428571,11.9314286 30.2428571,8.61714286 C30.2428571,5.30285714 27.5914286,2.65142857 24.2771429,2.65142857 C20.9628571,2.65142857 18.3114286,5.30285714 18.3114286,8.61714286 C18.3942857,11.9314286 21.0457143,14.5828571 24.2771429,14.5828571 Z M54.52,46.4828571 C54.4371429,46.4828571 52.1171429,44.4942857 49.7142857,41.6771429 C49.5485714,41.4285714 49.1342857,40.8485714 48.5542857,40.1857143 C47.3942857,38.6114286 45.7371429,36.9542857 45.7371429,35.0485714 L45.7371429,32.1485714 C45.7371429,30.3257143 47.3942857,28.6685714 48.4714286,27.0942857 L49.88,25.2714286 C52.2,22.5371429 54.4371429,20.7142857 54.52,20.6314286 C55.2657143,20.0514286 55.3485714,19.0571429 54.7685714,18.3114286 C54.1885714,17.5657143 53.1942857,17.4828571 52.4485714,18.0628571 C52.2,18.2285714 48.8028571,20.9628571 45.9028571,24.94 C41.0971429,31.1542857 35.7942857,27.26 35.7942857,27.26 C35.7942857,35.2142857 42.5057143,41.18 42.5057143,41.18 C46.0685714,44.9085714 52.2,48.72 52.4485714,48.9685714 C52.78,49.2171429 53.1114286,49.3 53.4428571,49.3 C53.94,49.3 54.4371429,49.0514286 54.7685714,48.6371429 C55.3485714,48.14 55.2657143,47.0628571 54.52,46.4828571 Z M46.8971429,52.78 C46.8142857,52.6971429 42.92,49.5485714 39.0257143,44.8257143 C38.6114286,44.3285714 38.28,43.8314286 37.8657143,43.3342857 C35.7942857,40.6 32.5628571,37.3685714 32.5628571,34.1371429 L32.5628571,24.1114286 C32.5628571,20.7971429 35.0485714,18.8085714 36.7057143,16.4057143 L39.3571429,13.0085714 C43.1685714,8.53428571 46.8142857,5.46857143 46.8971429,5.38571429 C48.0571429,4.47428571 48.2228571,2.73428571 47.3114286,1.57428571 C46.4,0.414285714 44.66,0.248571429 43.5,1.16 C43.0857143,1.49142857 37.3685714,6.13142857 32.48,12.9257143 C30.6571429,14.8314286 27.84,17.1514286 24.5257143,17.2342857 C21.6257143,17.4 18.6428571,15.7428571 15.66,12.4285714 C10.9371429,5.88285714 5.38571429,1.49142857 4.97142857,1.16 C3.81142857,0.248571429 2.07142857,0.414285714 1.16,1.57428571 C0.248571429,2.73428571 0.414285714,4.47428571 1.57428571,5.38571429 C1.65714286,5.46857143 5.30285714,8.45142857 9.11428571,12.9257143 L11.4342857,15.8257143 C13.2571429,18.3114286 15.9914286,20.7142857 15.9914286,24.1114286 L15.9914286,34.1371429 C15.9914286,37.2857143 13.1742857,40.02 11.3514286,42.5057143 C10.3571429,43.6657143 9.69428571,44.5771429 9.44571429,44.9085714 C5.55142857,49.5485714 1.74,52.6971429 1.65714286,52.78 C0.497142857,53.6914286 0.331428571,55.4314286 1.24285714,56.5914286 C1.74,57.2542857 2.56857143,57.5857143 3.39714286,57.5857143 C3.97714286,57.5857143 4.55714286,57.42 5.05428571,57.0057143 C5.46857143,56.6742857 10.5228571,52.0342857 15.5771429,45.9028571 C17.3171429,43.9142857 20.3828571,41.18 24.0285714,41.0971429 C27.1771429,40.9314286 30.3257143,42.8371429 33.5571429,46.5657143 C38.6114286,52.4485714 43.1685714,56.6742857 43.5828571,57.0057143 C44.08,57.42 44.66,57.5857143 45.24,57.5857143 C46.0685714,57.5857143 46.8142857,57.2542857 47.3942857,56.5914286 C48.2228571,55.4314286 48.0571429,53.7742857 46.8971429,52.78 Z M40.6828571,19.2228571 C38.6942857,19.2228571 37.0371429,20.88 37.0371429,22.8685714 C37.0371429,24.8571429 38.6942857,26.5142857 40.6828571,26.5142857 C42.6714286,26.5142857 44.3285714,24.8571429 44.3285714,22.8685714 C44.3285714,20.7971429 42.6714286,19.2228571 40.6828571,19.2228571 Z" id="Shape"></path>
                </g>
            </g>
        </g>
    </g>
</svg>