<?xml version="1.0" encoding="UTF-8"?>
<svg width="60px" height="62px" viewBox="0 0 60 62" version="1.1" xmlns="http://www.w3.org/2000/svg" xmlns:xlink="http://www.w3.org/1999/xlink">
    <!-- Generator: Sketch 43.2 (39069) - http://www.bohemiancoding.com/sketch -->
    <title>envie-icon-8</title>
    <desc>Created with Sketch.</desc>
    <defs></defs>
    <g id="UX-UI" stroke="none" stroke-width="1" fill="none" fill-rule="evenodd">
        <g id="05-01-envie-de" transform="translate(-1045.000000, -626.000000)" stroke="#FFFFFF" stroke-width="2" fill-rule="nonzero">
            <g id="courses" transform="translate(976.000000, 580.000000)">
                <g id="envie-icon-8" transform="translate(70.000000, 47.000000)">
                    <path d="M4.55767932,34.2526713 L13.765918,36.3526932 L17.9771524,30.6648788 C18.1096479,30.4877307 18.3329567,30.4030501 18.5499909,30.4476534 C18.7670252,30.4922568 18.9385761,30.6580863 18.9900587,30.8730442 C19.356584,32.3981148 20.0520993,33.8251468 21.0281489,35.0547205 L22.43394,36.8363717 C22.7631079,37.2542565 22.7261565,37.8518051 22.3479964,38.2261821 L17.8298206,42.7323516 C16.9578831,43.7344534 15.6026049,44.174808 14.3061346,43.8772615 L2.80811397,41.2507035 C1.81363882,41.023413 0.961727419,40.3876773 0.462480581,39.5002832 C-0.0367662577,38.6128892 -0.136877936,37.5564368 0.186835372,36.5914712 C0.834065103,34.8155581 2.71614827,33.8084721 4.55767932,34.2526713 L4.55767932,34.2526713 Z M44.2942985,13.1728597 C47.885449,13.9805138 51.4547654,11.7378199 52.274772,8.15852172 C52.8801084,5.5273433 51.8348746,2.79176961 49.6273271,1.2296599 C47.4197797,-0.332449811 44.4856155,-0.412786668 42.1954607,1.02617681 C39.905306,2.46514029 38.7111616,5.13940023 39.1708442,7.79973866 C39.6305268,10.4600771 41.6533102,12.5814311 44.2942985,13.1728597 L44.2942985,13.1728597 Z M23.5389286,6.16870505 C22.4907388,5.82685705 21.338883,6.09869124 20.5554593,6.87279403 L12.8328165,14.4769549 C11.6785467,15.5820001 11.5690031,17.3860001 12.5811246,18.6218961 C13.1195415,19.2410626 13.8910328,19.6101789 14.7122023,19.6414999 C15.5333717,19.672821 16.3308762,19.3635493 16.9151356,18.787204 L23.4100132,12.3953006 L28.7139587,15.1565539 L23.2810979,23.4341912 C21.5065556,26.426644 21.7653217,30.2004329 23.9318134,32.924086 L31.7526775,42.8609243 L26.2584284,54.7447217 C25.5289627,56.2351135 25.8798377,58.0273193 27.117864,59.1345634 C27.577356,59.5212194 28.125712,59.7883584 28.7139587,59.9121225 C28.8515908,59.9430786 28.9910003,59.9655702 29.1313989,59.9794701 C30.6794935,60.1440725 32.1607464,59.3069264 32.8146943,57.8978158 L39.2297673,43.8650164 C39.799779,42.66473 39.6505771,41.2475349 38.8430212,40.1915087 L33.88285,30.9036568 L38.4746917,22.9015326 L40.789029,27.6281125 C41.1415861,28.5581355 41.9400144,29.2485748 42.9130627,29.4648663 L43.1954487,29.5138464 L54.073448,30.9220243 C54.8793021,31.043919 55.699366,30.8216677 56.3325358,30.3097731 C56.9690727,29.7985579 57.3647001,29.04709 57.4252468,28.2342412 C57.4999451,26.6224402 56.3074437,25.2295282 54.6996082,25.0505346 L45.7307837,23.8811346 L43.2445593,17.7586218 C42.6753138,16.3547735 41.70377,15.1494272 40.4513936,14.2932796 C35.5261256,10.9221601 30.1349311,8.28425652 24.4474748,6.46258567 L23.5389286,6.16870505 Z" id="Shape"></path>
                </g>
            </g>
        </g>
    </g>
</svg>