<?xml version="1.0" encoding="UTF-8"?>
<svg width="58px" height="60px" viewBox="0 0 58 60" version="1.1" xmlns="http://www.w3.org/2000/svg" xmlns:xlink="http://www.w3.org/1999/xlink">
    <!-- Generator: Sketch 43.2 (39069) - http://www.bohemiancoding.com/sketch -->
    <title>envie-icon-3</title>
    <desc>Created with Sketch.</desc>
    <defs></defs>
    <g id="UX-UI" stroke="none" stroke-width="1" fill="none" fill-rule="evenodd">
        <g id="05-01-envie-de" transform="translate(-829.000000, -343.000000)" fill-rule="nonzero" fill="#FFFFFF">
            <g id="entrainer" transform="translate(759.000000, 296.000000)">
                <g id="envie-icon-3" transform="translate(70.000000, 47.000000)">
                    <path d="M25.2771429,16.5828571 C21.4975428,16.5828571 18.4080209,13.4933352 18.3114286,9.61714286 C18.3114286,5.75057239 21.4105724,2.65142857 25.2771429,2.65142857 C29.1437133,2.65142857 32.2428571,5.75057239 32.2428571,9.61714286 C32.2428571,13.4837133 29.1437133,16.5828571 25.2771429,16.5828571 Z M25.2771429,14.5828571 C28.0391438,14.5828571 30.2428571,12.3791438 30.2428571,9.61714286 C30.2428571,6.85514189 28.0391438,4.65142857 25.2771429,4.65142857 C22.5151419,4.65142857 20.3114286,6.85514189 20.3111162,9.59215067 C20.3805505,12.3695219 22.5938857,14.5828571 25.2771429,14.5828571 Z M54.7237454,23.6858581 C53.6763361,24.6701705 52.6317663,25.7524958 51.671285,26.8828761 L50.2967358,28.6589696 C50.0604929,29.0042478 50.017902,29.0614151 49.353221,29.9401479 C48.1751336,31.4976231 47.7371429,32.3118533 47.7371429,33.1485714 L47.7371429,36.0485714 C47.7371429,36.9779536 48.2163905,37.8496927 49.4843872,39.4624871 C49.4661524,39.4392938 49.8252449,39.8948133 49.9243514,40.0217234 C50.093399,40.2381961 50.2311573,40.4185509 50.3068624,40.5272097 C50.7955881,41.0857533 51.2272031,41.6503528 51.5121741,42.0715807 C52.5435237,43.2774874 53.6388906,44.4226578 54.6772182,45.412691 C55.0740932,45.7911068 55.4387378,46.1233673 55.7258647,46.3714672 C55.7728468,46.4120634 55.8165813,46.4493747 55.8563694,46.4828571 L56.1339406,46.6935049 C57.3090175,47.6074536 57.5141871,49.3677156 56.4927861,50.3304046 C55.9756421,50.9365182 55.2208063,51.3 54.4428571,51.3 C53.8681378,51.3 53.3350036,51.1333956 52.8485714,50.7685714 L52.7414646,50.6756782 C52.9401844,50.8743979 48.8081941,48.0278691 46.6076108,46.283926 C45.2314582,45.1933371 44.0305489,44.1413898 43.0401589,43.1361222 C42.9526073,43.0472554 42.8667886,42.9588328 42.8413504,42.9274093 C42.6077173,42.7197355 42.2169601,42.3393157 41.7212892,41.8008091 C40.9024613,40.9112182 40.0848962,39.893804 39.3211513,38.76233 C37.1212874,35.5032723 35.7942857,31.9646012 35.7942857,28.26 L35.7942857,26.284937 L37.3861952,27.4539956 C37.5345156,27.5629183 37.8502478,27.7511302 38.2973384,27.9447428 C40.4598326,28.8812105 42.7468042,28.7020745 44.9727546,26.5973589 C45.3597567,26.2314346 45.7397967,25.8092964 46.0948496,25.3508278 C48.3845749,22.2106332 51.6300041,19.0733849 52.8346308,18.2735049 C54.0172499,17.3536901 55.6388738,17.5158525 56.5579236,18.697488 C57.4777385,19.880107 57.3155761,21.501731 56.1339406,22.4207808 C55.880779,22.636682 55.1947217,23.2432539 54.7237454,23.6858581 Z M54.4428571,49.3 C54.6302858,49.3 54.8425775,49.1938542 54.9877026,49.0124478 L55.1177801,48.8778863 C55.1993056,48.8080072 55.1650089,48.4736146 54.9060594,48.2722094 C53.8556356,47.515828 51.7552278,45.4385166 49.9534518,43.3260895 L49.8822354,43.2318431 C49.6454064,42.8765996 49.2512924,42.3580284 48.7492299,41.7789133 C48.633648,41.6220522 48.5065528,41.4556577 48.3480493,41.2526872 C48.2522676,41.1300345 47.8964939,40.678725 47.9121301,40.6986131 C46.3694393,38.7364291 45.7371429,37.586298 45.7371429,36.0485714 L45.7371429,33.1485714 C45.7371429,31.7157653 46.3150374,30.6414522 47.7581409,28.7336158 C48.3953213,27.8912398 48.4365278,27.8359308 48.6801436,27.4828382 L50.1174909,25.6244511 C51.1591098,24.3968288 52.2550032,23.2613248 53.3541118,22.2284276 C54.0017772,21.6197782 54.9224281,20.8147869 54.8128932,20.9243218 L54.9060594,20.8420764 C55.1978835,20.6151021 55.2340879,20.2530575 54.9792192,19.9253692 C54.7522449,19.6335451 54.3902004,19.5973406 54.0032716,19.8949074 C53.7920756,20.0357048 52.8115405,20.8761634 51.8650221,21.7911312 C50.3808344,23.225846 48.9523687,24.8265381 47.6939101,26.5517476 C47.2597345,27.1131817 46.8104591,27.6122246 46.3468396,28.0505934 C43.6100535,30.6383224 40.6319,30.9815719 37.8991125,29.9413684 C38.2300258,32.6066203 39.3291531,35.1993909 40.9788487,37.6433843 C41.6832288,38.6869103 42.4386548,39.6269961 43.1928179,40.4463338 C43.4554032,40.7316116 43.6982895,40.9807258 43.9148981,41.1916039 C44.0414444,41.3148025 44.1286988,41.3958091 44.228705,41.4891422 C44.3056692,41.5696862 44.3844011,41.6508069 44.4648758,41.7324906 C45.3912141,42.6727443 46.5330048,43.6729061 47.8498111,44.7164636 C49.7091467,46.1899709 53.3366098,48.7089275 54.0372966,49.1836045 C54.1776495,49.26538 54.2884336,49.3 54.4428571,49.3 Z M48.6042496,7.09282107 C48.61867,7.07840066 48.6172749,7.07825956 48.6020739,7.09064537 L48.6042496,7.09282107 Z M46.2162149,9.27334783 C44.4934753,10.9195213 42.7626199,12.7268504 41.1454586,14.6238423 L38.5289271,17.9734472 C38.1781804,18.4820299 37.8570174,18.8958444 37.2033546,19.7039614 C35.1867836,22.1966683 34.5628571,23.3411112 34.5628571,25.1114286 L34.5628571,35.1371429 C34.5628571,36.8410433 35.5474393,38.5879186 37.8421588,41.4466039 C38.0288826,41.6792182 38.6704647,42.4712373 38.77315,42.5987186 C39.1367343,43.0500999 39.4105589,43.3974613 39.6339356,43.6941013 C39.8210052,43.9185849 39.9559717,44.0936765 40.2457143,44.48 C40.5152574,44.8393908 40.6357671,44.9957277 40.7972537,45.1895327 C42.473022,47.2218476 44.2688054,49.1092006 46.077037,50.81556 C47.1373917,51.8161765 48.7516577,53.2203012 48.6042496,53.0728932 C50.0817865,54.3354739 50.3526589,56.5701711 49.1468624,58.2499332 C48.3845458,59.1211522 47.3683162,59.5857143 46.24,59.5857143 C45.3930093,59.5857143 44.5993392,59.3211576 43.9581621,58.7865831 C42.6204563,57.7164185 37.7612553,52.8296083 33.8014538,48.2206448 C30.6873691,44.6274702 27.8075242,42.9522663 25.0512928,43.0968847 C22.3260421,43.1588222 19.6476427,44.9123068 17.348772,47.5389298 C13.4087732,52.3186005 8.26180488,57.5203238 6.69447011,58.7739356 C6.03780368,59.3211576 5.2441336,59.5857143 4.39714286,59.5857143 C3.22752359,59.5857143 2.11909535,59.0930795 1.4565388,58.2092501 C0.200969316,56.6112526 0.448319895,54.2437542 2.03932131,52.9936817 C2.39749506,52.6929515 3.5899547,51.6294816 4.4333934,50.8282149 C6.21852781,49.1323372 8.00146369,47.2653486 9.64571429,45.3085714 C9.88233108,44.9895953 10.0820608,44.723289 10.3285135,44.4052855 C10.7213941,43.8983428 11.1380099,43.3847786 11.5450236,42.9143506 C11.7683522,42.6098116 12.0119885,42.2928823 12.3223619,41.900048 C12.4767306,41.7046661 13.0271701,41.0148067 13.1296985,40.88547 C15.1628678,38.3206853 15.9914286,36.8006392 15.9914286,35.1371429 L15.9914286,25.1114286 C15.9914286,23.2755718 15.2209469,21.8714532 13.1407598,19.3237494 C13.123221,19.3022688 12.7250832,18.815772 12.6095743,18.6737753 C12.4056375,18.4230731 12.2391301,18.215378 12.0821373,18.014895 C11.9176854,17.8048866 11.7679561,17.6080898 11.6534169,17.4504093 L9.35304248,14.5741807 C7.71072375,12.6462414 5.98205641,10.8564724 4.26087504,9.23728694 C3.44705883,8.47169688 2.30222615,7.46012888 1.96019498,7.16728431 C0.365462752,5.92196009 0.118112173,3.55446169 1.37368166,1.95646416 C2.6237542,0.365462752 4.99125259,0.118112173 6.59612362,1.37913119 C6.92993878,1.64618332 7.14131473,1.81856356 7.54021609,2.15660713 C8.16739948,2.68810523 8.8469083,3.29001444 9.56871042,3.96196344 C11.5770262,5.83156974 13.5702292,7.92058292 15.4340027,10.1975678 C16.1327462,11.0512274 16.8023069,11.9187554 17.4389075,12.7990958 C20.251551,15.9114014 22.9549815,17.3795556 25.5007221,17.2345981 C27.9762636,17.1727095 30.3852942,15.7001494 32.7097146,13.2841565 C34.8861559,10.2672543 37.36821,7.4533119 39.9678564,4.90514357 C40.9063352,3.98524853 41.8024343,3.15752386 42.6316825,2.43073103 C43.1694187,1.9594333 43.5999231,1.59943668 43.8821784,1.37368166 C45.480176,0.118112173 47.8476744,0.365462752 49.0977469,1.95646416 C50.3533164,3.55446169 50.1059658,5.92196009 48.5149644,7.17203262 C48.1674072,7.46976736 47.0266279,8.49895318 46.2162149,9.27334783 Z M47.2463515,54.5392566 C47.3975956,54.6946663 45.8135894,53.3168621 44.7043916,52.2701543 C42.8391179,50.5099664 40.9869947,48.5634007 39.257493,46.4658987 C39.0704234,46.2414151 38.9354569,46.0663235 38.6457143,45.68 C38.3761712,45.3206092 38.2556615,45.1642723 38.0686221,44.9381434 C37.8305036,44.6238269 37.5678048,44.2905793 37.2155944,43.8533184 C37.1156799,43.729277 36.4726429,42.9354619 36.2824916,42.6985776 C33.7028375,39.4849302 32.5628571,37.4623429 32.5628571,35.1371429 L32.5628571,25.1114286 C32.5628571,22.7350049 33.3566248,21.2790293 35.5818375,18.5284192 C36.2707898,17.676685 36.5697039,17.2915378 36.9173985,16.7904434 L39.5958996,13.360105 C41.2878416,11.3739122 43.0651455,9.5180824 44.8344994,7.82736645 C45.8852134,6.82335079 47.3871344,5.48150914 47.1900361,5.6786075 C47.9908054,5.04037275 48.1065878,3.93216962 47.5251102,3.19210727 C46.966087,2.48062319 45.8578839,2.36484078 45.124695,2.94086881 C44.8723129,3.1427745 44.4647535,3.48358406 43.9499247,3.93480469 C43.1478012,4.63782412 42.2789001,5.44042609 41.3678579,6.33342786 C38.8284398,8.82256043 36.4055222,11.5719342 34.2917221,14.5097582 C31.53263,17.408313 28.6936124,19.1554007 25.5827641,19.232657 C22.3571899,19.4169756 19.110248,17.6459163 15.9167059,14.0975362 C15.2271966,13.1518199 14.5716458,12.3015939 13.88635,11.4643633 C12.0836367,9.26197615 10.1517874,7.23726589 8.20595338,5.42582589 C7.50763799,4.77574144 6.85132339,4.19437768 6.24719146,3.68241424 C5.86568338,3.35911037 5.66705737,3.19712789 5.35360702,2.94631834 C4.61354467,2.36484078 3.50534154,2.48062319 2.94631834,3.19210727 C2.36484078,3.93216962 2.48062319,5.04037275 3.19210727,5.59939595 C3.09938596,5.49660097 4.57936999,6.79100707 5.63126782,7.78057021 C7.40304243,9.44735077 9.18196703,11.2891534 10.8951545,13.3010192 L13.2406907,16.2343506 C13.3675047,16.4072788 13.5046616,16.5875511 13.6567924,16.7818252 C13.8051022,16.9712197 13.9643109,17.1698106 14.1610714,17.411691 C14.2743628,17.5509616 14.6707699,18.0353436 14.6899545,18.0588399 C17.0484085,20.9473506 17.9914286,22.6659014 17.9914286,25.1114286 L17.9914286,35.1371429 C17.9914286,37.4054599 17.0027781,39.2192004 14.6969825,42.1278954 C14.5914062,42.2610769 14.0423448,42.9492091 13.8916592,43.1399295 C13.5948782,43.5155601 13.3647747,43.8148855 13.1106852,44.1565057 C12.6790649,44.6600626 12.2829645,45.1483373 11.9093436,45.6304288 C11.6741892,45.9338538 11.4855261,46.1854047 11.2116885,46.5514427 C9.48133735,48.6131377 7.64740706,50.5335247 5.81089232,52.2782137 C4.71951331,53.3150238 3.16012916,54.6912273 3.36424964,54.4871068 C2.56348034,55.1253415 2.44769792,56.2335447 3.04285714,56.9914286 C3.31947608,57.3602538 3.82676212,57.5857143 4.39714286,57.5857143 C4.79300925,57.5857143 5.13172013,57.4728107 5.42959067,57.2248455 C5.76729636,56.9546809 7.31594537,55.4913388 8.86487615,53.9259301 C11.2175774,51.5482001 13.5937553,48.9499012 15.8245662,46.2443525 C18.4763272,43.2137684 21.5904539,41.1750237 24.9760126,41.098525 C28.4298,40.9167467 31.8343859,42.8971921 35.3156448,46.9140436 C37.5362992,49.4987396 39.8264497,51.9572836 42.0191071,54.1623992 C43.4907264,55.64238 44.9101363,56.9869128 45.2230415,57.237493 C45.5054227,57.4728107 45.8441336,57.5857143 46.24,57.5857143 C46.7895409,57.5857143 47.2578352,57.3716369 47.5805522,57.0101904 C48.1231072,56.2506135 47.9932721,55.1794743 47.2463515,54.5392566 Z M41.6828571,19.2228571 C44.2491532,19.2228571 46.3285714,21.2697845 46.3285714,23.8685714 C46.3285714,26.4094276 44.2237133,28.5142857 41.6828571,28.5142857 C39.142001,28.5142857 37.0371429,26.4094276 37.0371429,23.8685714 C37.0371429,21.3277153 39.142001,19.2228571 41.6828571,19.2228571 Z M41.6828571,21.2228571 C40.2465705,21.2228571 39.0371429,22.4322847 39.0371429,23.8685714 C39.0371429,25.3048581 40.2465705,26.5142857 41.6828571,26.5142857 C43.1191438,26.5142857 44.3285714,25.3048581 44.3285714,23.8685714 C44.3285714,22.3814655 43.1515724,21.2228571 41.6828571,21.2228571 Z" id="Shape"></path>
                </g>
            </g>
        </g>
    </g>
</svg>