<?xml version="1.0" encoding="UTF-8"?>
<svg width="40px" height="35px" viewBox="0 0 40 35" version="1.1" xmlns="http://www.w3.org/2000/svg" xmlns:xlink="http://www.w3.org/1999/xlink">
    <!-- Generator: Sketch 43.2 (39069) - http://www.bohemiancoding.com/sketch -->
    <title>envie-icon-2</title>
    <desc>Created with Sketch.</desc>
    <defs></defs>
    <g id="UX-UI" stroke="none" stroke-width="1" fill="none" fill-rule="evenodd">
        <g id="05-01-envie-de" transform="translate(-621.000000, -361.000000)" fill-rule="nonzero" fill="#FFFFFF">
            <g id="défouler" transform="translate(542.000000, 296.000000)">
                <g id="envie-icon-2" transform="translate(79.000000, 65.000000)">
                    <path d="M30,15 L1.11111111,15 C0.497333333,15 0,15.4973333 0,16.1111111 C0,16.7248889 0.497333333,17.2222222 1.11111111,17.2222222 L30,17.2222222 C34.2884444,17.2222222 37.7777778,20.7115556 37.7777778,25 C37.7777778,29.2884444 34.2884444,32.7777778 30,32.7777778 C25.7115556,32.7777778 22.2222222,29.2884444 22.2222222,25 C22.2222222,24.3862222 21.7248889,23.8888889 21.1111111,23.8888889 C20.4973333,23.8888889 20,24.3862222 20,25 C20,30.5137778 24.4857778,35 30,35 C35.5142222,35 40,30.5137778 40,25 C40,19.4862222 35.5142222,15 30,15 Z" id="Shape"></path>
                    <path d="M12.375,20 L1.125,20 C0.50355,20 0,20.49236 0,21.1 C0,21.70764 0.50355,22.2 1.125,22.2 L12.375,22.2 C14.2362,22.2 15.75,23.68016 15.75,25.5 C15.75,27.31984 14.2362,28.8 12.375,28.8 C10.5138,28.8 9,27.31984 9,25.5 C9,24.89236 8.49645,24.4 7.875,24.4 C7.25355,24.4 6.75,24.89236 6.75,25.5 C6.75,28.53292 9.27315,31 12.375,31 C15.47685,31 18,28.53292 18,25.5 C18,22.46708 15.47685,20 12.375,20 Z" id="Shape"></path>
                    <path d="M0,9.9 C0,10.50764 0.495557143,11 1.10714286,11 L25.4642857,11 C28.5169,11 31,8.53292 31,5.5 C31,2.46708 28.5169,0 25.4642857,0 C22.4116714,0 19.9285714,2.46708 19.9285714,5.5 C19.9285714,6.10764 20.4241286,6.6 21.0357143,6.6 C21.6473,6.6 22.1428571,6.10764 22.1428571,5.5 C22.1428571,3.68016 23.6326286,2.2 25.4642857,2.2 C27.2959429,2.2 28.7857143,3.68016 28.7857143,5.5 C28.7857143,7.31984 27.2959429,8.8 25.4642857,8.8 L1.10714286,8.8 C0.495557143,8.8 0,9.29236 0,9.9 Z" id="Shape"></path>
                </g>
            </g>
        </g>
    </g>
</svg>