<?xml version="1.0" encoding="UTF-8"?>
<svg width="60px" height="62px" viewBox="0 0 60 62" version="1.1" xmlns="http://www.w3.org/2000/svg" xmlns:xlink="http://www.w3.org/1999/xlink">
    <!-- Generator: Sketch 43.2 (39069) - http://www.bohemiancoding.com/sketch -->
    <title>envie-icon-4</title>
    <desc>Created with Sketch.</desc>
    <defs></defs>
    <g id="UX-UI" stroke="none" stroke-width="1" fill="none" fill-rule="evenodd">
        <g id="05-01-envie-de" transform="translate(-1045.000000, -342.000000)" fill-rule="nonzero" fill="#FFFFFF">
            <g id="ressourcer" transform="translate(976.000000, 296.000000)">
                <g id="envie-icon-4" transform="translate(69.000000, 46.000000)">
                    <path d="M15.1807303,38.4729707 L5.33532932,36.2276382 C3.97579822,35.8997831 2.59926942,36.6363515 2.1349103,37.9095183 C1.90116381,38.6062994 1.9734432,39.369045 2.33401931,40.0099566 C2.69493237,40.6514671 3.31118424,41.1113428 4.03081299,41.2758162 L15.5298242,43.902601 C16.4666699,44.1176119 17.445889,43.7994457 18.1236552,43.0243046 L22.6444533,38.5155296 C22.6612287,38.498922 22.6628027,38.4734672 22.648891,38.4558054 L21.2449212,36.6764555 C20.3637331,35.566383 19.6917612,34.3089555 19.2587947,32.9650197 L15.1807303,38.4729707 Z M14.3511068,36.2324159 L18.1763598,31.0659371 C18.5410579,30.5783311 19.1548985,30.3455574 19.7512968,30.468125 C20.3482073,30.5907979 20.8206069,31.0474423 20.9623724,31.6393648 C21.2948646,33.0228276 21.9258351,34.3174289 22.8131978,35.4352868 L24.2194998,37.217586 C24.8634131,38.0350459 24.7910844,39.2046883 24.0541618,39.934229 L19.5842231,44.3887637 C18.4698772,45.669461 16.7385399,46.2320041 15.0834356,45.8521487 L3.58530607,43.2255658 C2.3160934,42.9354832 1.22852246,42.1238874 0.59094185,40.9906099 C-0.0469757144,39.8567335 -0.174919677,38.5065742 0.247287404,37.2490539 C1.0681088,34.9968282 3.45212885,33.7195007 5.78575246,34.2790096 L14.3511068,36.2324159 Z M45.0748781,15.1484901 C42.0399521,14.4688426 39.7141313,12.0296842 39.1854464,8.97000656 C38.6566812,5.90986379 40.0301507,2.83400931 42.6634382,1.1794466 C45.2956519,-0.474441323 48.6676164,-0.382117574 51.2049579,1.41336172 C53.743383,3.20960784 54.9456269,6.35610642 54.2495191,9.3818334 C53.3064092,13.4984728 49.202814,16.0768679 45.0748781,15.1484901 Z M45.5128281,13.1970294 C48.568084,13.8841597 51.6031216,11.977167 52.3002302,8.93431585 C52.8145899,6.69858018 51.9263662,4.37393138 50.0496964,3.04595808 C48.1719429,1.71721795 45.6755791,1.64886799 43.7274833,2.87290702 C41.7804614,4.09627126 40.7656421,6.36893667 41.1562421,8.62947077 C41.5469224,10.89047 43.2666684,12.6940195 45.5128281,13.1970294 Z M25.7525064,6.51024345 C31.532248,8.36147292 37.0109559,11.0421966 42.0157446,14.4677446 C43.4304544,15.4348664 44.5280774,16.7966329 45.1710811,18.3823807 L47.4380235,23.9648952 L55.8102505,25.0566743 C57.9415537,25.2939434 59.5233064,27.1415237 59.4224842,29.3085225 C59.3413403,30.3978918 58.8112483,31.4047663 57.9612358,32.0874211 C57.1097118,32.775847 56.0072145,33.0746425 54.9450673,32.9137493 L44.0245495,31.4991349 L43.6960763,31.4410409 C42.3944609,31.1517147 41.3259863,30.2277535 40.8909121,29.0678692 L39.4047391,26.0326525 L36.0258109,31.9210531 L40.6891651,40.6531193 C41.678801,41.9991612 41.8516617,43.7808615 41.1392398,45.2807804 L34.7217726,59.3187778 C33.8875561,61.1163265 31.9989754,62.1836784 30.0328773,61.9746051 C29.8518138,61.9566792 29.6720234,61.9276727 29.5080714,61.8906982 C28.7585129,61.732995 28.0596922,61.392555 27.4512242,60.8799434 C25.8794675,59.4742235 25.4338157,57.1979145 26.350743,55.3250705 L31.5877423,43.9976919 L24.1492053,34.5466007 C21.7243465,31.4981358 21.4346762,27.273647 23.4450806,23.8854881 L28.2709306,16.532707 L24.5931989,14.6180666 L18.6174043,20.4991159 C17.8365262,21.2694167 16.7710358,21.6826131 15.674088,21.6407733 C14.577081,21.5989313 13.5462307,21.1057259 12.8074539,20.255484 C11.4643797,18.6154635 11.6097905,16.2207916 13.1311968,14.7644032 L20.8525967,7.16146832 C21.9020382,6.12451286 23.4441813,5.76034185 24.8477589,6.21758723 L25.7525064,6.51024345 Z M24.231166,8.12016822 C23.5363961,7.89358476 22.7754216,8.07317226 22.2570789,8.58534572 L14.5243531,16.1992963 C13.747303,16.9432087 13.6736265,18.1565367 14.3357233,18.9657096 C14.6928522,19.3763992 15.2049846,19.6214265 15.7503165,19.6422265 C16.2957076,19.6630288 16.8252261,19.4576819 17.2137015,19.0744697 L24.2268275,12.1725346 L31.1569868,15.7804007 L30.549976,16.705257 L25.1412335,24.9442567 C23.5784349,27.5796409 23.8062968,30.9027301 25.7176187,33.305612 L33.9176129,43.7241561 L33.6603629,44.2805755 L28.1566154,56.1843353 C27.6241097,57.2723125 27.8802078,58.5804151 28.7617224,59.3694187 C29.0950198,59.6498838 29.4929111,59.8437219 29.933396,59.9364959 C30.0311583,59.9584845 30.1301868,59.9744613 30.2371287,59.9850753 C31.3600116,60.1044666 32.4339366,59.4975263 32.9052218,58.4820518 L39.3264535,44.4360359 C39.735643,43.5743965 39.6285613,42.5572809 39.0486657,41.7989619 L38.9609307,41.6625886 L33.7398891,31.8862606 L39.5446443,21.7704126 L40.3728086,23.4617758 L42.7240966,28.2736431 C42.9571858,28.8885175 43.485568,29.3454349 44.0839619,29.4795778 L44.3238294,29.5221214 L55.2230081,30.9332717 C55.7513897,31.0131955 56.2890201,30.8674885 56.7063589,30.5300921 C57.1268972,30.1923496 57.38806,29.6962883 57.426319,29.1879463 C57.4765839,28.1033566 56.6733337,27.165113 55.5703176,27.0421413 L46.0235489,25.7973861 L45.804262,25.2573757 L43.3178471,19.1343937 C42.8225501,17.912914 41.9770856,16.8639881 40.8865728,16.1184932 C36.0412954,12.8021235 30.7376142,10.2070401 25.1397122,8.41404883 L24.231166,8.12016822 Z" id="Shape"></path>
                </g>
            </g>
        </g>
    </g>
</svg>